<svg width="26" height="25" viewBox="0 0 26 25" fill="none" xmlns="http://www.w3.org/2000/svg">
    <path d="M13 6.146c1.257 0 2.275.98 2.275 2.188 0 1.208-1.018 2.187-2.275 2.187s-2.275-.979-2.275-2.187c0-1.209 1.018-2.188 2.275-2.188zm0 9.375c3.218 0 6.608 1.521 6.608 2.188v1.146H6.393v-1.146c0-.667 3.39-2.188 6.608-2.188zm0-11.354c-2.394 0-4.333 1.865-4.333 4.167 0 2.302 1.939 4.166 4.333 4.166s4.334-1.864 4.334-4.166c0-2.302-1.94-4.167-4.334-4.167zm0 9.375c-2.892 0-8.666 1.396-8.666 4.167v2.083c0 .573.487 1.042 1.083 1.042h15.166c.596 0 1.084-.47 1.084-1.042v-2.083c0-2.771-5.774-4.167-8.667-4.167z" fill="#1A1818"/>
</svg>
