<svg width="26" height="25" viewBox="0 0 26 25" fill="none" xmlns="http://www.w3.org/2000/svg">
    <path d="M20.897 18.01 19.5 16.668v-5.208c0-3.198-1.777-5.875-4.875-6.584v-.708c0-.865-.726-1.563-1.625-1.563-.9 0-1.625.698-1.625 1.563v.708C8.265 5.584 6.5 8.25 6.5 11.46v5.208l-1.398 1.344c-.682.656-.205 1.781.759 1.781h14.267c.975 0 1.452-1.125.77-1.781zm-3.564-.301H8.667v-6.25c0-2.584 1.635-4.688 4.333-4.688 2.697 0 4.333 2.104 4.333 4.688v6.25zM13 22.917c1.192 0 2.167-.938 2.167-2.083h-4.334c0 1.146.964 2.083 2.167 2.083z" fill="#1A1818"/>
</svg>
