<svg width="24" height="32" viewBox="0 0 24 32" fill="none" xmlns="http://www.w3.org/2000/svg">
<path d="M9.71387 18.8436L12.919 20.6987L6.41042 32L4.54233 27.8233L9.71387 18.8436Z" fill="#2C6BCC"/>
<path d="M9.71387 18.8436L6.50875 16.9885L0.000186869 28.2898L4.54233 27.8233L9.71387 18.8436Z" fill="#498AEE"/>
<path d="M14.2864 18.8436L11.0813 20.6987L17.5898 32L19.4579 27.8233L14.2864 18.8436Z" fill="#2C6BCC"/>
<path d="M14.2864 18.8436L17.4915 16.9885L24.0001 28.2898L19.4579 27.8233L14.2864 18.8436Z" fill="#498AEE"/>
<ellipse cx="11.9948" cy="11.0622" rx="11.0346" ry="11.0622" fill="#DC9E42"/>
<ellipse cx="11.9948" cy="11.0622" rx="8.61349" ry="8.63501" fill="#734C12"/>
<mask id="mask0_1968_22364" style="mask-type:alpha" maskUnits="userSpaceOnUse" x="3" y="3" width="19" height="18">
<ellipse cx="12.4546" cy="11.984" rx="8.63354" ry="8.65511" fill="#C28B37"/>
</mask>
<g mask="url(#mask0_1968_22364)">
<ellipse cx="11.9951" cy="11.0622" rx="8.63354" ry="8.65511" fill="#A36D1D"/>
</g>
<path d="M11.8676 5.38967C11.9393 5.24601 12.1438 5.24601 12.2154 5.38967L13.8574 8.68175C13.8864 8.74004 13.9426 8.77991 14.0071 8.78799L17.2612 9.19576C17.4167 9.21525 17.4865 9.40166 17.3822 9.5189L15.1331 12.0472C15.0939 12.0913 15.0767 12.151 15.0865 12.2094L15.7025 15.8647C15.729 16.022 15.5661 16.1429 15.4238 16.0715L12.1285 14.4197C12.0737 14.3923 12.0093 14.3923 11.9546 14.4197L8.65982 16.0712C8.5174 16.1426 8.35445 16.0215 8.38121 15.8641L9.00251 12.2096C9.01246 12.1511 8.99527 12.0913 8.9558 12.047L6.70156 9.51901C6.59706 9.40181 6.66681 9.21519 6.8224 9.19569L10.0759 8.78799C10.1404 8.77991 10.1966 8.74004 10.2257 8.68175L11.8676 5.38967Z" fill="url(#paint0_linear_1968_22364)"/>
<defs>
<linearGradient id="paint0_linear_1968_22364" x1="12.0418" y1="5.28192" x2="12.0418" y2="16.0925" gradientUnits="userSpaceOnUse">
<stop stop-color="#F0950E"/>
<stop offset="0.401042" stop-color="#FFA31B"/>
<stop offset="1" stop-color="#F8980A"/>
</linearGradient>
</defs>
</svg>
