<svg width="17" height="17" viewBox="0 0 17 17" fill="none" xmlns="http://www.w3.org/2000/svg">
<circle cx="8.5" cy="8.5" r="8.5" fill="white" fill-opacity="0.39"/>
<g clip-path="url(#clip0_462_9196)">
<path d="M11.4751 5.53005C11.2909 5.34589 10.9934 5.34589 10.8093 5.53005L8.50009 7.8345L6.19092 5.52533C6.00675 5.34117 5.70925 5.34117 5.52509 5.52533C5.34092 5.7095 5.34092 6.007 5.52509 6.19117L7.83425 8.50033L5.52509 10.8095C5.34092 10.9937 5.34092 11.2912 5.52509 11.4753C5.70925 11.6595 6.00675 11.6595 6.19092 11.4753L8.50009 9.16617L10.8093 11.4753C10.9934 11.6595 11.2909 11.6595 11.4751 11.4753C11.6593 11.2912 11.6593 10.9937 11.4751 10.8095L9.16592 8.50033L11.4751 6.19117C11.6545 6.01172 11.6545 5.7095 11.4751 5.53005Z" fill="white"/>
</g>
<defs>
<clipPath id="clip0_462_9196">
<rect width="11.3333" height="11.3333" fill="white" transform="translate(2.8335 2.8335)"/>
</clipPath>
</defs>
</svg>
