<svg width="51" height="40" viewBox="0 0 51 40" fill="none" xmlns="http://www.w3.org/2000/svg">
    <path d="M6.12 35.02c0 .993-.273 1.753-.82 2.28-.54.52-1.313.78-2.32.78A17.055 17.055 0 0 1 1.34 38a4.063 4.063 0 0 1-.33-.04.349.349 0 0 1-.2-.09c-.04-.047-.06-.12-.06-.22v-6.73c0-.1.02-.173.06-.22a.349.349 0 0 1 .2-.09c.073-.013.183-.027.33-.04.153-.013.32-.027.5-.04a15.647 15.647 0 0 1 1.14-.04c1.007 0 1.78.263 2.32.79.547.52.82 1.277.82 2.27v1.47zm-1.38-1.47c0-.373-.047-.68-.14-.92a1.342 1.342 0 0 0-.37-.58 1.203 1.203 0 0 0-.56-.3 2.54 2.54 0 0 0-.69-.09c-.187 0-.347.003-.48.01s-.253.013-.36.02v5.19c.107.007.227.013.36.02.133.007.293.01.48.01.247 0 .477-.027.69-.08.22-.06.407-.16.56-.3.16-.147.283-.34.37-.58.093-.247.14-.557.14-.93v-1.47zm6.86 4.25c0 .053-.02.1-.06.14a.192.192 0 0 1-.14.06h-.85c-.053 0-.1-.02-.14-.06a.192.192 0 0 1-.06-.14v-.16c-.233.14-.467.25-.7.33-.233.073-.47.11-.71.11-.207 0-.413-.023-.62-.07a1.438 1.438 0 0 1-.56-.26 1.483 1.483 0 0 1-.4-.51c-.1-.213-.15-.49-.15-.83v-.04c0-.287.043-.537.13-.75a1.35 1.35 0 0 1 .43-.54c.2-.147.453-.257.76-.33.313-.073.687-.11 1.12-.11h.63v-.44c0-.327-.073-.543-.22-.65-.14-.107-.36-.16-.66-.16-.32 0-.63.01-.93.03-.3.013-.533.03-.7.05h-.05a.25.25 0 0 1-.13-.03c-.033-.02-.05-.067-.05-.14v-.64c0-.113.063-.183.19-.21a8.275 8.275 0 0 1 1.67-.16c.713 0 1.257.157 1.63.47.38.313.57.793.57 1.44v3.6zm-1.32-2.28h-.63c-.227 0-.413.02-.56.06a.807.807 0 0 0-.34.16.54.54 0 0 0-.17.26c-.027.107-.04.23-.04.37v.04c0 .247.057.413.17.5.113.08.297.12.55.12.18 0 .357-.027.53-.08.18-.053.343-.12.49-.2v-1.23zm6.508 1c0 .22-.04.427-.12.62-.08.187-.203.35-.37.49-.16.14-.363.25-.61.33a2.79 2.79 0 0 1-.86.12 6.487 6.487 0 0 1-.83-.05c-.166-.013-.333-.03-.5-.05a3.96 3.96 0 0 1-.46-.1c-.126-.033-.19-.11-.19-.23v-.6c0-.04.014-.077.04-.11a.176.176 0 0 1 .13-.05h.04c.12.013.26.027.42.04l.49.04.45.02c.14.007.247.01.32.01.154 0 .277-.01.37-.03a.56.56 0 0 0 .21-.1.296.296 0 0 0 .1-.16c.02-.06.03-.123.03-.19a.361.361 0 0 0-.1-.25 1.683 1.683 0 0 0-.34-.26l-1.37-.84a2.03 2.03 0 0 1-.61-.58 1.455 1.455 0 0 1-.23-.8c0-1 .634-1.5 1.9-1.5.2 0 .38.007.54.02.167.007.32.02.46.04s.274.043.4.07c.127.02.254.043.38.07.12.033.18.11.18.23v.58c0 .127-.053.19-.16.19h-.04a23.735 23.735 0 0 1-.3-.03 3.755 3.755 0 0 0-.42-.04 10.384 10.384 0 0 0-.48-.03 5.45 5.45 0 0 0-.45-.02c-.24 0-.416.033-.53.1-.106.06-.16.167-.16.32 0 .08.034.15.1.21.074.06.174.127.3.2l1.31.8c.207.127.374.253.5.38.127.127.224.253.29.38a1.1 1.1 0 0 1 .14.38c.02.127.03.253.03.38zm5.823 1.27c0 .053-.02.103-.06.15a.192.192 0 0 1-.14.06h-.92c-.053 0-.1-.02-.14-.06a.227.227 0 0 1-.06-.15V34.5c0-.22-.013-.4-.04-.54a.713.713 0 0 0-.12-.33.481.481 0 0 0-.25-.17 1.404 1.404 0 0 0-.41-.05c-.34 0-.727.113-1.16.34v4.04c0 .053-.02.103-.06.15a.192.192 0 0 1-.14.06h-.92c-.053 0-.1-.02-.14-.06a.227.227 0 0 1-.06-.15v-7.2c0-.053.02-.1.06-.14.04-.04.087-.06.14-.06h.92c.053 0 .1.02.14.06.04.04.06.087.06.14v2.07c.193-.113.403-.203.63-.27.227-.067.52-.1.88-.1.347 0 .633.057.86.17.233.113.417.27.55.47.14.2.237.437.29.71.06.267.09.553.09.86v3.29zm6.068-2.22c0 .787-.197 1.403-.59 1.85-.393.44-.993.66-1.8.66a8.598 8.598 0 0 1-2.01-.26.565.565 0 0 1-.22-.1.259.259 0 0 1-.05-.17v-6.96c0-.053.02-.1.06-.14.04-.04.087-.06.14-.06h.92c.053 0 .1.02.14.06.04.04.06.087.06.14v1.77c.187-.027.363-.043.53-.05.167-.013.31-.02.43-.02.807 0 1.407.223 1.8.67.393.44.59 1.053.59 1.84v.77zm-1.32-.77c0-.207-.017-.397-.05-.57a1.165 1.165 0 0 0-.16-.45.845.845 0 0 0-.33-.3 1.136 1.136 0 0 0-.53-.11c-.12 0-.277.007-.47.02-.187.013-.35.03-.49.05v3.49c.093.02.23.037.41.05.187.013.37.02.55.02.213 0 .39-.037.53-.11a.845.845 0 0 0 .33-.3c.08-.127.133-.277.16-.45.033-.173.05-.363.05-.57v-.77zm7.131.79c0 .36-.053.693-.16 1-.1.3-.25.56-.45.78-.2.22-.45.393-.75.52-.293.127-.636.19-1.03.19-.393 0-.74-.063-1.04-.19a2.12 2.12 0 0 1-.74-.52 2.28 2.28 0 0 1-.46-.78c-.1-.307-.15-.64-.15-1v-.81c0-.36.05-.69.15-.99.107-.307.26-.57.46-.79.2-.22.447-.393.74-.52.3-.127.647-.19 1.04-.19.394 0 .737.063 1.03.19.3.127.55.3.75.52.2.22.35.483.45.79.107.3.16.63.16.99v.81zm-1.32-.81c0-.413-.09-.74-.27-.98-.18-.247-.446-.37-.8-.37-.353 0-.62.123-.8.37-.18.24-.27.567-.27.98v.81c0 .413.09.743.27.99.18.24.447.36.8.36.354 0 .62-.12.8-.36.18-.247.27-.577.27-.99v-.81zm6.733 3.02c0 .053-.02.1-.06.14a.192.192 0 0 1-.14.06h-.85c-.054 0-.1-.02-.14-.06a.192.192 0 0 1-.06-.14v-.16a3.69 3.69 0 0 1-.7.33c-.234.073-.47.11-.71.11-.207 0-.414-.023-.62-.07a1.437 1.437 0 0 1-.56-.26 1.482 1.482 0 0 1-.4-.51c-.1-.213-.15-.49-.15-.83v-.04c0-.287.043-.537.13-.75.093-.213.236-.393.43-.54.2-.147.453-.257.76-.33.313-.073.686-.11 1.12-.11h.63v-.44c0-.327-.074-.543-.22-.65-.14-.107-.36-.16-.66-.16-.32 0-.63.01-.93.03-.3.013-.534.03-.7.05h-.05a.25.25 0 0 1-.13-.03c-.034-.02-.05-.067-.05-.14v-.64c0-.113.063-.183.19-.21a8.274 8.274 0 0 1 1.67-.16c.713 0 1.256.157 1.63.47.38.313.57.793.57 1.44v3.6zm-1.32-2.28h-.63c-.227 0-.414.02-.56.06a.807.807 0 0 0-.34.16.539.539 0 0 0-.17.26c-.027.107-.04.23-.04.37v.04c0 .247.056.413.17.5.113.08.296.12.55.12.18 0 .356-.027.53-.08.18-.053.343-.12.49-.2v-1.23zm5.618-2.31c0 .053-.02.1-.06.14a.192.192 0 0 1-.14.06c-.273 0-.52.033-.74.1-.213.06-.427.147-.64.26v4.02c0 .053-.02.103-.06.15a.192.192 0 0 1-.14.06h-.92c-.053 0-.1-.02-.14-.06a.227.227 0 0 1-.06-.15v-5.23c0-.053.02-.1.06-.14.04-.04.087-.06.14-.06h.87c.053 0 .1.02.14.06.04.04.06.087.06.14v.21a1.95 1.95 0 0 1 .75-.38c.254-.067.48-.1.68-.1.053 0 .1.02.14.06.04.04.06.087.06.14v.72zm5.244 4.34c0 .073-.016.13-.05.17a.565.565 0 0 1-.22.1 8.598 8.598 0 0 1-2.01.26c-.806 0-1.406-.22-1.8-.66-.393-.447-.59-1.063-.59-1.85v-.77c0-.787.197-1.4.59-1.84.394-.447.994-.67 1.8-.67.12 0 .264.007.43.02.167.007.344.023.53.05v-1.77c0-.053.02-.1.06-.14.04-.04.087-.06.14-.06h.92c.054 0 .1.02.14.06.04.04.06.087.06.14v6.96zm-1.32-4.11a6.99 6.99 0 0 0-.5-.05 6.722 6.722 0 0 0-.46-.02c-.213 0-.39.037-.53.11a.845.845 0 0 0-.33.3c-.08.127-.136.277-.17.45-.026.173-.04.363-.04.57v.77c0 .207.014.397.04.57.034.173.09.323.17.45.08.127.19.227.33.3.14.073.317.11.53.11.18 0 .36-.007.54-.02.187-.013.327-.03.42-.05v-3.49zM17 13h6c.55 0 1-.45 1-1V4c0-.55-.45-1-1-1h-6c-.55 0-1 .45-1 1v8c0 .55.45 1 1 1zm0 8h6c.55 0 1-.45 1-1v-4c0-.55-.45-1-1-1h-6c-.55 0-1 .45-1 1v4c0 .55.45 1 1 1zm10 0h6c.55 0 1-.45 1-1v-8c0-.55-.45-1-1-1h-6c-.55 0-1 .45-1 1v8c0 .55.45 1 1 1zM26 4v4c0 .55.45 1 1 1h6c.55 0 1-.45 1-1V4c0-.55-.45-1-1-1h-6c-.55 0-1 .45-1 1z" fill="#1A1818"/>
</svg>
