<svg width="26" height="25" viewBox="0 0 26 25" fill="none" xmlns="http://www.w3.org/2000/svg">
    <path d="M14.842 16.98a.997.997 0 0 0 0-1.46l-2.059-1.978h9.967c.596 0 1.084-.47 1.084-1.042 0-.573-.488-1.042-1.084-1.042h-9.966l2.058-1.979a.997.997 0 0 0 0-1.458 1.096 1.096 0 0 0-1.517 0l-3.889 3.74a1.01 1.01 0 0 0 0 1.468l3.89 3.75a1.096 1.096 0 0 0 1.516 0zM4.334 5.207h7.583c.596 0 1.083-.468 1.083-1.041s-.487-1.042-1.083-1.042H4.334c-1.192 0-2.167.938-2.167 2.083v14.584c0 1.145.975 2.083 2.167 2.083h7.583c.596 0 1.083-.469 1.083-1.042 0-.573-.487-1.041-1.083-1.041H4.334V5.208z" fill="#1A1818"/>
</svg>
