<svg width="26" height="25" viewBox="0 0 26 25" fill="none" xmlns="http://www.w3.org/2000/svg">
    <path d="M13 22.916c5.983 0 10.833-4.663 10.833-10.416S18.983 2.083 13 2.083C7.017 2.083 2.166 6.747 2.166 12.5S7.016 22.916 13 22.916z" stroke="#000" stroke-width="2" stroke-linecap="round" stroke-linejoin="round"/>
    <path d="M9.848 9.375a3.156 3.156 0 0 1 1.419-1.657 3.36 3.36 0 0 1 2.196-.386A3.282 3.282 0 0 1 15.4 8.4c.494.564.765 1.279.763 2.017 0 2.083-3.25 3.125-3.25 3.125M13 17.708h.01" stroke="#000" stroke-width="2" stroke-linecap="round" stroke-linejoin="round"/>
</svg>
