<svg width="26" height="25" viewBox="0 0 26 25" fill="none" xmlns="http://www.w3.org/2000/svg">
    <path d="M13 9.375h4.333c.596 0 1.084-.469 1.084-1.042 0-.573-.488-1.041-1.084-1.041H13c-.596 0-1.083.468-1.083 1.041S12.404 9.375 13 9.375zm0 4.167h4.333c.596 0 1.084-.47 1.084-1.042 0-.573-.488-1.042-1.084-1.042H13c-.596 0-1.083.47-1.083 1.042 0 .573.487 1.042 1.083 1.042zm0 4.166h4.333c.596 0 1.084-.468 1.084-1.041s-.488-1.042-1.084-1.042H13c-.596 0-1.083.469-1.083 1.042 0 .573.487 1.041 1.083 1.041zM7.583 7.292H9.75v2.083H7.583V7.292zm0 4.166H9.75v2.084H7.583v-2.084zm0 4.167H9.75v2.083H7.583v-2.083zm14.084-12.5H4.333c-.596 0-1.083.469-1.083 1.042v16.666c0 .573.487 1.042 1.083 1.042h17.334c.595 0 1.083-.469 1.083-1.042V4.167c0-.573-.488-1.042-1.083-1.042zm-1.084 16.667H5.417V5.208h15.166v14.584z" fill="#1A1818"/>
</svg>
