<svg width="100" height="87" viewBox="0 0 100 87" fill="none" xmlns="http://www.w3.org/2000/svg">
<path d="M9.44643 40.8004C15.6349 18.2671 39.6339 5.22432 63.0498 11.6686C86.4656 18.113 83.6401 33.0882 77.4517 55.6216C71.2632 78.155 68.0267 85.2527 44.6108 78.8083C21.195 72.364 3.25798 63.3338 9.44643 40.8004Z" fill="#498AEE" fill-opacity="0.1"/>
<path d="M52.7619 72.96H53.2619V72.46V34.2616V33.7616H52.7619H14.5294H14.0294V34.2616V72.46V72.96H14.5294H52.7619ZM44.5692 44.6754H33.6457C32.4194 44.6754 31.4148 43.6711 31.4148 42.447C31.4148 41.2229 32.4194 40.2185 33.6457 40.2185H44.5692C45.7955 40.2185 46.8001 41.2229 46.8001 42.447C46.8001 43.6711 45.7955 44.6754 44.5692 44.6754ZM44.5692 55.5893H33.6457C32.4194 55.5893 31.4148 54.5849 31.4148 53.3608C31.4148 52.1367 32.4194 51.1324 33.6457 51.1324H44.5692C45.7955 51.1324 46.8001 52.1367 46.8001 53.3608C46.8001 54.5849 45.7955 55.5893 44.5692 55.5893ZM44.5692 66.5031H33.6457C32.4194 66.5031 31.4148 65.4987 31.4148 64.2747C31.4148 63.0506 32.4194 62.0462 33.6457 62.0462H44.5692C45.7955 62.0462 46.8001 63.0506 46.8001 64.2747C46.8001 65.4987 45.7955 66.5031 44.5692 66.5031ZM20.4912 40.2185H24.953V44.6754H20.4912V40.2185ZM20.4912 51.1324H24.953V55.5893H20.4912V51.1324ZM20.4912 62.0462H24.953V66.5031H20.4912V62.0462ZM11.7985 29.3047H55.4928C56.7191 29.3047 57.7237 30.3091 57.7237 31.5331V75.1885C57.7237 76.4126 56.7191 77.4169 55.4928 77.4169H11.7985C10.5723 77.4169 9.56766 76.4126 9.56766 75.1885V31.5331C9.56766 30.3091 10.5723 29.3047 11.7985 29.3047Z" fill="#498AEE" stroke="#498AEE"/>
<ellipse cx="88.4618" cy="60.2479" rx="5.46178" ry="5.45692" fill="#498AEE" fill-opacity="0.25"/>
<ellipse cx="94.4618" cy="26.2479" rx="5.46178" ry="5.45692" fill="#498AEE" fill-opacity="0.42"/>
</svg>
