<svg width="17" height="17" viewBox="0 0 17 17" fill="none" xmlns="http://www.w3.org/2000/svg">
    <g clip-path="url(#y1uooslyha)">
        <path d="M2.323 12.618c0 .377.31.686.687.686h3.43V11.93H3.01a.688.688 0 0 0-.687.687zm0-8.236c0 .378.31.687.687.687h6.176V3.696H3.01a.688.688 0 0 0-.687.686zm6.863 9.608v-.686h4.804a.688.688 0 0 0 .686-.686.688.688 0 0 0-.686-.687H9.186v-.686a.688.688 0 0 0-.686-.686.688.688 0 0 0-.687.686v2.745c0 .378.31.687.687.687a.688.688 0 0 0 .686-.687zM5.068 7.127v.687H3.01a.688.688 0 0 0-.687.686c0 .377.31.686.687.686h2.058v.687c0 .377.31.686.687.686a.688.688 0 0 0 .686-.686V7.127a.688.688 0 0 0-.686-.686.688.688 0 0 0-.687.686zM14.676 8.5a.688.688 0 0 0-.686-.686H7.813v1.372h6.177a.688.688 0 0 0 .686-.686zm-3.431-2.059a.688.688 0 0 0 .686-.686v-.686h2.059a.688.688 0 0 0 .686-.687.688.688 0 0 0-.686-.686H11.93V3.01a.688.688 0 0 0-.686-.686.688.688 0 0 0-.686.686v2.745c0 .377.308.686.686.686z" fill="#fff"/>
    </g>
    <defs>
        <clipPath id="y1uooslyha">
            <path fill="#fff" transform="translate(.265 .265)" d="M0 0h16.471v16.471H0z"/>
        </clipPath>
    </defs>
</svg>
