<svg width="24" height="32" viewBox="0 0 24 32" fill="none" xmlns="http://www.w3.org/2000/svg">
<path d="M9.71387 18.8436L12.919 20.6987L6.41041 32L4.54231 27.8233L9.71387 18.8436Z" fill="#2C6BCC"/>
<path d="M9.71387 18.8436L6.50875 16.9885L0.000166555 28.2898L4.54231 27.8233L9.71387 18.8436Z" fill="#498AEE"/>
<path d="M14.2864 18.8436L11.0813 20.6987L17.5898 32L19.4579 27.8233L14.2864 18.8436Z" fill="#2C6BCC"/>
<path d="M14.2864 18.8436L17.4915 16.9885L24.0001 28.2898L19.4579 27.8233L14.2864 18.8436Z" fill="#498AEE"/>
<ellipse cx="11.9018" cy="11.0622" rx="11.0346" ry="11.0622" fill="url(#paint0_linear_1968_22351)"/>
<ellipse cx="11.9016" cy="11.0621" rx="8.61351" ry="8.63501" fill="#A88300"/>
<mask id="mask0_1968_22351" style="mask-type:alpha" maskUnits="userSpaceOnUse" x="3" y="3" width="18" height="18">
<ellipse cx="12.3616" cy="11.984" rx="8.63356" ry="8.65511" fill="#C28B37"/>
</mask>
<g mask="url(#mask0_1968_22351)">
<ellipse cx="11.9019" cy="11.0622" rx="8.63356" ry="8.65511" fill="#C09525"/>
</g>
<path d="M11.7744 5.38964C11.846 5.24598 12.0505 5.24598 12.1222 5.38964L13.7641 8.68172C13.7932 8.74001 13.8494 8.77988 13.9139 8.78796L17.1679 9.19573C17.3234 9.21521 17.3932 9.40163 17.2889 9.51887L15.0399 12.0471C15.0006 12.0913 14.9835 12.151 14.9933 12.2093L15.6093 15.8647C15.6358 16.022 15.4729 16.1428 15.3306 16.0715L12.0352 14.4197C11.9805 14.3923 11.9161 14.3923 11.8613 14.4197L8.56656 16.0712C8.42414 16.1426 8.26119 16.0215 8.28795 15.8641L8.90926 12.2096C8.91921 12.1511 8.90201 12.0912 8.86255 12.047L6.6083 9.51898C6.5038 9.40178 6.57355 9.21516 6.72914 9.19566L9.98263 8.78796C10.0471 8.77988 10.1033 8.74001 10.1324 8.68172L11.7744 5.38964Z" fill="url(#paint1_linear_1968_22351)"/>
<defs>
<linearGradient id="paint0_linear_1968_22351" x1="11.9018" y1="0" x2="11.9018" y2="22.1243" gradientUnits="userSpaceOnUse">
<stop stop-color="#FFC600"/>
<stop offset="1" stop-color="#FFDE69"/>
</linearGradient>
<linearGradient id="paint1_linear_1968_22351" x1="11.9485" y1="5.28189" x2="11.9485" y2="16.0925" gradientUnits="userSpaceOnUse">
<stop stop-color="#FFD954"/>
<stop offset="0.59375" stop-color="#FFCE22"/>
<stop offset="1" stop-color="#FFD028"/>
</linearGradient>
</defs>
</svg>
