<svg width="36" height="36" viewBox="0 0 36 36" fill="none" xmlns="http://www.w3.org/2000/svg">
<path d="M0 9C0 4.02944 4.02944 0 9 0H27C31.9706 0 36 4.02944 36 9V27C36 31.9706 31.9706 36 27 36H9C4.02944 36 0 31.9706 0 27V9Z" fill="white"/>
<path d="M9 23.4596V26.4996C9 26.7796 9.22 26.9996 9.5 26.9996H12.54C12.67 26.9996 12.8 26.9496 12.89 26.8496L23.81 15.9396L20.06 12.1896L9.15 23.0996C9.05 23.1996 9 23.3196 9 23.4596ZM26.71 13.0396C27.1 12.6496 27.1 12.0196 26.71 11.6296L24.37 9.28957C23.98 8.89957 23.35 8.89957 22.96 9.28957L21.13 11.1196L24.88 14.8696L26.71 13.0396Z" fill="#498AEE"/>
</svg>
