<svg width="100" height="87" viewBox="0 0 100 87" fill="none" xmlns="http://www.w3.org/2000/svg">
<path d="M9.44646 40.8004C15.6349 18.2671 39.6339 5.22432 63.0498 11.6686C86.4656 18.113 83.6401 33.0882 77.4517 55.6216C71.2632 78.155 68.0267 85.2527 44.6109 78.8083C21.195 72.364 3.25801 63.3338 9.44646 40.8004Z" fill="#498AEE" fill-opacity="0.1"/>
<path d="M49.0683 36.8227L48.8313 37.49H49.5395H55.4928C58.2484 37.49 60.4546 39.6949 60.4546 42.4469V72.46C60.4546 75.212 58.2484 77.4169 55.4928 77.4169H11.7986C9.04301 77.4169 6.83679 75.212 6.83679 72.46L6.8641 42.4474V42.4469C6.8641 39.6916 9.04628 37.49 11.7986 37.49H17.7519H18.4601L18.2231 36.8227C17.9385 36.0213 17.7604 35.1504 17.7604 34.2615C17.7604 30.0089 21.1955 26.5762 25.453 26.5762C28.1431 26.5762 30.4777 27.9574 31.8659 30.0122L31.8716 30.0206L31.8776 30.0287L33.243 31.884L33.6427 32.4272L34.0463 31.8869L35.4117 30.0588L35.4197 30.0482L35.4271 30.0371C36.8152 27.9568 39.1489 26.5762 41.8384 26.5762C46.0959 26.5762 49.531 30.0089 49.531 34.2615C49.531 35.1504 49.3529 36.0213 49.0683 36.8227ZM11.7986 66.5031H11.2986V67.0031V69.7315C11.2986 71.5087 12.7518 72.96 14.5295 72.96H52.7619C54.5396 72.96 55.9928 71.5087 55.9928 69.7315V67.0031V66.5031H55.4928H11.7986ZM55.4928 59.3177H55.9928V58.8177V45.1754C55.9928 43.3982 54.5396 41.9469 52.7619 41.9469H41.6199H40.6332L41.2167 42.7426L45.2584 48.2541L45.2585 48.2543C45.9965 49.2597 45.7699 50.6611 44.7712 51.3707L44.7712 51.3706L44.7669 51.3738C43.7889 52.0844 42.3808 51.8614 41.6691 50.8837L41.6678 50.8819L34.0486 40.5138L33.6457 39.9655L33.2428 40.5138L25.6236 50.8819L25.6223 50.8837C24.9106 51.8614 23.5025 52.0844 22.5245 51.3738L22.5245 51.3737L22.5202 51.3707C21.5215 50.6611 21.2949 49.2597 22.0329 48.2543L22.033 48.2541L26.0747 42.7426L26.6582 41.9469H25.6715H14.5295C12.7518 41.9469 11.2986 43.3982 11.2986 45.1754V58.8177V59.3177H11.7986H55.4928ZM45.0693 34.2615C45.0693 32.4843 43.6161 31.0331 41.8384 31.0331C40.0607 31.0331 38.6075 32.4843 38.6075 34.2615C38.6075 36.0388 40.0607 37.49 41.8384 37.49C43.6161 37.49 45.0693 36.0388 45.0693 34.2615ZM28.6839 34.2615C28.6839 32.4843 27.2307 31.0331 25.453 31.0331C23.6753 31.0331 22.2221 32.4843 22.2221 34.2615C22.2221 36.0388 23.6753 37.49 25.453 37.49C27.2307 37.49 28.6839 36.0388 28.6839 34.2615Z" fill="#498AEE" stroke="#498AEE"/>
<ellipse cx="88.4618" cy="60.2479" rx="5.46178" ry="5.45692" fill="#498AEE" fill-opacity="0.25"/>
<ellipse cx="94.4618" cy="26.2479" rx="5.46178" ry="5.45692" fill="#498AEE" fill-opacity="0.42"/>
</svg>
