<svg width="20" height="20" viewBox="0 0 20 20" fill="none" xmlns="http://www.w3.org/2000/svg">
<path d="M18.57 12.8605L19.29 12.1405C19.68 11.7505 19.68 11.1205 19.29 10.7305L19.27 10.7105C18.88 10.3205 18.25 10.3205 17.86 10.7105L15 13.5705L6.42998 5.00047L9.28998 2.14047C9.67998 1.75047 9.67998 1.12047 9.28998 0.730469L9.26998 0.710469C8.87998 0.320469 8.24998 0.320469 7.85998 0.710469L7.13998 1.43047L6.41998 0.710469C6.02998 0.320469 5.38998 0.320469 4.99998 0.710469L3.56998 2.14047L2.84998 1.42047C2.45998 1.03047 1.80998 1.03047 1.41998 1.42047C1.02998 1.81047 1.02998 2.46047 1.41998 2.85047L2.13998 3.57047L0.70998 5.00047C0.31998 5.39047 0.31998 6.02047 0.70998 6.41047L1.42998 7.13047L0.70998 7.86047C0.31998 8.25047 0.31998 8.88047 0.70998 9.27047L0.72998 9.29047C1.11998 9.68047 1.74998 9.68047 2.13998 9.29047L4.99998 6.43047L13.57 15.0005L10.71 17.8605C10.32 18.2505 10.32 18.8805 10.71 19.2705L10.73 19.2905C11.12 19.6805 11.75 19.6805 12.14 19.2905L12.86 18.5705L13.58 19.2905C13.97 19.6805 14.6 19.6805 14.99 19.2905L16.42 17.8605L17.14 18.5805C17.53 18.9705 18.18 18.9705 18.57 18.5805C18.96 18.1905 18.96 17.5405 18.57 17.1505L17.85 16.4305L19.29 15.0005C19.68 14.6105 19.68 13.9805 19.29 13.5905L18.57 12.8605Z" fill="#498AEE"/>
</svg>
