<svg width="24" height="24" viewBox="0 0 24 24" fill="none" xmlns="http://www.w3.org/2000/svg">
<path d="M12 20L11.14 19.14C9.96 17.96 9.97 16.04 11.16 14.88L12 14.06C11.61 14.02 11.32 14 11 14C8.33 14 3 15.34 3 18V20H12ZM11 12C13.21 12 15 10.21 15 8C15 5.79 13.21 4 11 4C8.79 4 7 5.79 7 8C7 10.21 8.79 12 11 12Z" fill="#498AEE"/>
<path d="M16.18 19.7807C15.79 20.1707 15.15 20.1707 14.76 19.7807L12.69 17.6907C12.31 17.3007 12.31 16.6807 12.69 16.3007L12.7 16.2907C13.09 15.9007 13.72 15.9007 14.1 16.2907L15.47 17.6607L19.9 13.2007C20.29 12.8107 20.92 12.8107 21.31 13.2007L21.32 13.2107C21.7 13.6007 21.7 14.2207 21.32 14.6007L16.18 19.7807Z" fill="#498AEE"/>
</svg>
