<svg width="19" height="20" viewBox="0 0 19 20" fill="none" xmlns="http://www.w3.org/2000/svg">
<g clip-path="url(#clip0_1527_16570)">
<path d="M4.99967 11.5115C5.00462 11.7728 4.99967 12.0391 4.99967 12.3004V13.0892H4.99472C4.99472 13.6168 4.99967 14.1394 4.99472 14.667C4.98977 15.0187 4.83631 15.2851 4.50961 15.4157C4.2126 15.5313 3.94035 15.471 3.70769 15.2499C3.57899 15.1243 3.49979 14.9735 3.48494 14.7876C3.42554 14.0791 3.36614 13.3656 3.31169 12.6571C3.28199 12.2953 3.25229 11.9336 3.22754 11.5718C3.19783 11.0291 3.55919 10.612 4.074 10.5919C4.57891 10.5668 4.98482 10.9638 4.99967 11.5115Z" fill="#498AEE"/>
<path d="M14.286 4.5721C13.7711 4.4917 13.2514 4.54698 12.7316 4.54195C12.6128 4.54195 12.5485 4.60727 12.5485 4.72787C12.5485 4.88363 12.5287 5.0394 12.5039 5.19517C12.296 6.58702 11.5981 7.65728 10.4249 8.39592C9.57347 8.92854 8.6379 9.13456 7.64293 9.00894C6.58856 8.87829 5.6827 8.41602 4.95503 7.63216C4.20757 6.8282 3.82641 5.85341 3.76206 4.74797C3.75216 4.54195 3.71751 4.50678 3.51951 4.50678C3.16805 4.50175 2.81659 4.49673 2.46514 4.50678C2.00478 4.52185 1.55927 4.62235 1.16327 4.87861C0.836559 5.08965 0.544504 5.36098 0.34155 5.69764C-0.113858 6.41115 -5.91861e-06 7.33068 0.049495 8.13966C0.0742454 8.56174 0.0890957 8.98381 0.133646 9.40589C0.183147 9.94856 0.222748 10.4912 0.262349 11.0339C0.30195 11.5766 0.35145 12.1192 0.391051 12.6619C0.445502 13.3403 0.499953 14.0236 0.554404 14.702C0.613805 15.4205 0.668256 16.134 0.727657 16.8525C0.792008 17.6917 1.12861 18.375 1.82658 18.8624C2.17308 19.1036 2.55424 19.2192 2.9651 19.2544H3.1136C3.39576 19.2544 3.68286 19.2544 3.96502 19.2544C4.37092 19.2544 4.78178 19.2544 5.18769 19.2544C5.5936 19.2544 6.00445 19.2544 6.41036 19.2544C6.80637 19.2544 7.20237 19.2544 7.59343 19.2544C7.99934 19.2544 8.4102 19.2544 8.8161 19.2544C9.22201 19.2544 9.63287 19.2544 10.0388 19.2544C10.6328 19.2544 11.2317 19.2544 11.8258 19.2594C12.4099 19.2594 13.0237 19.3197 13.5979 19.2242C13.7464 19.1991 13.8899 19.1589 14.0285 19.1036C14.2761 19.0031 14.5087 18.8524 14.7117 18.6715C15.0978 18.3248 15.3502 17.8625 15.4641 17.355C15.474 17.3148 15.4789 17.2796 15.4888 17.2394C15.5928 16.6666 15.5977 16.0838 15.6472 15.5009C15.6918 14.9884 15.7363 14.4809 15.7759 13.9683C15.8155 13.4558 15.865 12.9483 15.9046 12.4358C15.9442 11.9333 15.9888 11.4258 16.0284 10.9234C16.0878 10.25 16.1373 9.57673 16.2016 8.90342C16.2462 8.40597 16.266 7.9035 16.3303 7.40605C16.5135 6.04937 15.6076 4.78314 14.286 4.5721ZM6.1084 13.1242H6.0886C6.0886 13.702 6.1183 14.2799 6.08365 14.8527C6.02425 15.8476 5.20254 16.6013 4.22737 16.6013C3.26705 16.6013 2.46019 15.8627 2.37604 14.8879C2.28199 13.8025 2.18793 12.7172 2.11863 11.6318C2.04933 10.5616 2.79184 9.62698 3.80166 9.48126C4.85603 9.32549 5.8114 9.98876 6.06385 11.049C6.10345 11.2248 6.1183 11.4057 6.1183 11.5916C6.1084 12.0991 6.1084 12.6117 6.1084 13.1242ZM8.6874 16.3551C8.6874 16.6164 8.5983 16.8174 8.35574 16.9329C8.14289 17.0334 7.94489 16.9932 7.77163 16.8475C7.60828 16.7118 7.57363 16.5259 7.57363 16.3249C7.57363 15.4104 7.57363 14.4959 7.57363 13.5814H7.58848C7.58848 12.672 7.58848 11.7675 7.58848 10.858C7.58848 10.4711 7.80628 10.2249 8.13794 10.2249C8.4696 10.2249 8.6973 10.4762 8.6973 10.858C8.6973 12.687 8.69235 14.5211 8.6874 16.3551ZM14.1127 12.4157C14.0483 13.2699 13.979 14.1241 13.8899 14.9783C13.7909 15.9179 12.9346 16.6415 11.9842 16.6114C11.0337 16.5812 10.2219 15.8074 10.1873 14.8577C10.1625 14.2749 10.1823 13.692 10.1823 13.1091H10.1873C10.1873 12.5413 10.1774 11.9685 10.1873 11.4007C10.212 10.3907 11.0436 9.52648 12.0337 9.47121C13.0831 9.41092 13.9889 10.1345 14.1573 11.1595C14.2266 11.5866 14.1474 11.9987 14.1127 12.4157Z" fill="#498AEE"/>
<path d="M12.2019 10.6018C11.7019 10.5917 11.3059 10.9786 11.296 11.4911C11.2911 11.7725 11.2911 12.0539 11.2911 12.3353C11.2911 13.1141 11.2861 13.8879 11.2861 14.6668C11.2861 15.0637 11.4891 15.3501 11.8207 15.4556C12.3059 15.6014 12.7514 15.2798 12.8058 14.7321C12.8355 14.4658 12.8504 14.1944 12.8702 13.9281C12.9395 13.1292 13.0038 12.3303 13.0682 11.5464C13.083 11.0238 12.692 10.6068 12.2019 10.6018Z" fill="#498AEE"/>
<path d="M4.99454 12.3003V13.0892H4.98959C4.98959 13.6168 4.99454 14.1394 4.98959 14.667C4.98464 15.0187 4.83119 15.285 4.50448 15.4157C4.20748 15.5312 3.93522 15.471 3.70257 15.2499C3.57386 15.1242 3.49466 14.9735 3.47981 14.7876C3.42041 14.0791 3.36101 13.3656 3.30656 12.6571C3.27686 12.2953 3.24716 11.9335 3.22241 11.5718C3.19271 11.0291 3.55406 10.612 4.06887 10.5919C4.58368 10.5668 4.98959 10.9688 4.99949 11.5165C4.99949 11.7727 4.99454 12.0391 4.99454 12.3003Z" fill="#FEFEFE"/>
<path d="M13.0782 11.5414C13.0138 12.3303 12.9445 13.1292 12.8802 13.9231C12.8554 14.1894 12.8406 14.4608 12.8158 14.7271C12.7564 15.2748 12.3109 15.5963 11.8308 15.4506C11.4991 15.3501 11.2961 15.0587 11.2961 14.6617C11.2961 13.8829 11.3011 13.1091 11.3011 12.3303C11.3011 12.0489 11.2961 11.7675 11.306 11.4861C11.3159 10.9736 11.712 10.5917 12.2119 10.5967C12.6921 10.6068 13.0831 11.0238 13.0782 11.5414Z" fill="#FEFEFE"/>
<path d="M8.15271 1.19629C6.31128 1.19629 4.8213 2.70873 4.8213 4.56788C4.81635 6.43708 6.32118 7.9646 8.15766 7.95958C9.9991 7.95455 11.4891 6.43206 11.4841 4.56286C11.4841 2.69868 9.99414 1.19629 8.15271 1.19629ZM8.38537 5.08543C8.17251 5.1809 7.96956 5.15578 7.80126 5.00001C7.5092 4.72365 7.22704 4.43724 6.95479 4.13576C6.75679 3.91969 6.78154 3.58304 6.98944 3.372C7.19239 3.17101 7.529 3.15091 7.74185 3.35692C8.02896 3.63328 8.30121 3.91969 8.57842 4.2061C8.67742 4.3066 8.71702 4.44226 8.71207 4.6332C8.69722 4.81409 8.59822 4.98996 8.38537 5.08543Z" fill="#498AEE"/>
<path d="M17.4887 2.60281C17.6867 2.3968 17.8352 2.23098 17.9936 2.07521C18.2411 1.829 18.5728 1.81895 18.8005 2.04507C19.0282 2.27118 19.0232 2.61788 18.7807 2.86912C18.3055 3.35652 17.8203 3.84392 17.3352 4.32629C17.0729 4.58255 16.761 4.57753 16.4987 4.31624C16.0284 3.83889 15.5582 3.36154 15.0879 2.87917C14.8354 2.61788 14.8206 2.2762 15.0532 2.04507C15.281 1.81393 15.6225 1.829 15.875 2.08526C16.0334 2.24103 16.1868 2.40182 16.37 2.59276C16.37 2.35157 16.37 2.15561 16.37 1.95964C16.37 1.50742 16.37 1.05519 16.37 0.607992C16.3799 0.256261 16.6175 0 16.9293 0C17.2461 0 17.4837 0.246212 17.4837 0.597943C17.4837 1.18584 17.4837 1.77373 17.4837 2.36665C17.4887 2.42192 17.4887 2.48222 17.4887 2.60281Z" fill="#498AEE"/>
<path d="M4.99454 12.3003V13.0892H4.98959C4.98959 13.6168 4.99454 14.1394 4.98959 14.667C4.98464 15.0187 4.83119 15.285 4.50448 15.4157C4.20748 15.5312 3.93522 15.471 3.70257 15.2499C3.57386 15.1242 3.49466 14.9735 3.47981 14.7876C3.42041 14.0791 3.36101 13.3656 3.30656 12.6571C3.27686 12.2953 3.24716 11.9335 3.22241 11.5718C3.19271 11.0291 3.55406 10.612 4.06887 10.5919C4.58368 10.5668 4.98959 10.9688 4.99949 11.5165C4.99949 11.7727 4.99454 12.0391 4.99454 12.3003Z" fill="#498AEE"/>
<path d="M13.0782 11.5414C13.0138 12.3303 12.9445 13.1292 12.8802 13.9231C12.8554 14.1894 12.8406 14.4608 12.8158 14.7271C12.7564 15.2748 12.3109 15.5963 11.8308 15.4506C11.4991 15.3501 11.2961 15.0587 11.2961 14.6617C11.2961 13.8829 11.3011 13.1091 11.3011 12.3303C11.3011 12.0489 11.2961 11.7675 11.306 11.4861C11.3159 10.9736 11.712 10.5917 12.2119 10.5967C12.6921 10.6068 13.0831 11.0238 13.0782 11.5414Z" fill="#498AEE"/>
</g>
<defs>
<clipPath id="clip0_1527_16570">
<rect width="18.9688" height="19.2698" fill="white"/>
</clipPath>
</defs>
</svg>
