<svg width="22" height="19" viewBox="0 0 22 19" fill="none" xmlns="http://www.w3.org/2000/svg">
<path d="M8 13.0006C5.33 13.0006 0 14.3406 0 17.0006V18.0006C0 18.5506 0.45 19.0006 1 19.0006H15C15.55 19.0006 16 18.5506 16 18.0006V17.0006C16 14.3406 10.67 13.0006 8 13.0006ZM14.47 5.77059C14.79 6.56059 14.79 7.44059 14.47 8.23059C14.28 8.70059 14.36 9.23059 14.72 9.59059L14.75 9.62059C15.33 10.2006 16.32 10.0806 16.7 9.35059C17.46 7.90059 17.46 6.20059 16.68 4.69059C16.3 3.95059 15.3 3.81059 14.71 4.40059L14.7 4.41059C14.36 4.76059 14.28 5.30059 14.47 5.77059ZM18.18 0.890594C17.78 1.29059 17.72 1.91059 18.05 2.37059C20.02 5.11059 20.01 8.78059 18.02 11.6206C17.7 12.0706 17.77 12.6906 18.16 13.0806L18.19 13.1106C18.68 13.6006 19.51 13.5606 19.93 13.0106C22.68 9.47059 22.69 4.64059 19.93 0.990594C19.51 0.440594 18.67 0.400594 18.18 0.890594Z" fill="#498AEE"/>
</svg>
