<svg width="10" height="20" viewBox="0 0 10 20" fill="none" xmlns="http://www.w3.org/2000/svg">
<path d="M10 8.43V1C10 0.45 9.55 0 9 0H1C0.45 0 0 0.45 0 1V8.43C0 8.78 0.18 9.11 0.49 9.29L4.67 11.8L3.68 14.14L1.46 14.33C1 14.37 0.82 14.92 1.16 15.21L2.85 16.67L2.34 18.85C2.24 19.28 2.71 19.62 3.09 19.39L5 18.23L6.91 19.38C7.29 19.61 7.76 19.27 7.66 18.84L7.15 16.66L8.84 15.2C9.17 14.91 9 14.36 8.55 14.32L6.33 14.13L5.34 11.79L9.52 9.28C9.82 9.11 10 8.79 10 8.43ZM6 10.23L5 10.83L4 10.23V1H6V10.23Z" fill="#498AEE"/>
</svg>
