<svg width="24" height="32" viewBox="0 0 24 32" fill="none" xmlns="http://www.w3.org/2000/svg">
<path d="M9.71387 18.8435L12.919 20.6986L6.41041 31.9999L4.54231 27.8233L9.71387 18.8435Z" fill="#2C6BCC"/>
<path d="M9.71387 18.8435L6.50875 16.9884L0.000166555 28.2897L4.54231 27.8233L9.71387 18.8435Z" fill="#498AEE"/>
<path d="M14.2861 18.8435L11.081 20.6986L17.5896 31.9999L19.4577 27.8233L14.2861 18.8435Z" fill="#2C6BCC"/>
<path d="M14.2861 18.8435L17.4913 16.9884L23.9998 28.2897L19.4577 27.8233L14.2861 18.8435Z" fill="#498AEE"/>
<ellipse cx="11.9018" cy="11.0622" rx="11.0346" ry="11.0622" fill="url(#paint0_linear_1524_16216)"/>
<ellipse cx="11.9016" cy="11.0621" rx="8.61351" ry="8.63501" fill="#A88300"/>
<mask id="mask0_1524_16216" style="mask-type:alpha" maskUnits="userSpaceOnUse" x="3" y="3" width="18" height="18">
<ellipse cx="12.3616" cy="11.984" rx="8.63356" ry="8.65511" fill="#C28B37"/>
</mask>
<g mask="url(#mask0_1524_16216)">
<ellipse cx="11.9016" cy="11.0621" rx="8.63356" ry="8.65511" fill="#C09525"/>
</g>
<path d="M11.7744 5.38961C11.846 5.24595 12.0505 5.24594 12.1222 5.38961L13.7641 8.68169C13.7932 8.73998 13.8494 8.77985 13.9139 8.78793L17.1679 9.1957C17.3234 9.21518 17.3932 9.4016 17.2889 9.51884L15.0399 12.0471C15.0006 12.0913 14.9835 12.1509 14.9933 12.2093L15.6093 15.8647C15.6358 16.0219 15.4729 16.1428 15.3306 16.0715L12.0352 14.4197C11.9805 14.3922 11.9161 14.3922 11.8613 14.4197L8.56656 16.0712C8.42414 16.1425 8.26119 16.0214 8.28795 15.8641L8.90926 12.2096C8.91921 12.1511 8.90201 12.0912 8.86255 12.0469L6.6083 9.51895C6.5038 9.40175 6.57355 9.21513 6.72914 9.19563L9.98263 8.78793C10.0471 8.77985 10.1033 8.73998 10.1324 8.68169L11.7744 5.38961Z" fill="url(#paint1_linear_1524_16216)"/>
<defs>
<linearGradient id="paint0_linear_1524_16216" x1="11.9018" y1="0" x2="11.9018" y2="22.1243" gradientUnits="userSpaceOnUse">
<stop stop-color="#FFC600"/>
<stop offset="1" stop-color="#FFDE69"/>
</linearGradient>
<linearGradient id="paint1_linear_1524_16216" x1="11.9485" y1="5.28186" x2="11.9485" y2="16.0925" gradientUnits="userSpaceOnUse">
<stop stop-color="#FFD954"/>
<stop offset="0.59375" stop-color="#FFCE22"/>
<stop offset="1" stop-color="#FFD028"/>
</linearGradient>
</defs>
</svg>
