<svg width="26" height="14" viewBox="0 0 26 14" fill="none" xmlns="http://www.w3.org/2000/svg">
<path d="M13 7.8125C14.7658 7.8125 16.3258 8.235 17.5933 8.7875C18.7633 9.3075 19.5 10.4775 19.5 11.745V12.4167C19.5 13.0125 19.0125 13.5 18.4167 13.5H7.58333C6.9875 13.5 6.5 13.0125 6.5 12.4167V11.7558C6.5 10.4775 7.23667 9.3075 8.40667 8.79833C9.67417 8.235 11.2342 7.8125 13 7.8125ZM4.33333 8.08333C5.525 8.08333 6.5 7.10833 6.5 5.91667C6.5 4.725 5.525 3.75 4.33333 3.75C3.14167 3.75 2.16667 4.725 2.16667 5.91667C2.16667 7.10833 3.14167 8.08333 4.33333 8.08333ZM5.5575 9.275C5.15667 9.21 4.75583 9.16667 4.33333 9.16667C3.26083 9.16667 2.2425 9.39417 1.32167 9.795C0.52 10.1417 0 10.9217 0 11.7992V12.4167C0 13.0125 0.4875 13.5 1.08333 13.5H4.875V11.7558C4.875 10.8567 5.12417 10.0117 5.5575 9.275ZM21.6667 8.08333C22.8583 8.08333 23.8333 7.10833 23.8333 5.91667C23.8333 4.725 22.8583 3.75 21.6667 3.75C20.475 3.75 19.5 4.725 19.5 5.91667C19.5 7.10833 20.475 8.08333 21.6667 8.08333ZM26 11.7992C26 10.9217 25.48 10.1417 24.6783 9.795C23.7575 9.39417 22.7392 9.16667 21.6667 9.16667C21.2442 9.16667 20.8433 9.21 20.4425 9.275C20.8758 10.0117 21.125 10.8567 21.125 11.7558V13.5H24.9167C25.5125 13.5 26 13.0125 26 12.4167V11.7992ZM13 0.5C14.7983 0.5 16.25 1.95167 16.25 3.75C16.25 5.54833 14.7983 7 13 7C11.2017 7 9.75 5.54833 9.75 3.75C9.75 1.95167 11.2017 0.5 13 0.5Z" fill="black"/>
</svg>
