<svg width="36" height="36" viewBox="0 0 36 36" fill="none" xmlns="http://www.w3.org/2000/svg">
<circle cx="18" cy="18" r="18" fill="url(#paint0_linear_3_15372)"/>
<path d="M17.9996 9.14515C20.8833 9.14515 21.2249 9.15617 22.3637 9.20813C23.4167 9.25615 23.9886 9.43209 24.3691 9.57999C24.8732 9.77591 25.233 10.0099 25.6109 10.3878C25.9889 10.7658 26.2229 11.1256 26.4188 11.6297C26.5667 12.0102 26.7426 12.5821 26.7907 13.6351C26.8426 14.7739 26.8536 15.1155 26.8536 17.9992C26.8536 20.8829 26.8426 21.2245 26.7907 22.3633C26.7426 23.4163 26.5667 23.9881 26.4188 24.3687C26.2229 24.8728 25.9889 25.2326 25.6109 25.6105C25.233 25.9884 24.8732 26.2225 24.3691 26.4184C23.9886 26.5663 23.4167 26.7422 22.3637 26.7902C21.2251 26.8422 20.8835 26.8532 17.9996 26.8532C15.1157 26.8532 14.7741 26.8422 13.6355 26.7902C12.5825 26.7422 12.0106 26.5663 11.6301 26.4184C11.1259 26.2225 10.7662 25.9884 10.3883 25.6105C10.0104 25.2326 9.77628 24.8728 9.58036 24.3687C9.43246 23.9881 9.25652 23.4163 9.2085 22.3633C9.15655 21.2245 9.14553 20.8829 9.14553 17.9992C9.14553 15.1155 9.15655 14.7739 9.2085 13.6351C9.25652 12.5821 9.43246 12.0102 9.58036 11.6297C9.77628 11.1256 10.0103 10.7658 10.3883 10.3879C10.7662 10.0099 11.1259 9.77591 11.6301 9.57999C12.0106 9.43209 12.5825 9.25615 13.6355 9.20813C14.7743 9.15617 15.1159 9.14515 17.9996 9.14515ZM17.9996 7.19922C15.0665 7.19922 14.6987 7.21165 13.5468 7.26421C12.3972 7.31664 11.6121 7.49923 10.9252 7.76618C10.215 8.04218 9.61269 8.41147 9.01224 9.01187C8.41184 9.61231 8.04255 10.2146 7.76659 10.9248C7.49959 11.6118 7.31701 12.3968 7.26458 13.5464C7.21202 14.6983 7.19958 15.0661 7.19958 17.9992C7.19958 20.9323 7.21202 21.3001 7.26458 22.452C7.31701 23.6015 7.49959 24.3866 7.76659 25.0736C8.04255 25.7838 8.41184 26.386 9.01224 26.9865C9.61269 27.5869 10.215 27.9562 10.9252 28.2321C11.6121 28.4991 12.3972 28.6817 13.5468 28.7342C14.6987 28.7867 15.0665 28.7991 17.9996 28.7991C20.9327 28.7991 21.3005 28.7867 22.4524 28.7342C23.6019 28.6817 24.387 28.4991 25.074 28.2321C25.7842 27.9562 26.3865 27.5869 26.9869 26.9865C27.5873 26.386 27.9566 25.7838 28.2326 25.0736C28.4996 24.3866 28.6822 23.6015 28.7346 22.452C28.7871 21.3001 28.7996 20.9323 28.7996 17.9992C28.7996 15.0661 28.7871 14.6983 28.7346 13.5464C28.6822 12.3968 28.4996 11.6118 28.2326 10.9248C27.9566 10.2146 27.5873 9.61231 26.9869 9.01187C26.3865 8.41147 25.7842 8.04218 25.074 7.76618C24.387 7.49923 23.6019 7.31664 22.4524 7.26421C21.3005 7.21165 20.9327 7.19922 17.9996 7.19922Z" fill="white"/>
<path d="M18.0047 12.458C14.9417 12.458 12.4587 14.941 12.4587 18.0039C12.4587 21.0669 14.9417 23.5499 18.0047 23.5499C21.0676 23.5499 23.5506 21.0669 23.5506 18.0039C23.5506 14.941 21.0676 12.458 18.0047 12.458ZM18.0047 21.6039C16.0164 21.6039 14.4047 19.9922 14.4047 18.0039C14.4047 16.0157 16.0164 14.4039 18.0047 14.4039C19.9929 14.4039 21.6047 16.0157 21.6047 18.0039C21.6047 19.9922 19.9929 21.6039 18.0047 21.6039Z" fill="white"/>
<path d="M25.0654 12.2365C25.0654 12.9522 24.4851 13.5324 23.7694 13.5324C23.0536 13.5324 22.4734 12.9522 22.4734 12.2365C22.4734 11.5207 23.0536 10.9404 23.7694 10.9404C24.4851 10.9404 25.0654 11.5207 25.0654 12.2365Z" fill="white"/>
<defs>
<linearGradient id="paint0_linear_3_15372" x1="27.5" y1="8.03007e-07" x2="-7.5" y2="36" gradientUnits="userSpaceOnUse">
<stop stop-color="#2D42DB"/>
<stop offset="0.213542" stop-color="#A430B5"/>
<stop offset="0.682292" stop-color="#F4474B"/>
<stop offset="1" stop-color="#FFBC47"/>
</linearGradient>
</defs>
</svg>
