<svg width="21" height="21" viewBox="0 0 21 21" fill="none" xmlns="http://www.w3.org/2000/svg">
    <g clip-path="url(#30lchczjia)">
        <path d="M20.99 12.134c0-1.012-.606-1.595-1.607-1.606a808.379 808.379 0 0 0-7.304 0c-1.001 0-1.551.572-1.562 1.573-.011 1.21 0 2.42 0 3.63v3.674c.01 1.001.605 1.595 1.606 1.595 2.42.011 4.829.011 7.249 0 .968 0 1.606-.638 1.606-1.617.022-2.42.022-4.84.011-7.25zm-6.535 6.16c-.957-.682-.935-1.87.099-3.08-.561-.407-.902-.891-.605-1.617.198-.473.495-.825 1.045-.836.495-.011.836.253 1.133.748-.572-.132-1.056-.231-1.53-.022-.406.187-.461.429-.175.77.374.44.748.517 1.287.275.352-.154.704-.297 1.089-.473.01.407-.055.693-.484.847a6.11 6.11 0 0 0-1.562.781c-.902.66-.803 1.617.209 2.101.605.286 1.54.341 2.695.154-.55.891-2.19 1.078-3.201.352zM5.225 4.049c.242.396.396.77.506 1.199h-.99c.165-.396.32-.781.484-1.2z" fill="#498AEE"/>
        <path d="M10.473 1.606C10.473.605 9.877.011 8.866 0c-2.42 0-4.829 0-7.249.011C.65.011.011.638.011 1.617 0 4.037 0 6.447 0 8.867c0 1 .605 1.605 1.595 1.605 1.21.011 2.42 0 3.62 0 1.22 0 2.452.011 3.673 0 1.012 0 1.585-.56 1.585-1.562.01-2.43.01-4.873 0-7.304zm-3.246 6.26c-.209.065-.363-.045-.44-.22-.187-.419-.374-.826-.528-1.255-.099-.286-.253-.374-.55-.374-1.276 0-1.276-.01-1.77 1.166-.056.132-.122.264-.177.396-.099.22-.242.385-.506.275-.264-.11-.308-.308-.187-.583.506-1.188.99-2.376 1.485-3.575.11-.264.21-.539.341-.803.187-.352.55-.385.704-.033.638 1.485 1.254 2.981 1.87 4.466.022.044.022.11.022.132.011.231-.099.352-.264.407zM13.18 6.028c.208.176.373.308.527.44.165.132.21.308.077.484-.143.187-.33.231-.528.088a44.85 44.85 0 0 1-1.441-1.089c-.286-.23-.242-.462.033-.67.44-.33.869-.66 1.31-.99.208-.155.44-.243.615.021.176.253.011.44-.198.594-.12.088-.286.154-.363.352.583.077 1.166-.022 1.738.121 1.672.407 2.728 1.815 2.64 3.542-.01.254-.066.44-.352.44-.308 0-.34-.209-.363-.44-.022-.286-.044-.583-.11-.869-.264-1.133-1.067-1.859-2.244-2.002-.418-.066-.847-.022-1.342-.022zM7.876 15.742c-.847-.022-1.562.033-2.244-.22-1.44-.528-2.365-1.936-2.233-3.465.022-.231.077-.396.341-.407.264-.011.352.143.374.374.033.308.044.627.11.924.253 1.133 1.067 1.86 2.233 2.024.43.055.858.044 1.441.077-.275-.23-.44-.363-.594-.495-.165-.132-.23-.297-.099-.484.132-.187.32-.253.517-.11.495.363 1.001.737 1.486 1.122.242.187.22.43-.011.605-.474.374-.958.726-1.453 1.078-.176.121-.385.154-.528-.055-.154-.22-.066-.407.143-.56.132-.1.275-.22.517-.408z" fill="#498AEE"/>
        <path d="M5.731 5.248h-.99c.165-.396.32-.77.484-1.2.242.397.396.77.506 1.2z" fill="#FDFDFD"/>
        <path d="M5.731 5.248h-.99c.165-.396.32-.77.484-1.2.242.397.396.77.506 1.2z" fill="#498AEE"/>
    </g>
    <defs>
        <clipPath id="30lchczjia">
            <path fill="#fff" d="M0 0h21v21H0z"/>
        </clipPath>
    </defs>
</svg>
