<svg width="26" height="25" viewBox="0 0 26 25" fill="none" xmlns="http://www.w3.org/2000/svg">
    <path d="M19.5 8.334h-1.083V6.25c0-2.875-2.427-5.208-5.417-5.208-2.99 0-5.417 2.333-5.417 5.208v2.084H6.5c-1.191 0-2.167.937-2.167 2.083v10.417c0 1.146.976 2.083 2.167 2.083h13c1.192 0 2.167-.938 2.167-2.083V10.417c0-1.146-.975-2.083-2.167-2.083zM9.75 6.25c0-1.729 1.452-3.125 3.25-3.125 1.799 0 3.25 1.396 3.25 3.125v2.084h-6.5V6.25zm8.667 14.584H7.583c-.595 0-1.083-.47-1.083-1.042v-8.333c0-.573.488-1.042 1.083-1.042h10.834c.596 0 1.083.469 1.083 1.042v8.333c0 .573-.487 1.042-1.083 1.042zM13 17.709c1.192 0 2.167-.938 2.167-2.084 0-1.146-.975-2.083-2.167-2.083-1.191 0-2.166.938-2.166 2.083 0 1.146.975 2.084 2.166 2.084z" fill="#1A1818"/>
</svg>
