<svg width="32" height="40" viewBox="0 0 32 40" fill="none" xmlns="http://www.w3.org/2000/svg">
    <path d="M11.17 37.85c0 .053-.017.093-.05.12A.229.229 0 0 1 11 38H9.99a.151.151 0 0 1-.12-.06.247.247 0 0 1-.04-.14v-4.65c0-.067-.01-.1-.03-.1-.007 0-.023.02-.05.06l-.96 1.91a.377.377 0 0 1-.14.13.396.396 0 0 1-.18.04H7.46a.462.462 0 0 1-.19-.04.404.404 0 0 1-.13-.13l-.97-1.91c-.027-.04-.043-.06-.05-.06-.02 0-.03.033-.03.1v4.65c0 .053-.017.1-.05.14a.125.125 0 0 1-.11.06H4.92a.229.229 0 0 1-.12-.03c-.033-.027-.05-.067-.05-.12v-6.88a.395.395 0 0 1 .4-.4h.82c.08 0 .153.023.22.07.067.04.117.097.15.17l1.51 3.06c.027.047.047.083.06.11.013.02.03.03.05.03.02 0 .037-.01.05-.03.013-.027.033-.063.06-.11l1.51-3.06a.373.373 0 0 1 .15-.17.375.375 0 0 1 .22-.07h.82c.113 0 .207.04.28.12.08.073.12.167.12.28v6.88zm6.11-2.26c0 .36-.053.693-.16 1-.1.3-.25.56-.45.78-.2.22-.45.393-.75.52a2.58 2.58 0 0 1-1.03.19c-.393 0-.74-.063-1.04-.19-.293-.127-.54-.3-.74-.52a2.28 2.28 0 0 1-.46-.78c-.1-.307-.15-.64-.15-1v-.81c0-.36.05-.69.15-.99.107-.307.26-.57.46-.79.2-.22.447-.393.74-.52.3-.127.647-.19 1.04-.19s.737.063 1.03.19c.3.127.55.3.75.52.2.22.35.483.45.79.107.3.16.63.16.99v.81zm-1.32-.81c0-.413-.09-.74-.27-.98-.18-.247-.447-.37-.8-.37-.353 0-.62.123-.8.37-.18.24-.27.567-.27.98v.81c0 .413.09.743.27.99.18.24.447.36.8.36.353 0 .62-.12.8-.36.18-.247.27-.577.27-.99v-.81zm5.452-1.57c0 .053-.02.1-.06.14a.192.192 0 0 1-.14.06c-.273 0-.52.033-.74.1-.213.06-.427.147-.64.26v4.02c0 .053-.02.103-.06.15a.192.192 0 0 1-.14.06h-.92c-.053 0-.1-.02-.14-.06a.227.227 0 0 1-.06-.15v-5.23c0-.053.02-.1.06-.14.04-.04.087-.06.14-.06h.87c.053 0 .1.02.14.06.04.04.06.087.06.14v.21c.247-.193.497-.32.75-.38.253-.067.48-.1.68-.1.053 0 .1.02.14.06.04.04.06.087.06.14v.72zm5.375 2.18c0 .167-.067.25-.2.25h-3.26v.03c0 .147.016.297.05.45.033.147.093.283.18.41.093.12.216.22.37.3.16.073.36.11.6.11.366 0 .71-.01 1.03-.03.326-.027.596-.05.81-.07h.03c.053 0 .096.013.13.04.033.02.05.057.05.11v.66c0 .08-.014.14-.04.18-.02.04-.077.067-.17.08a7.25 7.25 0 0 1-.88.13c-.14.013-.297.023-.47.03-.167.007-.364.01-.59.01-.254 0-.524-.037-.81-.11-.28-.08-.54-.213-.78-.4-.24-.193-.44-.45-.6-.77-.154-.327-.23-.737-.23-1.23v-.74c0-.387.053-.737.16-1.05.106-.313.26-.58.46-.8.206-.22.46-.39.76-.51s.64-.18 1.02-.18c.386 0 .726.063 1.02.19.3.12.55.293.75.52.2.227.35.497.45.81.106.307.16.647.16 1.02v.56zm-1.33-.73c0-.393-.097-.697-.29-.91a.977.977 0 0 0-.76-.32c-.314 0-.57.107-.77.32-.2.207-.3.51-.3.91v.04h2.12v-.04zM20 12c0 1.1.9 2 2 2s2-.9 2-2-.9-2-2-2-2 .9-2 2zm-2 0c0-1.1-.9-2-2-2s-2 .9-2 2 .9 2 2 2 2-.9 2-2zm-6 0c0-1.1-.9-2-2-2s-2 .9-2 2 .9 2 2 2 2-.9 2-2z" fill="#1A1818"/>
</svg>
