<svg width="36" height="36" viewBox="0 0 36 36" fill="none" xmlns="http://www.w3.org/2000/svg">
    <path fill-rule="evenodd" clip-rule="evenodd" d="M28.06 13.194c0 1.884.498 2.995 1.594 4.274.83.943 1.096 2.153 1.096 3.466 0 1.311-.43 2.556-1.294 3.567a6.805 6.805 0 0 1-4.35 2.12c-2.357.2-4.716.37-7.105.37-2.392 0-4.748-.102-7.105-.37a6.798 6.798 0 0 1-4.35-2.12c-.864-1.01-1.296-2.256-1.296-3.567 0-1.313.267-2.523 1.096-3.466 1.13-1.28 1.595-2.39 1.595-4.274v-.639c0-2.522.629-4.172 1.924-5.787C11.792 4.413 14.88 3 17.934 3h.134c3.12 0 6.307 1.48 8.2 3.937 1.23 1.582 1.793 3.162 1.793 5.618v.64zM13.61 30.091c0-.755.694-1.101 1.335-1.25.75-.158 5.319-.158 6.069 0 .64.149 1.334.495 1.334 1.25-.037.72-.46 1.357-1.042 1.762a5.453 5.453 0 0 1-2.57 1.097 5.688 5.688 0 0 1-1.512 0 5.426 5.426 0 0 1-2.57-1.099c-.584-.403-1.006-1.04-1.043-1.76z" fill="#000"/>
</svg>
