<svg width="336" height="299" viewBox="0 0 336 299" fill="none" xmlns="http://www.w3.org/2000/svg">
    <g clip-path="url(#12gmljeaja)">
        <path d="M268.701 296.757c8.991-4.814 13.872-10.771 17.069-20.484.757-2.308 1.167-5.191-.601-6.845-1.889-1.775-4.952-.916-7.251.312a32.805 32.805 0 0 0-10.716 9.273c-3.657 4.921-6.72 11.446-12.733 12.525a2.538 2.538 0 0 1-1.662-.106c-1.471-.824-.516-3.053.417-4.459a20.53 20.53 0 0 0 3.226-8.634 3.116 3.116 0 0 0-.106-1.655 2.613 2.613 0 0 0-.804-.897 2.576 2.576 0 0 0-1.12-.437c-2.886-.625-5.695 1.185-7.986 3.046-5.843 4.735-13.964 12.603-17.989 18.971M234.558 237.927a29.118 29.118 0 0 0 14.503-10.072c1.737-2.271 3.167-4.883 3.343-7.749.102-1.601-.518-3.559-2.089-3.852-1.137-.215-2.201.571-3.069 1.338a45.09 45.09 0 0 0-13.141 20.438M258.21 254.673c4.245-.881 8.588-1.79 12.464-3.771 3.876-1.981 7.321-5.218 8.602-9.393.509-1.655.629-3.55-.368-4.97-1.259-1.783-3.777-2.131-5.928-1.797a18.384 18.384 0 0 0-11.551 6.958 27.235 27.235 0 0 0-5.263 12.639M251.518 257.257a27.676 27.676 0 0 0 2.575-7.498c.708-3.55.991-7.483-1.11-10.387a3.046 3.046 0 0 0-3.256-1.638 3.034 3.034 0 0 0-1.194.495 8.163 8.163 0 0 0-2.831 2.689 8.207 8.207 0 0 0-1.264 3.701c-.205 2.414.707 4.792 1.895 6.894 1.189 2.102 2.724 3.998 3.948 6.085M245.117 263.775a38.69 38.69 0 0 1 8.234-1.299 12.87 12.87 0 0 1 7.887 2.279c.441.27.767.695.912 1.193a1.866 1.866 0 0 1-.453 1.42 5.84 5.84 0 0 1-4.562 2.13 13.271 13.271 0 0 1-5.044-1.115c-2.185-.845-4.406-2.009-5.595-4.04M235.313 271.011a33.429 33.429 0 0 0 1.974-7.711 11.267 11.267 0 0 0-1.755-7.612 1.68 1.68 0 0 0-.764-.66 1.533 1.533 0 0 0-1.174.241 6.775 6.775 0 0 0-2.829 4.09 12.434 12.434 0 0 0 2.985 11.879" fill="#86A4D0"/>
        <path d="M273.192 239.805c-1.301 5.347-6.578 8.649-10.702 11.73-4.577 3.429-9.252 6.724-13.9 10.054-9.196 6.603-18.441 13.341-26.491 21.386a87.366 87.366 0 0 0-12.025 14.811c-.339.533-1.195 0-.849-.504 5.999-9.415 13.978-17.303 22.586-24.311 8.751-7.101 18.123-13.427 27.213-20.087 2.561-1.867 5.128-3.742 7.583-5.744 2.454-2.002 4.866-4.388 5.659-7.597.148-.618 1.103-.355.955.262h-.029z" fill="#86A4D0"/>
        <g style="mix-blend-mode:overlay">
            <path d="M254.624 286.191a11.581 11.581 0 0 0-2.651-4.666 11.51 11.51 0 0 0-4.465-2.96c2.2-1.718 4.817-3.245 7.505-2.662a2.603 2.603 0 0 1 1.924 1.334c.184.532.221 1.104.106 1.655a20.635 20.635 0 0 1-2.419 7.299zM269.655 293.931a73.074 73.074 0 0 0 9.005-12.185c1.62-2.896 3.41-6.631 2.306-10.011a5.749 5.749 0 0 0-1.146-2.052c2.045-.823 4.365-1.115 5.9.327 1.768 1.654 1.358 4.537.601 6.844-3.197 9.714-8.078 15.671-17.069 20.485h-2.659c1.096-1.108 2.108-2.287 3.062-3.408zM214.715 232.882c-1.069 1.569-2.207 3.067-3.367 4.551a65.622 65.622 0 0 1 7.781-13.582c.459 2.357-3.566 7.81-4.414 9.031zM230.425 224.319a8.676 8.676 0 0 0-.467-5.065 8.646 8.646 0 0 0-3.225-3.924c.438-.411.877-.823 1.322-1.221 1.259-1.115 2.83-2.258 4.45-1.945 2.277.426 3.176 3.273 3.027 5.602-.254 4.139-2.327 7.966-4.845 11.268a41.035 41.035 0 0 1-4.245 4.729 25.422 25.422 0 0 0 3.983-9.444zM260.99 253.856c6.232-1.775 12.57-9.017 13.978-15.301.286-1.276.374-2.588.262-3.891a4.877 4.877 0 0 1 3.678 1.846c.997 1.42.877 3.344.368 4.97-1.281 4.175-4.726 7.406-8.602 9.394-3.876 1.988-8.198 2.89-12.464 3.77l-2.044-.362c0-.206.078-.419.12-.625a6.942 6.942 0 0 0 4.704.199zM244.416 244.597a8.18 8.18 0 0 1 4.096-6.39 6.14 6.14 0 0 1 .707-.319c-1.676 4.771-2.567 10.061.184 14.484a3.14 3.14 0 0 0 1.55 1.329c.65.258 1.367.29 2.037.091a23.006 23.006 0 0 1-1.415 3.408l-1.259.32c-1.224-2.088-2.745-3.99-3.947-6.085-1.203-2.095-2.179-4.424-1.953-6.838zM257.673 266.488a7.385 7.385 0 0 0 2.192-2.585c.48.246.939.531 1.373.852.441.27.767.695.912 1.193a1.873 1.873 0 0 1-.453 1.42 5.848 5.848 0 0 1-4.562 2.13 12.003 12.003 0 0 1-4.301-.838 11.185 11.185 0 0 0 4.839-2.172zM234.931 258.642a7.826 7.826 0 0 0-3.954.078 6.305 6.305 0 0 1 2.617-3.465 1.515 1.515 0 0 1 1.174-.242c.316.137.583.367.764.661a9.646 9.646 0 0 1 1.613 3.962 6.63 6.63 0 0 0-2.214-.994z" fill="#86A4D0" style="mix-blend-mode:overlay"/>
        </g>
    </g>
    <circle cx="320" cy="203" r="16" fill="#EEF4FD"/>
    <g clip-path="url(#tz0oxt6hhb)">
        <path d="M36.178 297.626c-10.015-5.368-15.452-12.009-19.014-22.839-.843-2.573-1.3-5.787.67-7.631 2.104-1.98 5.516-1.022 8.077.348a36.532 36.532 0 0 1 11.937 10.339c4.074 5.486 7.486 12.761 14.183 13.964.613.17 1.266.128 1.852-.119 1.639-.918.575-3.404-.465-4.971a22.9 22.9 0 0 1-3.593-9.626 3.477 3.477 0 0 1 .118-1.845 2.898 2.898 0 0 1 2.144-1.488c3.214-.697 6.342 1.322 8.895 3.396 6.509 5.28 15.555 14.051 20.038 21.152M74.21 232.033a32.435 32.435 0 0 1-16.154-11.231c-1.935-2.531-3.528-5.443-3.724-8.639-.114-1.785.577-3.968 2.327-4.295 1.266-.239 2.451.637 3.419 1.492a50.289 50.289 0 0 1 14.638 22.787M47.864 250.704c-4.727-.982-9.566-1.995-13.883-4.204-4.318-2.208-8.156-5.818-9.582-10.473-.567-1.844-.701-3.958.41-5.541 1.402-1.987 4.207-2.375 6.603-2.003a20.47 20.47 0 0 1 12.867 7.758 30.378 30.378 0 0 1 5.862 14.091M55.318 253.585a30.912 30.912 0 0 1-2.868-8.36c-.788-3.958-1.103-8.344 1.237-11.582a3.395 3.395 0 0 1 2.189-1.772 3.369 3.369 0 0 1 2.767.498 9.104 9.104 0 0 1 3.154 2.998 9.156 9.156 0 0 1 1.409 4.127c.228 2.691-.788 5.343-2.112 7.686-1.324 2.344-3.034 4.457-4.397 6.785M62.45 260.853a43.082 43.082 0 0 0-9.172-1.449 14.334 14.334 0 0 0-8.786 2.541 2.32 2.32 0 0 0-1.017 1.33 2.095 2.095 0 0 0 .505 1.583 6.488 6.488 0 0 0 5.082 2.375 14.77 14.77 0 0 0 5.618-1.243c2.435-.942 4.909-2.24 6.233-4.504M73.37 268.919a37.26 37.26 0 0 1-2.198-8.598 12.57 12.57 0 0 1 1.954-8.486c.202-.327.499-.584.851-.736a1.699 1.699 0 0 1 1.308.269 7.553 7.553 0 0 1 3.152 4.56c.633 2.308.66 4.741.077 7.063a13.857 13.857 0 0 1-3.402 6.181" fill="#86A4D0"/>
        <path d="M31.175 234.127c1.45 5.961 7.328 9.642 11.922 13.078 5.098 3.824 10.306 7.497 15.483 11.21 10.244 7.362 20.542 14.874 29.51 23.844a97.295 97.295 0 0 1 13.394 16.513c.379.594 1.332 0 .946-.562-6.682-10.497-15.57-19.292-25.16-27.106-9.746-7.916-20.187-14.969-30.312-22.395-2.852-2.082-5.713-4.172-8.447-6.404-2.734-2.233-5.42-4.893-6.303-8.471-.166-.689-1.23-.396-1.064.293h.031z" fill="#86A4D0"/>
        <g style="mix-blend-mode:overlay">
            <path d="M51.86 285.844a12.9 12.9 0 0 1 2.952-5.202 12.821 12.821 0 0 1 4.974-3.3c-2.45-1.916-5.366-3.618-8.36-2.969a2.897 2.897 0 0 0-2.143 1.488 3.477 3.477 0 0 0-.118 1.845 23.033 23.033 0 0 0 2.694 8.138zM35.115 294.473a81.498 81.498 0 0 1-10.03-13.584c-1.805-3.23-3.798-7.394-2.57-11.162a6.414 6.414 0 0 1 1.277-2.288c-2.277-.919-4.861-1.243-6.571.364-1.97 1.844-1.513 5.059-.67 7.631 3.562 10.83 8.998 17.472 19.013 22.839h2.963c-1.221-1.235-2.348-2.549-3.412-3.8zM96.315 226.408c1.19 1.75 2.459 3.42 3.751 5.075a73.211 73.211 0 0 0-8.668-15.144c-.512 2.628 3.972 8.708 4.917 10.069zM78.815 216.861a9.674 9.674 0 0 1 .52-5.647 9.621 9.621 0 0 1 3.593-4.375 81.95 81.95 0 0 0-1.474-1.362c-1.402-1.242-3.151-2.517-4.956-2.169-2.537.475-3.538 3.65-3.372 6.246.283 4.616 2.592 8.882 5.397 12.564a45.842 45.842 0 0 0 4.728 5.272 28.368 28.368 0 0 1-4.436-10.529zM44.768 249.793c-6.942-1.979-14.002-10.053-15.57-17.059a14.23 14.23 0 0 1-.292-4.338 5.438 5.438 0 0 0-4.097 2.058c-1.111 1.583-.977 3.728-.41 5.541 1.426 4.655 5.264 8.257 9.581 10.474 4.319 2.216 9.133 3.222 13.884 4.203l2.278-.404c0-.229-.087-.467-.135-.696a7.726 7.726 0 0 1-5.24.221zM63.23 239.47a9.158 9.158 0 0 0-1.409-4.126 9.106 9.106 0 0 0-3.154-2.999 6.857 6.857 0 0 0-.788-.356c1.868 5.32 2.86 11.218-.204 16.15a3.482 3.482 0 0 1-3.995 1.583c.422 1.307.95 2.578 1.576 3.8l1.402.356c1.363-2.327 3.057-4.449 4.397-6.784 1.34-2.336 2.427-4.932 2.175-7.624zM48.463 263.877a8.244 8.244 0 0 1-2.443-2.882c-.534.274-1.045.592-1.528.95a2.32 2.32 0 0 0-1.017 1.33 2.089 2.089 0 0 0 .505 1.583 6.488 6.488 0 0 0 5.082 2.375 13.395 13.395 0 0 0 4.79-.934 12.467 12.467 0 0 1-5.389-2.422zM73.796 255.129a8.731 8.731 0 0 1 4.404.087 7.038 7.038 0 0 0-2.915-3.864 1.694 1.694 0 0 0-1.308-.269c-.352.152-.65.409-.85.736a10.77 10.77 0 0 0-1.797 4.418 7.387 7.387 0 0 1 2.466-1.108z" fill="#86A4D0" style="mix-blend-mode:overlay"/>
        </g>
    </g>
    <path d="M40.143 298.037c2.823.444 5.672.778 8.573.963h234.749l3.738-.481c.522-.244.978-.715 1.3-1.347.323-.632.497-1.392.497-2.172 0-.78-.174-1.54-.497-2.172-.322-.632-.778-1.103-1.3-1.347l-3.738-.481H48.716c-2.875 0-5.724.519-8.573.963-.568 0-1.113.32-1.515.89-.402.569-.628 1.342-.628 2.147 0 .805.226 1.578.628 2.147.402.57.947.89 1.515.89z" fill="#000"/>
    <g opacity=".31" fill="#498AEE" clip-path="url(#skj0ukjvxc)">
        <path opacity=".31" d="M142.084 276.163a79.512 79.512 0 0 1-59.264-1.715 79.31 79.31 0 0 1-41.543-42.227c-2.813-6.739-4.649-14.463-1.974-21.261 2.882-7.34 10.235-11.823 17.104-15.685l28.088-15.951c14.567-8.267 30.595-18.592 33.556-35.065 2.843-16.276-8.497-31.331-19.541-43.627-11.044-12.295-23.253-26.128-22.621-42.63.602-15.991 13.136-28.73 25.355-39.085 7.609-6.454 15.643-12.808 25.088-16 8.28-2.828 17.212-3.114 25.957-2.838 32.983 1.044 67.467 10.838 89.595 35.291 6.227 6.897 11.004 18.444 4.026 24.562-4.283 3.764-10.698 3.114-16.353 3.833a31.353 31.353 0 0 0-15.402 6.717 31.267 31.267 0 0 0-9.706 13.697c-5.922 17.173 4.5 35.873 17.706 48.346 13.205 12.473 29.608 21.675 40.987 35.764 17.163 21.232 19.66 54.572 2.162 75.528-7.244 8.67-17.183 14.779-27.635 19.045-22.759 9.32-47.906 10.542-72.481 11.655"/>
        <path opacity=".31" d="M258.247 120.928c-7.836-5.29-15.86-10.956-20.578-19.153-4.717-8.197-5.112-19.636 1.609-26.286 5.369-5.3 14.044-6.237 21.16-3.734 7.116 2.502 12.88 7.882 17.459 13.912 3.524 4.61 6.544 9.753 7.659 15.438 1.115 5.685.128 11.991-3.632 16.414-3.76 4.424-10.521 6.404-15.693 3.774M57.6 117.835c1.402 1.971 4.472.65 6.327-.867 8.883-7.301 16.048-19.232 11.913-29.961a18.903 18.903 0 0 0-6.651-8.273 18.951 18.951 0 0 0-10.068-3.392 20.754 20.754 0 0 0-10.336 2.598 20.709 20.709 0 0 0-7.676 7.382 21.284 21.284 0 0 0 5.757 28.211 21.356 21.356 0 0 0 9.699 3.878"/>
    </g>
    <path d="M89.588 64.226c.018.335.092.666.218.978 1.045 2.39 3.308 2.173 2.742 5.324a6.516 6.516 0 0 1-3.242 4.542c-3.09 1.608-7.573.825-9.467 3.737-.355.757-.77 1.483-1.24 2.173-1.72 1.891-4.874.435-7.377.935-2.938.543-4.875 3.803-7.856 4.107-2.176.196-3.982-1.108-6.028-1.543a18.848 18.848 0 0 0-7.573.826 9 9 0 0 1-7.398-.848 17.494 17.494 0 0 1-3.46-5.193c-1.176-1.913-2.982-2.586-4.353-4.346-2.024-2.652 1.154-5.585 2.176-7.976.697-1.738.327-3.564.893-5.346a4.872 4.872 0 0 1 2.654-2.52c1.785-.891 2.677-1.348 3.308-3.173.631-1.825.892-4.172 1.523-6.215a18.666 18.666 0 0 1 5.093-7.324 18.836 18.836 0 0 1 10.423-4.541 18.147 18.147 0 0 1 11.556 2.673 13.853 13.853 0 0 1 6.136 6.04c.327.696.61 1.479 1.001 2.174a3.74 3.74 0 0 0 1.24 1.369c1.002.587 2.35.521 3.2 1.304 1.196 1.086.674 2.847 1.392 4.129.718 1.282 1.785 1.63 2.677 2.586a6.516 6.516 0 0 1 1.763 2.933 18.109 18.109 0 0 1 0 3.195z" fill="#000"/>
    <path d="M73.833 50.796s.196 19.275 9.815 21.275c0 0-2.024 15.06-9.031 17.776-7.007 2.716-9.27-14.538-9.27-14.538l-.98-13.04 9.466-11.473z" fill="#25182B"/>
    <path d="M110.458 55.968a172.509 172.509 0 0 0-9.445-24.882c-1.632-3.673-3.35-7.454-5.31-11.04a58.512 58.512 0 0 0-3.307-5.389 4.003 4.003 0 0 0-1.415-1.282 7.168 7.168 0 0 0-8.704 2.173 4.558 4.558 0 0 0 .653 5.042c.29.373.61.722.957 1.043a25.026 25.026 0 0 0 3.2 2.456 10.874 10.874 0 0 1 2.654 2.607c2.176 2.978 2.568 6.759 3.569 10.475a6442.01 6442.01 0 0 0 5.136 19.253s-2.068 2.39-5.07 5.237c-2.438 2.347-5.071 4.347-7.508 6.802a22.938 22.938 0 0 1-3.33 2.434l-1.219.891a50.185 50.185 0 0 1-5.2 3.586c-.894.512-1.843.92-2.83 1.217a7.597 7.597 0 0 0-2.698 1.673 25.772 25.772 0 0 0-3.96 3.738 9.916 9.916 0 0 0-1.067 1.564c-.124.488-.3.961-.522 1.413v.174c-.196 1.151 2.742 1.282 6.746.934a81.268 81.268 0 0 0 5.005-.587l2.764-.412 1.327-.153a7.932 7.932 0 0 1 7.16 2.739c.119.151.228.311.326.478 0 0 12.513-14.69 14.188-16.798.327-.413.675-.826.98-1.24 4.156-5.519 7.812-11.256 6.92-14.146z" fill="#FDAB86"/>
    <path d="M89.589 122.356c.13.435.26.891.413 1.326-3.09.847-6.202 1.63-9.335 2.303l-1.828.413c-2.655.565-5.005.652-6.92 2.173l-.806.696c-.805.695-1.566 1.347-2.393 1.955a19.762 19.762 0 0 1-2.438 1.609 18.916 18.916 0 0 0-8.704 8.692 17.372 17.372 0 0 1-2.176 4.672c-.566.739-4.548 3.912-4.548 4.52a44.73 44.73 0 0 1 .805-9.453 96.561 96.561 0 0 1 3.242-11.887c.109-.347.218-.695.348-1.043.193-.621.353-1.252.48-1.89.85-5.556.739-11.215-.327-16.733 0-.348-.153-.696-.196-1.043a120.186 120.186 0 0 0-2.002-8.91 1.854 1.854 0 0 1 0-.37c-.13-.5-.261-.956-.392-1.412a66.8 66.8 0 0 0-1.61-4.998c-1.197-3.281-2.895-6.867-2.72-10.496a3.78 3.78 0 0 1 2.894-3.347 31.21 31.21 0 0 1 4.178-1c.22-.064.446-.107.675-.13a.283.283 0 0 1 .174 0l1.392-.26 1.067-.196h.326c.914-.152 1.436-.26 1.436-.348l-2.176-13.495a26.707 26.707 0 0 1 3.504-.586c2.829-.261 6.528 0 7.072 2.781l3.003 9.8h9.401c1.828.131 3.526.522 4.178 2.304a74.907 74.907 0 0 0 2.655 8.302l.588 1.238a10.266 10.266 0 0 1 .914 7.215 28.464 28.464 0 0 1-1.371 2.847 9.333 9.333 0 0 0-.653 2.173 53.714 53.714 0 0 0 1.414 20.927c.087.5.24 1.173.436 1.651z" fill="#F5A784"/>
    <path d="M62.213 80.785v-.195a3.994 3.994 0 0 0-.413-.87 5 5 0 0 0-1.197-1.347c-.43-.33-.89-.62-1.371-.87-.174-.13-11.49-3.216-16.256-4.106l-2.502-.435a50.966 50.966 0 0 1-3.852-.87c-9.423-2.498-13.057-6.91-13.057-6.91l-.718-19.927a37.456 37.456 0 0 1 0-10.127 10.425 10.425 0 0 1 2.045-4.15c.457-.544.914-1.109 1.35-1.674a10.427 10.427 0 0 0 1.675-2.803 4.514 4.514 0 0 0-.849-4.998c-2.85-2.5-8.856-1.521-10.01 2.173-.26.848-.522 1.695-.74 2.543a71.965 71.965 0 0 0-.957 4.346c-.762 3.803-1.262 7.67-1.72 11.474a174.614 174.614 0 0 0-1.762 26.533c0 3.455 10.254 10.11 19.764 15.782l4.395 1.758c6.028 3.455 12.313 6.473 16.252 12.427l.435.652c.067.138.147.27.24.391a2.165 2.165 0 0 0 1.393 1.13h.413c.652 0 1.066-.739 1.392-1.282 2.09-3.911 7.747-13.32 6.05-18.645zM21.998 33.238a.173.173 0 0 1 0-.152.546.546 0 0 1 0 .152zM104.147 282.862a13.848 13.848 0 0 0 0 3.672v.152c-1.023 0-2.045 0-3.068.218-1.023.217-2.002 0-2.981-.153h-.566a34.577 34.577 0 0 0-.588-4.954 111.24 111.24 0 0 1-.805-4.346c-1.523-8.215-25.46-150.422-25.46-150.422a13.24 13.24 0 0 0 2.545-.522c1.284-.326 2.786-.804 4.353-1.282l2.176-.674 1.436-.391c3.438-.891 6.528-5.215 7.878-3.629.391.478.783 1 1.175 1.543a39.544 39.544 0 0 1 2.807 4.346 114.824 114.824 0 0 1 5.897 12.191 71.201 71.201 0 0 1 1.306 3.195c.392 1.021.544 1.369.783 2.021a60.742 60.742 0 0 1 3.221 16.081c.565 7.82.565 15.671 0 23.491-.218 3.412-.501 6.519-.783 8.888 0 .978-.218 1.869-.327 2.629-1.306 9.562-1.523 22.601.631 43.68.392 3.911.653 7.866.827 11.734.414 10.018.152 19.406-.13 25.469-.109 4.455-.327 7.063-.327 7.063z" fill="#FDAB86"/>
    <path d="M80.865 125.525v1.456c-.457 5.107-12.056 153.529-12.208 154.985a38.107 38.107 0 0 0-.174 4.998c-.181-.02-.364-.02-.544 0-.98.153-1.959.305-2.96.392-1.001.087-2.046 0-3.068 0v-.066c0-.326 0-3.542-.327-3.65-.326-.109-.457-2.586-1.023-6.824-.827-6.085-1.958-15.581-2.437-25.729-.174-3.76-.261-7.585-.218-11.387.283-21.188-1.087-34.162-3.264-43.571-.152-.739-.37-1.608-.566-2.586-.195-.978-.565-2.825-.848-4.564-2.176-12.69-4.7-35.226-1.284-47.46.936-3.347 2.176-2.716 3.22-5.411a111.09 111.09 0 0 1 3.809-8.953l.196-.413c1.98-3.781 3.242-5.911 3.242-5.911a10.484 10.484 0 0 0 4.744 2.955c.696.261 1.48.5 2.372.739.472.142.952.258 1.436.348 1.188.223 2.386.382 3.59.478.567 0 1.133 0 1.742.13h1.523c.892.087 1.937.087 3.047.044z" fill="#FDAB86"/>
    <path d="M59.34 289.315c.46-.557.834-1.18 1.11-1.847a7.249 7.249 0 0 0 0-3.129 1.54 1.54 0 0 1 0-.891 1.807 1.807 0 0 1 1.132-.826 9.57 9.57 0 0 1 4.548-.978 3.303 3.303 0 0 1 3.134 3.39 4.1 4.1 0 0 0 .26 1.999c.436 1.022 1.22 1.63 1.35 2.804a2.885 2.885 0 0 1-1.61 3.064 4.81 4.81 0 0 1-1.763.152l-5.223-.217a5.056 5.056 0 0 1-2.829-.674c-1.218-.913-.761-1.891-.109-2.847zM96.247 289.359a7.84 7.84 0 0 0 .958-1.912 7.575 7.575 0 0 0-.348-3.108 1.628 1.628 0 0 1 0-.913c.13-.456.609-.717 1.044-.912a9.488 9.488 0 0 1 4.352-1.391 3.347 3.347 0 0 1 3.417 3.107 4.06 4.06 0 0 0 .435 1.978c.522.956 1.349 1.499 1.611 2.651a2.914 2.914 0 0 1-1.35 3.195 4.773 4.773 0 0 1-1.741.326l-5.222.239a4.803 4.803 0 0 1-2.873-.435c-1.218-.804-.849-1.804-.283-2.825z" fill="#8C623B"/>
    <path d="M70.765 71.745a18.629 18.629 0 0 1-11.294-1.37l-.761-4.65 3.155-2.694c2.85-.261 6.528 0 7.094 2.781l1.806 5.933z" fill="#E0855C"/>
    <path d="M74.073 53.642a16.87 16.87 0 0 0-2.96-7.823c-6.202-6.193-17.017-2.977-18.497 2.76a17.362 17.362 0 0 0 .261 7.324c-1.436 0-4.09.369-3.046 3.824a4.021 4.021 0 0 0 1.89 2.42 4.03 4.03 0 0 0 3.05.384 11.872 11.872 0 0 0 5.42 5.934 11.897 11.897 0 0 0 7.963 1.128c3.547-.587 8.03-5.368 5.919-15.95z" fill="#F5A784"/>
    <path d="M69.242 55.143s.98.195.566-1.413c-.414-1.608-.98-1.152-.98-1.152s-.652 0-.326 1.37c.327 1.368.74 1.195.74 1.195zM60.56 56.816s.978.195.565-1.413c-.414-1.608-1.001-1.13-1.001-1.13s-.653 0-.327 1.37c.327 1.369.762 1.173.762 1.173z" fill="#000"/>
    <path d="M65.064 59.466c.457-.152 1.566 0 1.697-.586a14.136 14.136 0 0 0-1.219-3.217l-.566-1.238v-.109l.262-.152c.74 1.63 1.349 3.347 2.023 4.89a.24.24 0 0 1-.174.325c-.696 0-1.327.37-2.023.479-.11.043-.24-.326 0-.392z" fill="#E0855C"/>
    <path d="M67.414 50.362c.588-.457 1.828-.74 2.416-.13a.195.195 0 0 1-.131.325h-.98c-.349.052-.687.163-1 .326-.283.109-.588-.326-.305-.521zM58.47 52.904c.217-1 1.85-1.369 2.633-.89.196 0 .13.369 0 .455-.404.119-.82.191-1.24.218a4.095 4.095 0 0 0-.98.478.262.262 0 0 1-.413-.26z" fill="#000"/>
    <path d="M64.368 62.184c.634.29 1.326.43 2.023.412.588 0 1.176-.478 1.785-.37 0 0 .174.131.13.218-.326.717-1.436.956-2.176 1.021a2.527 2.527 0 0 1-2.176-.695.369.369 0 0 1 .414-.587z" fill="#E0855C"/>
    <path d="M53.443 43.777 49.94 47.58a15.84 15.84 0 0 0 0 6.323c.18.69.549 1.314 1.066 1.804a1.677 1.677 0 0 0 1.72.26.893.893 0 0 0 .239-.151 2.37 2.37 0 0 0 .566-1.76c-.023-1.22.043-2.44.195-3.651a7.688 7.688 0 0 1 1.676-3.651c.98-1.13 2.611-1.391 3.83-2.173.87-.522 1.37-1.674 2.176-2.173.805-.5 2.873.26 3.852.5 1.76.29 3.41 1.04 4.787 2.172a21.23 21.23 0 0 1 3.722 5.585c.223.525.532 1.01.913 1.435 1.088.434.414-3.63.457-4.347a7.793 7.793 0 0 0-1.175-4.954 8.245 8.245 0 0 0-6.528-3.586 19.81 19.81 0 0 0-4.07.348 13.07 13.07 0 0 0-5.657 1.369c-1.48 1.086-2.808 2.02-4.266 2.847zM104.343 183.573a97.304 97.304 0 0 1-22.98 5.824c-.349-2.174-2.982-17.82-3.983-23.6a6183.87 6183.87 0 0 0-1.85 24.143 95.938 95.938 0 0 1-22.566-1.195 204.989 204.989 0 0 1-2.938-29.489 67.47 67.47 0 0 1 1.654-17.972 96.526 96.526 0 0 1 3.243-11.887c.108-.347.217-.695.348-1.043.193-.621.352-1.252.479-1.89h3.155c5.731-.019 11.454-.44 17.126-1.261a120.76 120.76 0 0 0 3.743-.63h.305a96.86 96.86 0 0 0 9.488-2.173l.696-.217c.74.999 1.458 2.173 2.176 3.39.218.347.414.695.61 1.064.195.37.63 1.109.957 1.695 1.784 3.325 3.46 7.02 4.94 10.497.457 1.086.914 2.173 1.305 3.194.392 1.021.545 1.369.784 2.021a60.79 60.79 0 0 1 3.221 16.081c.591 7.804.621 15.64.087 23.448z" fill="#000"/>
    <path d="M154.611 132.353c-1.567-13.669-29.987-21.557-66.96-19.558 0 .956.262 1.912.392 2.89 3.57-.195 7.073-.282 10.468-.282 29.443 0 52.009 6.736 53.228 17.232 1.523 13.213-31.249 28.25-71.595 32.923-20.107 2.325-39.17 1.825-54.012-1.369-14.014-3.043-22.479-8.302-23.175-14.451-.697-6.15 6.31-13.191 19.28-19.341a150.621 150.621 0 0 1 34.122-10.692c0-.999 0-1.955-.13-2.933a152.871 152.871 0 0 0-35.232 11.039C6.634 134.613-.764 142.523.063 150.085c.826 7.563 9.923 13.582 25.46 16.95a145.252 145.252 0 0 0 30.314 2.869c8.239-.018 16.47-.497 24.655-1.434 42.195-4.846 74.206-20.058 74.206-34.944a10.465 10.465 0 0 0-.087-1.173z" fill="#498AEE"/>
    <path d="M67.305 286.251c-.457-.782-1.567-.869-2.416-.913a3.337 3.337 0 0 0-2.676.717v.131c.892 0 1.74-.131 2.633 0 .892.13 1.523.543 2.307.391a.18.18 0 0 0 .152-.326zM66.544 287.837c-1.35-.282-3.547-1.108-4.766-.13a.348.348 0 0 0 .24.565 11.918 11.918 0 0 1 2.328 0c.678.172 1.37.281 2.067.326.5.13.632-.674.13-.761zM103.82 286.056a4.718 4.718 0 0 0-2.656-.896 4.72 4.72 0 0 0-2.697.765.353.353 0 0 0-.07.371.346.346 0 0 0 .31.216c.783 0 1.501-.326 2.176-.304.828.111 1.644.3 2.437.565.479.087.849-.413.5-.717zM103.777 287.881a5.553 5.553 0 0 0-4.94.239c-.13 0 0 .326.153.326.718 0 1.436-.217 2.176-.217a6.537 6.537 0 0 1 2.393.413c.479.173.697-.609.218-.761z" fill="#fff"/>
    <path d="M93.94 128.398a89.037 89.037 0 0 1-26.7 6.41c-15.56.739-17.41 24.643-17.41 24.643a67.791 67.791 0 0 1 1.654-18.058 96.495 96.495 0 0 1 3.243-11.887c.109-.348.218-.695.348-1.043.193-.621.353-1.253.479-1.891h3.155a122.232 122.232 0 0 0 17.126-1.26 123.83 123.83 0 0 0 3.743-.63h.305l12.382.956c.218.348.414.695.61 1.065.195.369.826.999 1.066 1.695z" fill="#433947"/>
    <path d="M103.451 70.028c-.305.413-.653.826-.979 1.239-.936 1.174-13.427 15.929-13.688 16.233.493 1.129.858 2.31 1.088 3.52.26 1.226.2 2.498-.174 3.695a24.413 24.413 0 0 1-1.371 2.846c-.292.7-.51 1.429-.653 2.174a28.216 28.216 0 0 0 3.112 19.362c1.349 2.434 4.178 6.976.5 8.54a58.237 58.237 0 0 1-10.88 2.586c-2.933.557-5.899.92-8.879 1.087h-2.72a73.16 73.16 0 0 1-11.098-1.152c-3.286-.5-3.548-1.739-3.33-5.15a55.348 55.348 0 0 0-4.113-24.578 24.077 24.077 0 0 0-6.006-8.692 41.353 41.353 0 0 0-8.552-5.129l-3.982-2.303 4.94-12.17c1.196.326 2.48.609 3.851.87l2.503.434c2.785.522 15.842 3.151 17.409 3.281.402 1.038.86 2.054 1.37 3.043.153.348.327.695.48 1.065 1.98 4.346 4.787 9.474 7.007 9.952 1.327.283 2.176-1.847 2.546-4.759.26-1.716.37-3.455.457-5.172v-2.694c0-.913-.218-1.63-.261-2.5 0 0 3.198-1.086 3.481-1.216 4.592-2.043 15.407-10.475 17.845-12.843l10.097 8.431z" fill="#498AEE"/>
    <path d="M99.23 75.243c-.915 1.108-10.185 11.952-10.446 12.257l-2.873-5.716a69.81 69.81 0 0 0 13.318-6.54z" fill="#000"/>
    <path d="M68.872 98.41a14.277 14.277 0 0 1-5.005 2.585 37.025 37.025 0 0 1-5.593 0c-.13 0-.218.174 0 .261 2.916 2.825 9.27.608 11.381-2.173.174-.391-.391-.935-.783-.674z" fill="#3E6299"/>
    <g clip-path="url(#87iyt3qv0d)">
        <path d="M154.987 261.276a30.707 30.707 0 0 0 9 21.718 30.583 30.583 0 0 0 9.962 6.637 30.498 30.498 0 0 0 11.739 2.297c1.805.01 3.607-.148 5.383-.472a26.769 26.769 0 0 0 3.377-.8 29.974 29.974 0 0 0 7.43-3.344 35.59 35.59 0 0 0 2.64-1.867 30.01 30.01 0 0 0 6.14-6.463 30.291 30.291 0 0 0 5.649-17.706c0-8.145-3.22-15.957-8.956-21.726a30.664 30.664 0 0 0-21.642-9.05 30.026 30.026 0 0 0-7.962 1.047c-1.04.267-2.059.61-3.05 1.025a30.148 30.148 0 0 0-8.084 4.637l-1.024.841a29.946 29.946 0 0 0-2.292 2.257 30.592 30.592 0 0 0-8.31 20.969z" fill="#498AEE"/>
        <path d="M160.861 255.039a30.691 30.691 0 0 0 8.956 21.674 30.539 30.539 0 0 0 21.622 8.978c1.805.01 3.607-.148 5.383-.472a28.079 28.079 0 0 0 3.398-.8c2.608-.775 5.1-1.9 7.409-3.344a36.295 36.295 0 0 0 2.66-1.867s.185-.123.246-.226a30.291 30.291 0 0 0 5.649-17.706c0-8.145-3.22-15.957-8.956-21.726a30.664 30.664 0 0 0-21.642-9.05 30.026 30.026 0 0 0-7.962 1.047c-1.04.267-2.059.61-3.05 1.025a29.834 29.834 0 0 0-8.084 4.637 30.6 30.6 0 0 0-5.629 17.83z" fill="#79A8F0"/>
        <path d="M216 104.833c.021.612.19 1.21.491 1.743a4.091 4.091 0 0 0 2.047 1.355c3.418 1.415 7.245-.123 9.988-2.339a24.19 24.19 0 0 0 5.403-6.607l.409-.656a5.623 5.623 0 0 0 1.085-4.288 2.23 2.23 0 0 0-.204-.554c0-.185-.164-.35-.267-.534a6.089 6.089 0 0 1-.286-.636c-1.044-2.647.409-7.16 1.064-9.848.839-3.406 1.822-6.812 2.763-10.259.942-3.447 1.801-7.12 2.927-10.607.43-1.313.901-2.585 1.433-3.837 2.047-4.78 17.929-29.298 17.929-29.298.409-5.027-4.994-6.73-4.994-6.73s-.614.616-1.658 1.724c-4.482 4.719-16.824 18.116-22.166 27.575a54.053 54.053 0 0 0-2.517 5.6c-2.497 6.156-5.833 15.594-8.515 24.19-.286.965-.593 1.888-.859 2.811-1.024 3.406-2.272 7.16-3.132 10.956a32.394 32.394 0 0 0-.941 10.239z" fill="#FDAB86"/>
        <path d="M254.09 23.441s1.555-1.887 3.254-4.431c1.699-2.545 5.362-8.207 7.368-9.151a4.82 4.82 0 0 1 1.064-.103h.328c.708.041 1.403.215 2.047.513h.184c.596.284 1.131.681 1.576 1.17l.143.123a9.36 9.36 0 0 1 1.085 1.518 42.64 42.64 0 0 0-4.421 7.858s3.193-2.75 4.421-2.277l.573.697s-3.111 3.365-4.339 4.986a12.742 12.742 0 0 1-8.187 4.35s-5.362-1.703-5.096-5.253z" fill="#FDAB86"/>
        <path d="m269.87 11.521.143.124a66.811 66.811 0 0 0-5.055 7.652h-.103a22.133 22.133 0 0 1 5.015-7.776zM268.15 10.27h.184a69.454 69.454 0 0 0-5.055 7.632s-.123 0 0 0a21.796 21.796 0 0 1 4.871-7.633zM265.776 9.757h.328a74.646 74.646 0 0 0-4.749 7.242s-.102 0 0 0a19.73 19.73 0 0 1 4.421-7.242z" fill="#E0855C"/>
        <path d="M258.94 87.789c.462-.459.962-.878 1.494-1.252a9.17 9.17 0 0 0 3.725-8.042 10.88 10.88 0 0 0-2.681-5.376 10.244 10.244 0 0 0-6.815-4.39 2.88 2.88 0 0 1-.717-.103 2.934 2.934 0 0 1-.757-.595c-3.561-3.262-8.351.677-10.131 3.919a8.459 8.459 0 0 0-.696 6.852 17.916 17.916 0 0 0 3.643 5.11 10.258 10.258 0 0 1 2.497 4.328 3.238 3.238 0 0 0 2.742 1.929 8.967 8.967 0 0 0 5.281-.616 8.456 8.456 0 0 0 2.415-1.764z" fill="#000"/>
        <path d="M195.717 154.238a5.565 5.565 0 0 0 .512 2.586 7.675 7.675 0 0 0 4.093 3.282 26.396 26.396 0 0 0 16.251 1.826c6.468-1.559 9.824-6.77 12.28-12.31.655-1.477 1.228-2.975 1.801-4.452 3.173-8.207 8.29-13.911 15.064-19.491l.696-.595c4.933-4.104 8.781-8.843 13.468-13.336a.865.865 0 0 0 .143-1.129 22.647 22.647 0 0 0-2.047-2.585 37.92 37.92 0 0 0-6.14-5.458 37.124 37.124 0 0 0-4.278-2.605h-.122a5.438 5.438 0 0 0-.758-.41l-.266-.124a49.592 49.592 0 0 1 4.38-7.694 3.658 3.658 0 0 0 1.208-2.051.455.455 0 0 0 0-.287.43.43 0 0 0-.205 0 .651.651 0 0 0-.286 0l-.369.102h-4.196c-.19.02-.382.02-.573 0a7.383 7.383 0 0 1-.941-.123 7.925 7.925 0 0 1-.962-.185l-1.187-.307a13.756 13.756 0 0 0-2.047-.78.837.837 0 0 0-.45 0c-.839.144-1.576 1.21-2.047 1.846l-1.494 2.052a6.654 6.654 0 0 1-1.269 1.354c-.232.17-.497.289-.778.35h-.348a4.65 4.65 0 0 1-1.125-.309 68.098 68.098 0 0 0-8.187-3.077c-2.334-.718-5.445-2.319-6.14-.965-.881 1.826-1.699 3.673-2.497 5.499-3.316 7.714-6.141 15.531-9.866 23.123a130.42 130.42 0 0 0-11.031 33.976 16.951 16.951 0 0 0-.287 2.277z" fill="#F5A784"/>
        <path d="M237.654 91.272a10.045 10.045 0 0 0 7.599 2.026 10.033 10.033 0 0 0 6.728-4.078.37.37 0 0 0 .102-.144h-.306l-.655.144h-.389c-.487.085-.98.133-1.474.144h-1.535a13.461 13.461 0 0 1-2.313-.247 14.653 14.653 0 0 1-2.149-.492 17.324 17.324 0 0 1-2.047-.78.837.837 0 0 0-.45 0c-.839.144-1.576 1.21-2.047 1.847l-1.064 1.58z" fill="#E0855C"/>
        <path d="M246.169 70.61c-1.658.39-3.214 2.668-4.933 5.17-5.219 7.613-4.441 11.511-.778 14.486 3.664 2.975 8.801 4.103 14.327-2.544 2.722-3.324 5.301-6.36 4.994-8.761-.532-3.55-8.535-9.56-13.61-8.35z" fill="#F5A784"/>
        <path d="M254.826 86.327s3.275-2.442 4.094.492c.818 2.934-4.933 6.155-7.614 3.857 0 0 1.883-3.836 3.52-4.35z" fill="#F5A784"/>
        <path d="M257.077 87.701a3.408 3.408 0 0 0-1.637 0 4.095 4.095 0 0 0-1.556.534c-.122.102 0 .308.144.287.143-.02.778-.226 1.166-.328.023.284.114.559.266.8a.246.246 0 0 0 .43-.144 1.523 1.523 0 0 0-.184-.738c.459-.003.917-.037 1.371-.103a.161.161 0 0 0 .107-.154.164.164 0 0 0-.107-.154z" fill="#E0855C"/>
        <path d="M244.756 77.792s-.839-.185 0-1.314c.839-1.128 1.167-.553 1.167-.553s.471.287-.205 1.19c-.675.902-.962.677-.962.677z" fill="#000"/>
        <path d="M251.531 82.14s-.839-.184 0-1.292 1.146-.574 1.146-.574.471.308-.204 1.19c-.676.882-.942.677-.942.677z" fill="#3B2645"/>
        <path d="M245.759 82.9c-.307-.266-1.207-.553-1.125-1.025.082-.472 1.76-1.847 2.046-2.052a33.98 33.98 0 0 0 2.825-2.708v-.103a43.889 43.889 0 0 0-5.301 4.863.185.185 0 0 0-.083.154.185.185 0 0 0 .083.154c.491.307.921.738 1.412 1.046.021.061.307-.164.143-.328z" fill="#E0855C"/>
        <path d="M247.683 74.652c-.327-.554-1.166-1.19-1.842-.923a.183.183 0 0 0-.082.154c0 .03.007.06.022.087.014.027.035.05.06.067.246.143.533.164.778.287.267.145.497.349.676.595.266.225.634-.062.388-.267zM254.458 79.761c.164-.841-.983-1.682-1.76-1.58-.164 0-.205.247-.103.37.103.123.614.369.901.595.219.213.418.447.593.697a.208.208 0 0 0 .212.082.206.206 0 0 0 .157-.164z" fill="#000"/>
        <path d="M242.546 84.234a8.608 8.608 0 0 0 4.707 2.052 4.328 4.328 0 0 1-3.397.636c-1.76-.615-1.31-2.688-1.31-2.688z" fill="#fff"/>
        <path d="M297.029 292.606c-4.093.984-9.374 0-13.508 0h-9.354c-2.988 0-6.426 1.477-7.061-2.586a29.268 29.268 0 0 1 .307-6.545v-.143a16.825 16.825 0 0 0-3.52-9.807c-1.699-2.565-3.684-4.966-5.158-7.017a122.008 122.008 0 0 1-13.979-24.457c-3.766-9.13-6.795-18.629-11.769-27.226-4.768-8.207-11.461-17.419-16.476-27.103-.225-.451-.47-.903-.696-1.374-4.932-9.89-7.941-20.292-5.239-30.776a10.925 10.925 0 0 1 2.804-5.232c.471-.472.962-.985 1.433-1.559.757-.903 1.514-1.929 2.271-2.955 3.541-4.903 6.939-10.074 10.562-6.401a18.962 18.962 0 0 1 3.07 5.191c2.742 6.155 5.546 15.059 6.692 18.465 9.088 26.139 16.722 52.688 26.239 78.519.41 1.088.962 2.647 1.617 4.555 2.19 6.155 5.567 15.962 8.556 23.513a55.408 55.408 0 0 0 4.789 10.258c.145.207.303.406.471.595a20.22 20.22 0 0 0 7.532 5.252c3.049 1.375 6.242 2.38 9.251 3.796.716.185 3.234 2.544 1.166 3.037z" fill="#FDAB86"/>
        <path d="M215.816 186.368c-2.231 9.151-5.322 18.117-7.266 26.077-2.435 10.033-2.742 20.374-3.827 30.571a129.126 129.126 0 0 1-6.816 28.436c-.368 1.047-.716 2.052-1.003 3.057a54.558 54.558 0 0 0-2.046 9.048 47.25 47.25 0 0 0-.41 3.981c.001.9-.216 1.788-.634 2.585a5.233 5.233 0 0 1-4.094 1.703c-7.388 0-14.695.287-22.125 0a2.17 2.17 0 0 1-1.289-.369 1.336 1.336 0 0 1 .123-1.826 3.714 3.714 0 0 1 1.842-.862c3.377-.882 6.365-2.319 9.681-3.201a11.925 11.925 0 0 0 4.236-1.764 7.586 7.586 0 0 0 2.415-3.488 23.543 23.543 0 0 0 1.003-6.976c0-.595 1.187-38.716 1.617-49.241.491-12.31.614-24.395 1.658-36.623.737-8.207 1.085-16.947 2.661-25.257a65.293 65.293 0 0 1 2.681-10.258 16.413 16.413 0 0 1 5.506-8.207 7.356 7.356 0 0 1 1.166-.698 8.936 8.936 0 0 1 12.137 2.709c.274.368.527.752.758 1.149.368.636.716 1.292 1.044 1.949 5.628 11.325 4.195 24.6.982 37.505z" fill="#FDAB86"/>
        <path d="M185.586 273.36c.311.225.647.411 1.003.554a9.297 9.297 0 0 0 2.312.554c.641.052 1.284.052 1.924 0h6.14a45.027 45.027 0 0 1 1.003-3.057 129.143 129.143 0 0 0 6.734-28.313c.491-4.637.839-9.336 1.289-13.993a121.45 121.45 0 0 1 2.538-16.578c1.945-7.96 5.035-16.926 7.266-26.077l.696 1.375c5.015 9.684 11.707 18.834 16.476 27.103 4.974 8.596 8.003 18.096 11.769 27.226a122.028 122.028 0 0 0 13.979 24.456c1.474 2.052 3.459 4.453 5.158 7.017 3.868.205 9.926-3.919 9.926-3.919-2.988-7.55-6.365-17.296-8.555-23.512a178.619 178.619 0 0 0-1.617-4.555c-9.517-25.831-17.151-52.38-26.239-78.519-1.146-3.324-3.95-12.31-6.693-18.465a75.336 75.336 0 0 1-13.631 1.21c-1.432 0-2.783 0-4.093-.143a75.012 75.012 0 0 1-5.383-.493l-.614-.102a46.94 46.94 0 0 1-3.091-.493l-1.023-.205a82.79 82.79 0 0 1-3.193-.718 16.742 16.742 0 0 0-5.506 8.207 65.264 65.264 0 0 0-2.681 10.258c-1.576 8.31-1.924 17.07-2.661 25.257-1.043 12.31-1.166 24.395-1.657 36.623-.389 10.587-1.576 48.707-1.576 49.302z" fill="#000"/>
        <path d="M267.106 290.041c.635 4.103 4.094 2.564 7.062 2.585h9.353c4.094 0 9.497.923 13.508 0 2.047-.493-.45-2.852-1.166-3.18-3.009-1.416-6.14-2.421-9.251-3.796a20.243 20.243 0 0 1-7.532-5.252h-.43a4.084 4.084 0 0 0-3.008.754 4.108 4.108 0 0 0-1.618 2.651c-1.719 1.457-4.441-.328-6.611-.184a29.37 29.37 0 0 0-.307 6.422zM166.285 291.477c.38.256.832.386 1.29.369 7.429.267 14.736 0 22.125 0a5.233 5.233 0 0 0 4.093-1.703 5.552 5.552 0 0 0 .635-2.585c0-1.375.225-2.708.409-3.98-2.231-.472-5.219 1.682-7.061.123a4.297 4.297 0 0 0-1.099-2.137 4.291 4.291 0 0 0-2.074-1.208 7.576 7.576 0 0 1-2.415 3.488 11.906 11.906 0 0 1-4.237 1.765c-3.315.882-6.303 2.318-9.68 3.201a3.72 3.72 0 0 0-1.843.861 1.339 1.339 0 0 0-.143 1.806z" fill="#8C623B"/>
        <path d="M217.392 167.595a4.097 4.097 0 0 1 3.95-2.524 9.813 9.813 0 0 1 2.988.411l1.903.554c1.386.38 2.837.464 4.258.246 5.587-.924 10.479-4.104 14.9-7.53 2.292-1.703 4.441-3.673 6.795-5.293 2.354-1.621 3.172-2.196 2.046-5.437v-.329c-2.558-7.53-7.92-23.246-8.023-23.574a21.268 21.268 0 0 1-1.432-6.032c-.226-6.442 7.695-14.608 13.324-10.074a8.194 8.194 0 0 1 1.637 1.785 16.748 16.748 0 0 1 2.047 5.109 334.159 334.159 0 0 1 5.26 20.825c.593 2.585 1.126 5.191 1.515 7.796.184 1.19.327 2.38.429 3.591.266 3.077.799 7.612-.593 10.443-2.313 4.657-8.924 7.571-13.488 9.274-5.035 1.846-10.234 3.385-15.391 4.862-3.378.985-6.857 1.949-10.377 2.688-1.29.267-2.641.513-3.93.698-.819 0-1.637.205-2.436.266-3.479.349-6.488-4.39-5.382-7.755zm11.83.205h-.123.123z" fill="#FDAB86"/>
        <path d="M196.986 145.334c.081.215.184.421.307.616a6.131 6.131 0 0 0 3.868 2.051 57.028 57.028 0 0 0 13.365.883 59.814 59.814 0 0 0 14.593-1.437 5.653 5.653 0 0 0 2.313-1.046 4.952 4.952 0 0 0 1.228-1.785c.205-.472.369-.985.532-1.457a38.04 38.04 0 0 1 12.547-17.583l.696-.595c2.578 7.53 5.157 15.101 7.716 22.569a46.802 46.802 0 0 0 12.28-3.18 23.19 23.19 0 0 0 2.149-.985c-.389-2.606-.921-5.211-1.514-7.796a349.21 349.21 0 0 0-5.261-20.825 16.745 16.745 0 0 0-2.046-5.109 8.2 8.2 0 0 0-1.638-1.785 37.92 37.92 0 0 0-6.14-5.458 37.111 37.111 0 0 0-4.277-2.605h-.123a5.392 5.392 0 0 0-.758-.41c-2.538 1.046-4.277 2.769-7.163 3.221a4.97 4.97 0 0 1-5.281-1.765 3.978 3.978 0 0 1-.409-2.052c.033-.62.109-1.236.225-1.846.225-1.21.778-4.001.798-4.103.021-.103-.204-.431-.286-.637-1.044-2.646.409-7.16 1.064-9.848.839-3.406 1.822-6.811 2.763-10.258.942-3.447 1.801-7.12 2.927-10.608a10.581 10.581 0 0 0-6.14-4.103c-1.856-.6-3.802-.87-5.751-.8-2.497 6.155-5.834 15.593-8.515 24.19-.286.964-.593 1.887-.859 2.81a231.021 231.021 0 0 1-12.792 31.474 180.814 180.814 0 0 0-10.009 26.672 5.711 5.711 0 0 0-.409 3.59z" fill="#498AEE"/>
        <path d="M279.244 42.749C292.465 57.726 307.898 77.053 308 98.145c0 .39-.655.513-.716.102a84.1 84.1 0 0 0-10.234-29.483c-5.281-9.13-12.035-17.213-18.318-25.646-.164-.287.286-.616.512-.37zM286.571 76.581c6.14 7.407 9.844 17.316 12.137 26.549a71.996 71.996 0 0 1 1.617 29.257c0 .452-.819.349-.799-.102a105.399 105.399 0 0 0-2.169-28.724c-2.292-9.623-6.631-17.953-11.114-26.672-.184-.267.082-.513.328-.308z" fill="#498AEE" fill-opacity=".29"/>
        <path d="M232.66 144.616c.205-.472.369-.985.532-1.457a38.034 38.034 0 0 1 12.547-17.583l.696-.595-1.74-6.976s-10.295 7.858-12.035 26.611z" fill="#3E6299"/>
        <path d="M206.012 228.982a118.512 118.512 0 0 1 2.538-16.536c1.944-7.961 5.035-16.927 7.265-26.078l-1.842-9.027s-7.859 16.885-8.698 31.781a133.615 133.615 0 0 0 .737 19.86z" fill="#323030"/>
    </g>
    <defs>
        <clipPath id="12gmljeaja">
            <path fill="#fff" transform="matrix(-1 0 0 1 291 211)" d="M0 0h79v87H0z"/>
        </clipPath>
        <clipPath id="tz0oxt6hhb">
            <path fill="#fff" transform="translate(16 202)" d="M0 0h88v97H0z"/>
        </clipPath>
        <clipPath id="skj0ukjvxc">
            <path fill="#fff" transform="translate(38)" d="M0 0h248v281H0z"/>
        </clipPath>
        <clipPath id="87iyt3qv0d">
            <path fill="#fff" transform="matrix(-1 0 0 1 308 9.757)" d="M0 0h153.013v283.321H0z"/>
        </clipPath>
    </defs>
</svg>
