<svg width="375" height="322" viewBox="0 0 375 322" fill="none" xmlns="http://www.w3.org/2000/svg">
    <mask id="4d5ypzpmya" style="mask-type:alpha" maskUnits="userSpaceOnUse" x="0" y="0" width="375" height="322">
        <path fill="#C4C4C4" d="M0 0h375v322H0z"/>
    </mask>
    <g mask="url(#4d5ypzpmya)">
        <g clip-path="url(#cmnhysw79b)">
            <path d="M305.423 319.064c12.48-6.596 19.25-14.771 23.674-28.11 1.05-3.157 1.629-7.123-.824-9.393-2.629-2.436-6.867-1.257-10.056.429a45.42 45.42 0 0 0-14.874 12.725c-5.062 6.762-9.32 15.716-17.659 17.188a3.46 3.46 0 0 1-2.267-.186c-2.05-1.12-.716-4.18.579-6.109a28.123 28.123 0 0 0 4.464-11.848 4.335 4.335 0 0 0-.137-2.27 3.614 3.614 0 0 0-2.679-1.832c-3.993-.857-7.898 1.618-11.076 4.17-8.075 6.49-19.377 17.305-24.96 26.045M290.04 260.515c5.887-1.198 11.911-2.445 17.287-5.173 5.376-2.729 10.154-7.152 11.94-12.881.706-2.271.863-4.872-.52-6.821-1.736-2.436-5.229-2.923-8.212-2.455a25.54 25.54 0 0 0-16.031 9.539 37.119 37.119 0 0 0-7.29 17.353M280.788 264.062a38.043 38.043 0 0 0 3.552-10.279c.981-4.872 1.363-10.27-1.551-14.265a4.224 4.224 0 0 0-4.509-2.235 4.24 4.24 0 0 0-1.652.676 11.274 11.274 0 0 0-3.933 3.688 11.179 11.179 0 0 0-1.757 5.081c-.275 3.303.981 6.577 2.629 9.451 1.648 2.875 3.777 5.496 5.475 8.36M271.909 273.035a53.684 53.684 0 0 1 11.43-1.783 18.01 18.01 0 0 1 10.939 3.118c.599.36 1.046.925 1.256 1.589a2.522 2.522 0 0 1-.628 1.948 8.136 8.136 0 0 1-6.319 2.923 18.526 18.526 0 0 1-6.995-1.52c-3.031-1.169-6.122-2.767-7.77-5.554M258.311 282.935a45.229 45.229 0 0 0 2.737-10.581 15.248 15.248 0 0 0-2.404-10.435 2.205 2.205 0 0 0-1.059-.906 2.074 2.074 0 0 0-1.619.331 9.169 9.169 0 0 0-3.925 5.602 16.92 16.92 0 0 0-.104 8.698 16.988 16.988 0 0 0 4.235 7.613" fill="#86A4D0"/>
            <path d="M309.534 239.752c-.981 3.897-3.659 6.889-6.642 9.441-2.982 2.553-6.171 4.872-9.32 7.133-6.319 4.638-12.755 9.12-19.151 13.641-12.598 8.954-25.156 18.152-36.085 29.104a121.533 121.533 0 0 0-16.228 19.915c-.471.741.706 1.423 1.187.682 8.467-13.153 19.828-24.086 32.023-33.819 12.353-9.851 25.558-18.572 38.313-27.896 3.453-2.524 6.975-5.018 10.223-7.795 3.247-2.777 5.984-5.934 6.995-10.045.206-.848-1.109-1.209-1.315-.361z" fill="#86A4D0"/>
            <g style="mix-blend-mode:overlay">
                <path d="M285.135 303.767a15.822 15.822 0 0 0-3.678-6.398 15.974 15.974 0 0 0-6.192-4.057c3.051-2.358 6.691-4.453 10.409-3.654.56.076 1.094.282 1.559.6.465.318.849.74 1.12 1.232a4.34 4.34 0 0 1 .137 2.271 27.921 27.921 0 0 1-3.355 10.006zM305.983 314.388a100.924 100.924 0 0 0 12.509-16.711c2.247-3.975 4.729-9.1 3.189-13.748a7.79 7.79 0 0 0-1.58-2.806c2.826-1.13 6.044-1.539 8.182.439 2.453 2.27 1.874 6.235.825 9.392-4.425 13.339-11.195 21.514-23.674 28.11l-3.68.059c1.462-1.569 2.865-3.215 4.229-4.735zM293.965 259.395c8.633-2.445 17.424-12.374 19.376-20.997.401-1.75.526-3.551.373-5.339a6.794 6.794 0 0 1 5.092 2.523c1.384 1.949 1.227 4.599.52 6.821-1.785 5.729-6.563 10.152-11.94 12.881-5.376 2.728-11.371 3.975-17.287 5.173l-2.826-.487c0-.292.108-.575.157-.867a9.757 9.757 0 0 0 6.535.292zM270.938 246.729c.163-1.81.766-3.553 1.757-5.081a11.274 11.274 0 0 1 3.933-3.688c.316-.169.644-.315.981-.439-2.325 6.538-3.571 13.797.246 19.877a4.334 4.334 0 0 0 2.149 1.824 4.377 4.377 0 0 0 2.825.125 29.71 29.71 0 0 1-2.012 4.667l-1.746.448c-1.697-2.864-3.797-5.476-5.474-8.36-1.678-2.884-2.934-6.099-2.659-9.373zM289.334 276.729a9.976 9.976 0 0 0 3.031-3.546c.669.337 1.309.728 1.914 1.169.603.364 1.05.937 1.255 1.607a2.531 2.531 0 0 1-.628 1.949 8.085 8.085 0 0 1-2.826 2.171 8.136 8.136 0 0 1-3.492.752 16.761 16.761 0 0 1-5.965-1.14 15.742 15.742 0 0 0 6.711-2.962zM257.791 265.992a11.03 11.03 0 0 0-5.494.097 8.77 8.77 0 0 1 3.64-4.745 2.072 2.072 0 0 1 1.619-.331c.442.18.814.498 1.059.906a13.054 13.054 0 0 1 2.247 5.437 9.43 9.43 0 0 0-3.071-1.364z" fill="#86A4D0" style="mix-blend-mode:overlay"/>
            </g>
        </g>
        <g opacity=".31" fill="#498AEE" clip-path="url(#0qknp3411c)">
            <path opacity=".31" d="M239.559 273.069c-14.072 13.88-28.242 27.857-44.866 38.581-16.623 10.724-35.984 18.098-55.733 17.289-15.903-.652-31.164-6.516-45.509-13.344-10.858-5.152-21.61-11.016-30.092-19.549-21.425-21.487-23.265-59.415-4.139-82.899 13.702-16.86 35.332-25.51 50.017-41.532 25.136-27.419 25.574-71.104 50.563-98.61 16.624-18.342 43.395-26.816 67.547-21.38 9.894 2.22 19.691 6.954 25.534 15.253 9.466 13.45 6.087 31.763 2.075 47.727-4.013 15.964-8.025 33.935.555 47.971 8.307 13.578 26.479 19.646 32.488 34.383 5.142 12.604-.516 26.795-6.204 39.165-4.548 9.877-10.147 20.65-20.451 24.263-11.238 3.945-23.791-2.318-35.458.088M84.108 160.647c5.443-4.676 10.498-10.237 12.582-17.104 2.084-6.867.467-15.263-5.376-19.481-7.635-5.454-18.756-1.558-25.32 5.162-5.551 5.708-9.232 13.9-7.401 21.643 1.83 7.744 10.556 13.831 17.977 10.978"/>
        </g>
        <g clip-path="url(#a8ik32n11d)">
            <path d="M50.008 319.158c2.876.326 5.78.543 8.71.706l238.525.136h.489l3.826-.353a2.55 2.55 0 0 0 2.288-2.541 2.557 2.557 0 0 0-2.288-2.541l-3.826-.326H58.746c-2.931.163-5.835.381-8.738.707a2.101 2.101 0 0 0-2.103 2.106 2.108 2.108 0 0 0 2.103 2.106z" fill="#000"/>
            <path d="M197.627 74.344s8.331 9.674 39.185 22.12c-4.098 3.152-24.097 22.038-25.508 23.777-3.229 3.886-.868 7.038.163 11.25a29.097 29.097 0 0 0 2.985 8.968c.141.296.368.542.651.707.76.434 1.655-.354 2.089-1.115a21.77 21.77 0 0 0 1.547-8.913c.733-7.364 7.815-8.152 13.242-11.495 15.875-9.674 29.85-17.636 25.291-27.88-5.427-11.876-35.494-35.925-43.906-36.93-8.412-1.006-23.418 14.62-15.739 19.51z" fill="#FDAB86"/>
            <path d="M201.535 27.93c.787-.733.923-1.82 1.058-3.532.618-3.195.15-6.506-1.329-9.403a7.453 7.453 0 0 0-8.575-2.88 10.49 10.49 0 0 0-7.354-5.897 11.273 11.273 0 0 0-9.172 2.255 30.726 30.726 0 0 1-3.853 3.18 3.795 3.795 0 0 1-4.613-.3 5.625 5.625 0 0 0-.353 3.86c.543 1.385 2.089 2.092 3.093 3.179a9.761 9.761 0 0 1 1.493 6.141 8.5 8.5 0 0 0 .95 3.125c.405 1.276.904 2.52 1.492 3.723.217.354.923 1.44 1.14.49l4.179-.408c4.721-.49 9.416-1.006 14.11-1.658 1.927-.271 3.908-.543 5.807-.978a3.983 3.983 0 0 0 1.927-.897z" fill="#000"/>
            <path d="M174.833 27.114a2.9 2.9 0 0 0-4.694 0c-2.253 2.908 1.899 8.152 4.966 8.315a69.108 69.108 0 0 0-.272-8.315z" fill="#E0855C"/>
            <path d="M219.58 58.5a159.652 159.652 0 0 0-7.707 26.604c0 .87-.271 1.712-.38 2.5-.732 5.571-2.713 32.311-2.93 36.523v.57c-21.085 6.495-43.418 1.332-43.418 1.332l-.162-1.196c-.652-5.217-3.392-26.794-5.211-45.463-.949-9.538-1.628-18.315-1.682-23.777 0-2.011 4.613-1.93 7.788-2.473a92.934 92.934 0 0 1 11.56-1.169h1.194l.19-3.152v-2.065l.353-5.625h1.058c.682.105 1.372.16 2.062.163.85.043 1.701.043 2.551 0l1.167-.163a14.7 14.7 0 0 0 1.574-.326c.837-.196 1.661-.441 2.469-.734l.678-.272h.218l.542-.244a23.067 23.067 0 0 0 2.877-1.522l1.275-.897.217-.163.461-.353.326-.272v.734c-.163 1.793-.353 4.076-.38 6.359v8.451h1.71c2.209.03 4.412.222 6.594.57a44.542 44.542 0 0 1 14.382 4.729 1.144 1.144 0 0 1 .624 1.332z" fill="#FDAB86"/>
            <path d="M196.895 36.3a13.386 13.386 0 0 1-12.024 11.233 13.363 13.363 0 0 1-5.805-.771l.353-5.625a21.677 21.677 0 0 0 17.476-4.837z" fill="#E0855C"/>
            <path d="M175.132 18.935c-1.52 1.685-1.547 5.435-1.547 9.375 0 12.202 3.745 15.897 9.986 16.305 6.241.408 12.699-2.12 13.568-13.587.515-5.68 1.058-10.87-1.059-13.316-3.066-3.342-16.308-3.913-20.948 1.223z" fill="#F5A784"/>
            <path d="M196.352 29.614s1.737-5.109 4.83-2.527c3.094 2.582-.841 10.353-5.427 9.919-.027 0-.814-5.625.597-7.392z" fill="#F5A784"/>
            <path d="M199.852 29.425a4.126 4.126 0 0 0-1.791 1.25 5.255 5.255 0 0 0-1.302 1.766c0 .19.217.299.353.19.135-.108.678-.842 1.031-1.223.241.287.548.511.895.652a.298.298 0 0 0 .42-.277.301.301 0 0 0-.067-.184 2.2 2.2 0 0 0-.733-.68c.499-.343.971-.725 1.411-1.141a.215.215 0 0 0 .021-.257.215.215 0 0 0-.238-.096z" fill="#E0855C"/>
            <path d="M178.931 27.849s-1.031.407-.95-1.44c.081-1.848.868-1.495.868-1.495s.733 0 .652 1.44c-.082 1.44-.57 1.495-.57 1.495zM189.595 27.522s-1.031.408-.923-1.467c.109-1.875.842-1.468.842-1.468s.732 0 .678 1.44c-.054 1.44-.597 1.495-.597 1.495z" fill="#3B2645"/>
            <path d="M183.896 32.685c-.542 0-1.763.271-2.008-.3.049-1.3.268-2.587.652-3.83a50.27 50.27 0 0 0 1.058-5.082h-.19a59.295 59.295 0 0 0-2.144 9.293.252.252 0 0 0 .035.229.245.245 0 0 0 .209.097h2.334c.244.055.299-.38.054-.407z" fill="#E0855C"/>
            <path d="M179.908 22.141a2.279 2.279 0 0 0-2.714.38.217.217 0 0 0 .217.327c.38 0 .706-.218 1.085-.245.404-.035.81.01 1.194.136a.324.324 0 0 0 .348-.212.326.326 0 0 0-.13-.386zM191.033 22.712c-.461-1.06-2.333-1.087-3.093-.408a.305.305 0 0 0-.071.133.305.305 0 0 0 .078.28.3.3 0 0 0 .129.077c.477.054.96.054 1.438 0 .402.054.795.163 1.167.326.217.027.461-.19.352-.408z" fill="#3B2645"/>
            <path d="M181.346 36.544a11.546 11.546 0 0 0 6.621-1.358 5.428 5.428 0 0 1-3.229 3.233c-2.334.598-3.392-1.875-3.392-1.875z" fill="#fff"/>
            <path d="M74.403 260.407v.163a52.37 52.37 0 0 0 .272 5.435c0 .951.217 1.875.352 2.717a53.32 53.32 0 0 0 3.013 11.332 54.61 54.61 0 0 0 20.031 25.37 54.47 54.47 0 0 0 66.37-3.605 54.612 54.612 0 0 0 18.37-33.178c0-.652.19-1.277.272-1.957.218-2.031.326-4.072.325-6.114v-2.636a53.146 53.146 0 0 0-1.112-8.614 34.485 34.485 0 0 0-.57-2.446 52.761 52.761 0 0 0-5.265-13.044 54.472 54.472 0 0 0-16.581-18.168 54.369 54.369 0 0 0-22.874-9.006 52.571 52.571 0 0 0-8.141-.598 54.451 54.451 0 0 0-37.205 14.798 54.596 54.596 0 0 0-17.067 36.263c-.163 1.06-.19 2.174-.19 3.288z" fill="#498AEE"/>
            <path d="M76.981 277.227a55.377 55.377 0 0 0 1.059 2.989c5.101-1.766 10.23-3.532 15.44-4.918a248.599 248.599 0 0 1 33.621-6.413 247.044 247.044 0 0 1 32.021-1.739c7.923 0 15.793.978 23.689 1.494 0-.652.19-1.277.272-1.956-18.996-3.424-39.945-1.848-58.424.434a228.356 228.356 0 0 0-47.678 10.109zM74.675 266.059c0 .951.217 1.875.352 2.717a236.12 236.12 0 0 1 47.651-10.87 217.527 217.527 0 0 1 60.73 1.821v-1.902a113.815 113.815 0 0 0-24.422-2.989 227.56 227.56 0 0 0-36.254.951 223.851 223.851 0 0 0-48.057 10.272zM74.403 260.407c6.54-2.147 13.08-4.375 19.755-6.141a255.3 255.3 0 0 1 32.563-6.441 190.408 190.408 0 0 1 31.966-1.494c7.937.46 15.834 1.459 23.636 2.989a34.614 34.614 0 0 0-.57-2.446c-17.801-4.185-37.665-3.451-55.14-1.359a247.541 247.541 0 0 0-52.02 11.55c-.163 1.114-.19 2.228-.19 3.342z" fill="#fff"/>
            <path d="M184.927 136.845c.163 3.777.652 8.152 1.357 12.989 1.276 8.533 3.229 18.261 5.427 27.718 4.912 21.739 10.638 41.74 10.638 41.74a267.497 267.497 0 0 0 5.128 42.201c.815 4.376 1.683 8.588 2.497 12.474 3.012 13.804 5.753 23.777 5.753 23.777l13.215-2.5a246.98 246.98 0 0 0 .841-21.413c0-4.185 0-8.153-.271-12.011-1.194-26.142-5.834-43.479-5.889-46.876a394.117 394.117 0 0 0-2.279-40.055c-3.392-31.387-9.471-47.718-9.471-47.718-8.52-19.702-21.356-18.343-25.589-3.832a40.83 40.83 0 0 0-1.357 13.506z" fill="#FDAB86"/>
            <path d="M142.867 278.151c0 5.435.272 11.142.814 17.12l13.215 2.5s2.334-8.56 5.075-20.843a490.993 490.993 0 0 0 3.066-14.783 268.426 268.426 0 0 0 5.292-42.962s5.807-20.191 10.854-41.985c2.089-9.348 4.043-19.022 5.292-27.473.732-4.81 1.194-9.239 1.383-12.989a41.443 41.443 0 0 0-1.383-13.588c-4.288-14.511-17.069-15.842-25.617 3.832 0 0-6.024 16.305-9.389 47.474a396.881 396.881 0 0 0-2.279 40.299c0 3.261-4.586 20.435-5.834 46.197-.462 5.407-.57 11.087-.489 17.201zM170.98 52.876s-11.533-5.435-44.802-4.157c0 0 10.556-19.376 10.855-24.457 0 0 4.939 4.674 8.656.597 2.714-3.043 2.47-6.739-2.713-9.755-5.183-3.016-11.126-4.946-21.709 10.408-10.583 15.353-20.081 28.315-11.696 35.788 9.688 8.669 47.027 18.289 55.113 15.789 8.087-2.5 15.305-22.936 6.296-24.213z" fill="#FDAB86"/>
            <path d="M160.56 104.616c1.818-7.473 9.959-6.658 9.959-6.658a50.198 50.198 0 0 1-.19-7.907v-.924c.144-1.812.334-3.687.569-5.625v-1.033a153.267 153.267 0 0 1 6.595-27.419c.651-2.01 1.058-3.152 1.058-3.152l.515-8.316s-1.791-.625-5.807 2.337a34.473 34.473 0 0 0-3.934 3.424c-4.966 4.919-11.099 22.12-15.088 35.327 0 .435-.271.897-.38 1.332-.787 2.717-1.465 5.027-2.035 7.147 0 .489-.244.95-.353 1.385-.624 2.419-1.085 4.294-1.248 5.435-.95 6.468 8.548 12.12 10.339 4.647zM205.469 109.833c1.466-12.445 8.711-10.19 8.711-10.19.19-2.962.326-5.707.353-8.37V85.186C213.366 48.528 196.46 43.31 196.46 43.31v8.452s-.678 26.984-1.791 44.022v1.413c-.217 3.18-.488 5.924-.705 8.153 0 .434 0 .842-.136 1.222-.136.381-.19 1.278-.298 1.74-1.981 8.152 10.474 13.994 11.939 1.521z" fill="#92BDFF"/>
            <path d="M173.449 45.92a15.98 15.98 0 0 1 4.233 9.13c.652-2.01 1.059-3.152 1.059-3.152l.515-8.316s-1.791-.625-5.807 2.337z" fill="#826B80"/>
            <path d="M193.665 106.436a9.599 9.599 0 0 0 5.129-2.717c2.876-2.718 3.392-7.038 6.567-9.593a15.344 15.344 0 0 1 9.172-2.962v-.95a16.269 16.269 0 0 0-10.285 3.586 30.866 30.866 0 0 0-4.613 7.229 9.12 9.12 0 0 1-5.861 4.076c0 .543-.054.951-.109 1.331zM194.506 97.198a12.698 12.698 0 0 0 3.094-1.903 49.546 49.546 0 0 1 9.362-6.956 26.341 26.341 0 0 1 7.571-2.147v-1.005a25.23 25.23 0 0 0-10.013 3.125 35.526 35.526 0 0 0-6.296 4.7 22.463 22.463 0 0 1-3.582 2.718l-.136 1.468zM151.659 94.507c1.572.526 3.233.73 4.885.598 3.554-.299 9.172-4.293 13.785-5.054v-.924a17.58 17.58 0 0 0-4.396 1.141 51.807 51.807 0 0 1-8.304 3.288 10.378 10.378 0 0 1-5.671-.434c-.055.489-.19.95-.299 1.385zM154.047 85.974c1.305.126 2.621.062 3.908-.19a71.11 71.11 0 0 1 10.257-2.31h2.714v-1.032a22.464 22.464 0 0 0-7.001.19 48.352 48.352 0 0 1-8.331 2.01c-.443.028-.887.028-1.33 0 .027.571-.217.898-.217 1.332z" fill="#595959"/>
            <path d="M145.906 204.971a52.108 52.108 0 0 0 23.337 6.766c3.34.281 6.694.335 10.041.163l7.001-57.066 7.788 55.381c13.73 4.973 32.753-2.554 32.753-2.554-2.904-62.746-18.995-88.099-18.995-88.099-18.399 6.005-43.798.19-43.798.19-12.862 17.473-18.127 85.219-18.127 85.219z" fill="#1A50A4"/>
            <path d="M186.61 125.975a5.732 5.732 0 0 1 2.171 2.718c.923 2.255-.298 4.728.706 6.956.732 1.604 2.198 2.718 2.713 4.43a7.964 7.964 0 0 1 0 4.647c0 .462-.949.38-.895-.136a8.872 8.872 0 0 0-1.14-6.033 15.105 15.105 0 0 1-2.116-3.179 7.112 7.112 0 0 1-.19-2.392 8.441 8.441 0 0 0-1.71-6.386c-.027-.38.271-.896.461-.625zM182.051 133.611a10.694 10.694 0 0 0 .407-7.174.222.222 0 0 1 .122-.286.217.217 0 0 1 .285.123 6.554 6.554 0 0 1 1.167 4.429c-.163 2.065-1.682 3.94-.895 5.979 1.248 3.179 2.713 5.788.352 8.94a.326.326 0 0 1-.447.122.328.328 0 0 1-.122-.448 7.709 7.709 0 0 0-.435-7.745 6.162 6.162 0 0 1-.922-1.712c-.217-1.141.027-1.06.488-2.228z" fill="#291B30"/>
            <path d="M169.216 211.737c3.339.281 6.694.335 10.04.163l7.001-57.066a276.479 276.479 0 0 0-17.041 56.903z" fill="#194180"/>
            <path d="M209.92 273.858c3.012 13.804 5.753 23.777 5.753 23.777l13.215-2.5a246.98 246.98 0 0 0 .841-21.413 72.885 72.885 0 0 1-19.809.136zM142.867 278.152c0 5.434.271 11.141.814 17.119l13.215 2.5s2.334-8.559 5.075-20.842a74.282 74.282 0 0 1-19.104 1.223z" fill="#E8CEE5"/>
            <path d="M213.963 310.978a1.846 1.846 0 0 0 0 .407c.434 6.142 5.427 5.191 12.808 5.435 5.889 0 9.036-3.288 8.684-6.848a6.333 6.333 0 0 0-1.113-2.989 28.902 28.902 0 0 1-4.016-10.218c-7.272-8.75-14.681 1.006-14.681 1.006a54.415 54.415 0 0 0-1.682 13.207zM145.771 316.684c7.544 0 12.699.87 12.835-5.706.014-.19.014-.381 0-.571a47.714 47.714 0 0 0-1.71-12.772s-7.408-9.755-14.68-1.005a28.904 28.904 0 0 1-4.016 10.217 7.93 7.93 0 0 0-.841 1.658c-1.357 4.022 1.763 8.288 8.412 8.179z" fill="#8C623B"/>
            <path d="M219.173 301.358a9.89 9.89 0 0 1 8.82-.407.27.27 0 0 1 .145.314.274.274 0 0 1-.104.152.274.274 0 0 1-.177.05c-1.33 0-2.714-.299-3.989-.19a21.056 21.056 0 0 0-4.288 1.06.542.542 0 0 1-.614-.685.547.547 0 0 1 .207-.294zM220.231 304.293a13.56 13.56 0 0 1 8.711 0 .569.569 0 0 1 0 1.033c-1.207.23-2.435.339-3.663.326-1.47.12-2.929.338-4.369.652a1.06 1.06 0 0 1-1.289-1.476c.124-.252.344-.445.61-.535zM145.608 301.005a9.49 9.49 0 0 1 8.141.897c.732.489.298 1.902-.625 1.522a10.08 10.08 0 0 0-6.892-.598.958.958 0 0 1-1.033-.273.97.97 0 0 1-.143-1.06.967.967 0 0 1 .552-.488zM144.224 304.348a10.83 10.83 0 0 1 5.78-.326c1.221.217 3.12.543 3.419 1.956a.543.543 0 0 1-.38.652 32.516 32.516 0 0 1-3.392-.761 27.468 27.468 0 0 0-5.183.218c-1.085.054-1.085-1.413-.244-1.739z" fill="#291B30"/>
        </g>
    </g>
    <defs>
        <clipPath id="cmnhysw79b">
            <path fill="#fff" transform="translate(222 233)" d="M0 0h108v87H0z"/>
        </clipPath>
        <clipPath id="0qknp3411c">
            <path fill="#fff" transform="matrix(-1 0 0 1 290 39)" d="M0 0h244v279H0z"/>
        </clipPath>
        <clipPath id="a8ik32n11d">
            <path fill="#fff" transform="matrix(-1 0 0 1 304 6)" d="M0 0h256v314H0z"/>
        </clipPath>
    </defs>
</svg>
