<svg width="375" height="340" viewBox="0 0 375 340" fill="none" xmlns="http://www.w3.org/2000/svg">
    <mask id="h3df21qt1a" style="mask-type:alpha" maskUnits="userSpaceOnUse" x="0" y="0" width="375" height="340">
        <path fill="#C4C4C4" d="M0 0h375v340H0z"/>
    </mask>
    <g mask="url(#h3df21qt1a)">
        <circle cx="94" cy="149" r="146" fill="#EEF4FD"/>
        <circle cx="298" cy="173" r="27" fill="#EEF4FD" fill-opacity=".49"/>
        <circle cx="350" cy="243" r="16" fill="#EEF4FD"/>
        <circle cx="246.5" cy="236.5" r="22.5" fill="#EEF4FD" fill-opacity=".25"/>
        <path d="M304.36 121.46a16.247 16.247 0 0 0 9.016-2.515 16.006 16.006 0 0 0 6.083-7.052 15.824 15.824 0 0 0 1.095-9.209 15.905 15.905 0 0 0-4.263-8.258 16.166 16.166 0 0 0-8.18-4.518 16.276 16.276 0 0 0-9.337.748 16.1 16.1 0 0 0-7.341 5.76 15.852 15.852 0 0 0-2.867 8.827 15.893 15.893 0 0 0 4.518 11.334 16.214 16.214 0 0 0 11.276 4.883z" stroke="#498AEE" stroke-opacity=".31" stroke-width=".79" stroke-miterlimit="10"/>
        <path d="M292.416 92.473c-6.389-2.96-6.034.513-5.761 2.297.172.78.538 1.504 1.065 2.108 6.662 8.973 16.941 14.581 27.301 18.919 2.512 1.068 5.379 2.067 7.891.986a2.63 2.63 0 0 0 1.296-1.027c.819-1.351-.546-3.04-1.788-4.054" stroke="#498AEE" stroke-opacity=".31" stroke-width=".79" stroke-miterlimit="10"/>
        <g clip-path="url(#eoucg5e7yb)">
            <path d="M63.441 336.836c-15.448-8.295-23.834-18.561-29.328-35.299-1.3-3.976-2.005-8.944 1.033-11.795 3.245-3.059 8.508-1.578 12.458.539a56.388 56.388 0 0 1 18.414 15.979c6.283 8.479 11.546 19.724 21.877 21.583a4.346 4.346 0 0 0 2.856-.183c2.529-1.419.888-5.261-.717-7.684a35.43 35.43 0 0 1-5.542-14.878 5.38 5.38 0 0 1 .182-2.851 4.475 4.475 0 0 1 1.381-1.546 4.433 4.433 0 0 1 1.925-.754c4.96-1.077 9.784 2.043 13.722 5.249 10.04 8.161 23.993 21.717 30.909 32.693M122.107 235.457a50.034 50.034 0 0 1-24.92-17.357c-2.984-3.912-5.44-8.414-5.743-13.353-.176-2.759.89-6.133 3.589-6.638 1.954-.37 3.781.984 5.274 2.305a77.76 77.76 0 0 1 22.58 35.22M81.468 264.314c-7.293-1.517-14.756-3.083-21.416-6.497-6.66-3.413-12.58-8.993-14.78-16.187-.875-2.851-1.081-6.118.632-8.565 2.164-3.071 6.49-3.67 10.185-3.095a31.565 31.565 0 0 1 19.848 11.99 47.008 47.008 0 0 1 9.043 21.779M92.965 268.768a47.83 47.83 0 0 1-4.424-12.921c-1.215-6.117-1.701-12.896 1.908-17.9a5.264 5.264 0 0 1 1.393-1.739 5.212 5.212 0 0 1 4.201-1.083 5.216 5.216 0 0 1 2.051.852 14.053 14.053 0 0 1 4.865 4.634 14.171 14.171 0 0 1 2.173 6.378c.352 4.16-1.216 8.259-3.258 11.88-2.042 3.622-4.68 6.889-6.782 10.486M103.965 280a66.315 66.315 0 0 0-14.148-2.239 22.07 22.07 0 0 0-13.552 3.928 3.58 3.58 0 0 0-1.568 2.055 3.24 3.24 0 0 0 .778 2.447 10.054 10.054 0 0 0 3.508 2.727 9.995 9.995 0 0 0 4.332.944 22.763 22.763 0 0 0 8.666-1.921c3.755-1.456 7.572-3.463 9.614-6.962M120.811 292.468a57.622 57.622 0 0 1-3.391-13.287 19.46 19.46 0 0 1 3.014-13.117 2.883 2.883 0 0 1 1.313-1.138 2.602 2.602 0 0 1 2.017.416 11.675 11.675 0 0 1 4.862 7.048 21.526 21.526 0 0 1 .119 10.916 21.429 21.429 0 0 1-5.248 9.554" fill="#86A4D0"/>
            <path d="M55.725 238.694c2.236 9.213 11.303 14.902 18.39 20.213 7.863 5.909 15.897 11.587 23.882 17.325 15.801 11.379 31.686 22.99 45.518 36.853a150.43 150.43 0 0 1 20.662 25.523c.583.918 2.054 0 1.458-.868-10.307-16.225-24.016-29.818-38.808-41.895-15.035-12.235-31.14-23.137-46.757-34.614-4.4-3.218-8.812-6.448-13.03-9.898-4.217-3.451-8.362-7.562-9.723-13.092-.255-1.065-1.896-.612-1.64.453h.048z" fill="#86A4D0"/>
            <g style="mix-blend-mode:overlay">
                <path d="M87.63 318.627a19.952 19.952 0 0 1 4.554-8.04 19.779 19.779 0 0 1 7.673-5.101c-3.78-2.961-8.277-5.591-12.896-4.588a4.446 4.446 0 0 0-1.925.754c-.574.4-1.047.929-1.38 1.546a5.381 5.381 0 0 0-.183 2.851 35.638 35.638 0 0 0 4.156 12.578zM61.802 331.964a125.932 125.932 0 0 1-15.472-20.996c-2.784-4.992-5.859-11.427-3.963-17.252a9.93 9.93 0 0 1 1.97-3.536c-3.513-1.419-7.5-1.921-10.137.563-3.039 2.851-2.334 7.819-1.033 11.795 5.493 16.738 13.88 27.004 29.328 35.299h4.57c-1.884-1.908-3.622-3.939-5.263-5.873zM156.204 226.764c1.835 2.704 3.792 5.285 5.785 7.843-3.512-8.312-8-16.17-13.37-23.407-.79 4.062 6.126 13.459 7.585 15.564zM129.209 212.008a14.985 14.985 0 0 1 .803-8.729 14.864 14.864 0 0 1 5.542-6.761c-.754-.71-1.508-1.419-2.273-2.105-2.164-1.921-4.862-3.891-7.645-3.352-3.914.734-5.458 5.64-5.202 9.654.437 7.133 3.998 13.728 8.325 19.417a70.853 70.853 0 0 0 7.293 8.149 43.884 43.884 0 0 1-6.843-16.273zM76.69 262.907c-10.707-3.058-21.597-15.539-24.016-26.367a22.03 22.03 0 0 1-.45-6.705 8.342 8.342 0 0 0-3.508.889 8.412 8.412 0 0 0-2.812 2.292c-1.713 2.447-1.507 5.763-.632 8.565 2.2 7.194 8.12 12.762 14.78 16.188 6.66 3.425 14.086 4.979 21.416 6.497l3.512-.624c0-.355-.134-.722-.207-1.077a11.893 11.893 0 0 1-8.082.342zM105.168 246.952a14.175 14.175 0 0 0-2.173-6.378 14.055 14.055 0 0 0-4.864-4.634 10.414 10.414 0 0 0-1.216-.55c2.88 8.222 4.412 17.337-.316 24.96a5.391 5.391 0 0 1-2.663 2.29 5.346 5.346 0 0 1-3.499.157 39.614 39.614 0 0 0 2.43 5.873l2.164.551c2.103-3.598 4.716-6.877 6.782-10.486 2.067-3.61 3.744-7.623 3.355-11.783zM82.391 284.674a12.726 12.726 0 0 1-3.768-4.453c-.824.423-1.613.914-2.358 1.468a3.579 3.579 0 0 0-1.568 2.056 3.24 3.24 0 0 0 .778 2.447 10.065 10.065 0 0 0 3.508 2.727 9.994 9.994 0 0 0 4.332.943 20.61 20.61 0 0 0 7.39-1.444 19.201 19.201 0 0 1-8.314-3.744zM121.467 271.154a13.44 13.44 0 0 1 6.794.135 10.867 10.867 0 0 0-4.497-5.971 2.62 2.62 0 0 0-2.018-.416 2.885 2.885 0 0 0-1.312 1.138 16.644 16.644 0 0 0-2.771 6.827 11.395 11.395 0 0 1 3.804-1.713z" fill="#86A4D0" style="mix-blend-mode:overlay"/>
            </g>
        </g>
        <path d="M60.177 332.862c2.868.434 5.762.759 8.71.94h238.49l3.797-.47c.531-.237.994-.697 1.322-1.314a4.56 4.56 0 0 0 .504-2.119c0-.762-.177-1.503-.504-2.12-.328-.616-.791-1.076-1.322-1.314l-3.797-.47H68.886c-2.92 0-5.814.506-8.709.94-.577 0-1.131.312-1.54.868-.408.556-.637 1.31-.637 2.096s.23 1.539.638 2.095c.408.556.962.868 1.54.868zM128.418 200.036c1.603 3.698 4.006 7.042 5.128 10.818.841 2.439 1.281 4.996 2.363 7.356a15.22 15.22 0 0 0 4.326 5.349 15.699 15.699 0 0 0 6.329 2.911c8.012 1.534 16.784-2.91 23.434 1.377l.801.59c1.282.984 2.363 2.124 3.685 3.029 5.728 3.934 13.62 2.085 20.029-.865 6.409-2.95 12.538-6.963 19.548-6.884 2.443 0 4.927.551 7.33.314 4.433-.752 8.387-3.181 11.016-6.765 11.577-13.768 9.974-36.819-.561-50.705a21.632 21.632 0 0 1-4.806-8.103c-.641-2.951.24-6.058-.241-9.048a26.003 26.003 0 0 0-6.289-10.699 45.876 45.876 0 0 1-7.25-14.004 45.636 45.636 0 0 1-1.322-5.114c-1.162-5.861-1.322-12.351-5.168-16.993-6.609-7.867-20.909-9.52-30.483-7.867-10.856 2.045-20.75 6.805-24.355 17.976a76.081 76.081 0 0 0-1.923 17.584 25.552 25.552 0 0 1-5.808 16.443 29.44 29.44 0 0 0-5.648 5.939c-2.003 3.934-.361 8.379 0 12.627a20.417 20.417 0 0 1-.441 5.822 19.928 19.928 0 0 1-3.204 6.923c-.441.59-.882 1.18-1.362 1.731a28.569 28.569 0 0 0-6.209 8.575 16.17 16.17 0 0 0 1.081 11.683z" fill="#000"/>
        <path d="M133.35 180.389a.531.531 0 0 0 0 .238 36 36 0 0 0 3.969 8.967 45.587 45.587 0 0 1 3.968 29.281c-.357 1.825-.834 3.65-1.191 5.555a15.46 15.46 0 0 0 6.27 2.936c7.937 1.547 16.627-2.936 23.214 1.389l.794.595a45.217 45.217 0 0 0-.992-19.839c-.238-.991-.397-2.221.437-2.816a3.169 3.169 0 0 1 1.746-.238 11.55 11.55 0 0 0 10.158-7.698 25.816 25.816 0 0 0 .754-13.37 95.76 95.76 0 0 1-1.825-13.371c0-6.825 2.381-13.53 1.706-20.275a22.583 22.583 0 0 0-9.881-16.307c-1.587-1.071-7.936-4.523-9.643-2.499-.992 1.111 1.191 7.657 1.27 9.324a26.696 26.696 0 0 1-5.516 19.123 32.736 32.736 0 0 1-18.769 9.88c-.685.112-1.361.271-2.024.476a20.278 20.278 0 0 1-3.175 6.983c-.357.516-.992 1.111-1.27 1.666z" fill="#000"/>
        <path d="M103.9 285.48a349.456 349.456 0 0 0 66.563 17.314c2.645 1.274 19.276 19.067 29.695 2.19.401-.677.802-1.393 1.202-2.19 4.809-.716 9.899-1.631 15.188-2.666a337.884 337.884 0 0 0 58.508-17.514c19.276-7.961 32.621-17.155 30.256-25.395-1.963-6.926-17.712-9.314-37.629-9.314a670.658 670.658 0 0 0-81.992 6.886c-14.787-2.03-41.075-5.334-65.32-6.488-27.13-1.274-51.615 0-54.14 8.916-2.525 8.916 14.627 19.584 37.669 28.261z" fill="#1A50A4"/>
        <path d="M155.972 223.353c1.629 9.019.552 15.809-2.761 27.803 4.673 3.676 14.944 5.451 31.52 5.451a84.717 84.717 0 0 0 29.396-5.318 97.818 97.818 0 0 1 1.717-39.417 20.178 20.178 0 0 1 1.638-3.636 40.664 40.664 0 0 0 3.075-4.771 20.44 20.44 0 0 0-.879-15.446c0-.469-.279-.899-.399-1.329-1.438-4.732-1.598-9.307-2.676-14.078-.759-3.285-3.994-4.379-7.11-4.966l-3.434-.548-1.838-.312c-2.636-.431-5.392-.665-7.548-.861-2.157-.195-3.076-.273-3.994-.273h-.48v-1.017l-.599-3.324-2.556-13.804c-.519-5.161-7.109-6.334-12.341-6.452a41.182 41.182 0 0 0-6.511.313l1.079 24.518-.52.196c-.519.195-2.396 0-4.752.313l-2.597.195h-1.597a60.208 60.208 0 0 0-7.669.899c-3.115.782-5.631 2.229-6.15 5.397-1.119 6.413 1.198 13.217 2.716 19.317.958 3.91 2.502 7.964 3.062 12.07 0 0 1.104.895 1.104 1.09.759 5.435 1.177 10.841 1.656 16.355.12.664-.552.97-.552 1.635z" fill="#F5A784"/>
        <path d="M168.818 59.886h-.24s.12.039.24 0zm-57.175 39.65a89.919 89.919 0 0 1 17.208-17.561c3.234-2.756 6.468-5.395 9.463-7.875 5.709-5.158 11.459-10.316 16.849-15.75 4.472-4.489 11.259-10.316 13.295-16.34.388-1.28.603-2.603.639-3.938a45.286 45.286 0 0 1 3.035-12.482 4.21 4.21 0 0 1 1.397-2.008 1.488 1.488 0 0 1 1.733-.044c.171.115.315.264.423.438.08.297.08.609 0 .905 0 7.442 2.196 18.546-1.118 25.397a100.485 100.485 0 0 1-8.345 11.498c-4.591 6.654-8.464 13.466-13.335 19.687l-20.403 27.011c3.729 11.077 8.024 22.894 14.655 32.561.988 1.26 2.751 2.662 3.864 3.816 10.621 13.033 16.779 20.21 20.427 21.261.92.739 1.438 1.094 1.93 2.16a7.504 7.504 0 0 1 .688 3.398c-2.076 25.83-20.203 32.603-20.203 32.603s-53.182-88.357-42.202-104.737zM195.439 59.798a.245.245 0 0 1-.239 0h.239zm15.496 21.587c-4.9-6.37-8.764-13.172-13.305-19.66a100.663 100.663 0 0 1-8.366-11.482c-3.307-6.842-1.116-17.93-1.076-25.362a2.258 2.258 0 0 1 0-.904 1.51 1.51 0 0 1 1.008-.67 1.532 1.532 0 0 1 1.183.277 4.207 4.207 0 0 1 1.355 2.005 45.267 45.267 0 0 1 3.027 12.465c.079 1.328.293 2.645.638 3.932 2.031 6.016 8.804 11.796 13.266 16.318 5.378 5.465 11.114 10.617 16.811 15.728 2.151 1.927 4.422 3.932 6.772 5.74a102.92 102.92 0 0 1 19.919 19.661c7.967 11.521-17.21 59.571-32.547 86.82-6.414 11.364-11.155 19.11-11.155 19.11s-15.656-8.218-18.404-33.462a3.478 3.478 0 0 1 0-.629 7.767 7.767 0 0 1 .651-3.387 7.873 7.873 0 0 1 2.058-2.787c3.346-3.932 9.6-9.279 19.918-21.783.996-1.219 2.231-2.241 3.187-3.618a128.371 128.371 0 0 0 15.577-31.22l-20.517-27.092z" fill="#FDAB86"/>
        <path d="M153.144 251.264c4.655 3.693 15.638 5.343 32.152 5.343a83.809 83.809 0 0 0 29.288-5.343 99.076 99.076 0 0 1 1.711-39.6 20.353 20.353 0 0 1 1.631-3.654 40.758 40.758 0 0 0 3.064-4.793 20.694 20.694 0 0 0-.875-15.518c0-.471-.279-.903-.398-1.335 15.32-27.225 40.27-75.233 32.511-86.743a102.846 102.846 0 0 0-19.897-19.643L219.16 92.785c3.979 5.303 7.958 10.686 11.938 15.989a123.974 123.974 0 0 1-15.52 31.232c-.955 1.375-2.188 2.397-3.183 3.615-10.187 12.493-16.434 18.032-19.896 21.685-.876 2.122-1.871 4.479-2.746 6.875a68.665 68.665 0 0 0-3.422 11.433l-14.923-18.936v.864l-.517.197c-3.104-3.654-9.51-9.115-19.896-22.118a46.905 46.905 0 0 1-3.144-3.615 126.493 126.493 0 0 1-15.28-31.271l11.102-14.732-14.883-11.786a89.652 89.652 0 0 0-17.15 17.521c-10.943 16.343 41.981 104.304 41.981 104.304v.629c.756 5.46 1.234 10.882 1.711 16.421v1.925c.31 9.466-.424 18.938-2.188 28.247z" fill="#498AEE"/>
        <path d="m170.878 141.37.496 11.397a25.882 25.882 0 0 0 9.156 4.744c3.326.944 6.8 1.202 10.222.758l-1.869-10.729c-.496-5.188-6.79-6.367-11.787-6.485a37.364 37.364 0 0 0-6.218.315z" fill="#DB9677"/>
        <path d="M158.084 127.117c1.314-3.096 3.703-2.586 5.614-1.411a29.612 29.612 0 0 1 1.155-12.774c3.981-9.952 24.286-13.4 34.2-1.018a29.934 29.934 0 0 1 3.663 14.693c1.592 19.592-7.605 27.037-14.055 27.429a21.975 21.975 0 0 1-13.553-3.25 21.427 21.427 0 0 1-8.742-10.7c-4.061-.548-10.511-7.836-8.282-12.969z" fill="#FDAB86"/>
        <path d="M185.509 135.709c.88 0 2.921.252 3.282-.755a28.353 28.353 0 0 0-1.561-6.416l-.761-2.516.56-.251c.961 3.27 1.682 6.751 2.602 9.854a.49.49 0 0 1 .011.205.454.454 0 0 1-.223.326.407.407 0 0 1-.188.056c-1.281 0-2.482.378-3.763.462-.24-.168-.4-.881.041-.965z" fill="#E0855C"/>
        <path d="M192.14 119.627c1.103-.467 3.198-.659 4.081.192a.224.224 0 0 1 .051.127.206.206 0 0 1-.034.13.3.3 0 0 1-.111.103.44.44 0 0 1-.163.052c-.589 0-1.104-.192-1.655-.192a6.293 6.293 0 0 0-1.765.247.63.63 0 0 1-.371.01.533.533 0 0 1-.162-.074.39.39 0 0 1-.111-.115.277.277 0 0 1-.013-.277.352.352 0 0 1 .099-.12.506.506 0 0 1 .154-.083zM175.302 121.936c.516-1.743 3.132-2.06 4.302-1.03.241.198 0 .673 0 .792a8.33 8.33 0 0 1-1.996 0 4.94 4.94 0 0 0-1.618.673.388.388 0 0 1-.231.125.364.364 0 0 1-.251-.055.452.452 0 0 1-.174-.214.535.535 0 0 1-.032-.291z" fill="#3B2645"/>
        <path d="M183.931 139.991c1.039.791 2.211 1.275 3.425 1.415 1.065 0 2.168-.708 3.157-.33a.244.244 0 0 1 .129.06.342.342 0 0 1 .087.132c.019.052.027.11.022.167a.387.387 0 0 1-.047.16c-.685 1.415-2.664 1.698-3.805 1.604a3.73 3.73 0 0 1-2.102-.438c-.662-.353-1.246-.899-1.703-1.591a1.04 1.04 0 0 1-.065-.487.952.952 0 0 1 .165-.45.68.68 0 0 1 .339-.26.558.558 0 0 1 .398.018z" fill="#DB9677"/>
        <path d="M191.401 126.611a6.37 6.37 0 0 0 3.689.323c.885-.258 1.438-.872 2.287-1.163 0 1.002-1.107 1.616-2.029 1.939a6.566 6.566 0 0 1-2.291.22 6.45 6.45 0 0 1-2.21-.575c-.258-.227.037-.906.554-.744zM173.499 128.204c1.984.587 5.373 2.014 6.489-.923a.415.415 0 0 1 .414-.42.415.415 0 0 1 .413.42c0 1.636-1.777 2.517-3.1 2.727a4.803 4.803 0 0 1-2.501-.089 4.865 4.865 0 0 1-2.128-1.337c0-.126.413-.462.413-.378z" fill="#3B2645"/>
        <path d="M163.396 103.507a24.418 24.418 0 0 1 7.222-4.08 32.462 32.462 0 0 1 13.684-.35 35.891 35.891 0 0 1 14.044 3.498c3.99 2.175 9.097 8.819 5.586 13.249-3.511 4.429-11.969-3.886-14.403-6.256a8.891 8.891 0 0 1-3.383 3.42 9.21 9.21 0 0 1-4.716 1.204 34.012 34.012 0 0 0-9.975 1.01 14.084 14.084 0 0 0-5.027 4.08 11.676 11.676 0 0 0-1.596 2.059 11.099 11.099 0 0 0-.997 4.429 3.507 3.507 0 0 0-1.297-.909 3.578 3.578 0 0 0-1.576-.256 5.096 5.096 0 0 1-3.032-.816 4.048 4.048 0 0 1-1.077-1.982 25.923 25.923 0 0 1 0-8.237c.202-2.06.9-4.044 2.037-5.793a13.361 13.361 0 0 1 4.506-4.27z" fill="#000"/>
        <path d="m189.648 307.851 84.561-25.382c19.113-7.932 32.346-17.094 30.001-25.304-1.947-6.9-17.564-9.28-37.313-9.28-18.637 6.663-44.863 24.827-77.249 59.966zM104.241 286.045a212.262 212.262 0 0 0 33.512-5.517s-19.46-14.096-17.091-32.22c-26.724-1.289-50.842 0-53.328 9.022-2.487 9.021 14.21 19.936 36.907 28.715z" fill="#194180"/>
        <path d="M98.859 301.656a146.375 146.375 0 0 0 31.202 10.29c14.502 3.457 32.2 6.717 52.176 9.859 22.093 3.418 38.154 8.838 39.392-1.099 1.239-9.938-27.326-12.334-35.956-13.709a34.97 34.97 0 0 1-9.428-4.477c-17.579-10.37-52.337-35.744-71.554-46.467-13.783-7.855-24.69-6.52-31.441-4.163a18.022 18.022 0 0 0-8.193 6.153 17.565 17.565 0 0 0-3.433 9.558c-1.519 19.522 28.125 29.38 37.235 34.055z" fill="#F5A784"/>
        <path d="M130.024 311.873c14.469 3.514 32.214 6.751 52.198 9.909 22.102 3.434 38.168 8.882 39.407-1.105 1.239-9.988-27.337-12.396-35.97-13.778a34.88 34.88 0 0 1-9.432-4.5c-10.232 3.79-29.256 9.869-46.203 9.474z" fill="#F5A784"/>
        <path d="M309.955 267.567a17.517 17.517 0 0 0-3.407-9.578 17.797 17.797 0 0 0-8.179-6.129c-6.705-2.395-17.497-3.534-31.186 4.123-23.807 13.35-71.737 49.633-80.426 51.046-8.69 1.414-37.019 4.32-35.71 13.665 1.23 9.974 17.18 4.516 39.122 1.06 38.249-6.008 67.967-12.408 82.767-20.065 8.928-4.594 38.368-14.489 37.019-34.122z" fill="#FDAB86"/>
        <path d="M167.792 203.805c3.727 6.003 13.954 2.668 18.949 1.417a.496.496 0 0 1 .596.181.564.564 0 0 1-.002.653c-1.982 3.918-7.611 3.793-11.258 3.585a11.37 11.37 0 0 1-5.79-.83 11.944 11.944 0 0 1-4.714-3.631c-.912-1.459 1.308-2.834 2.219-1.375zM132.362 108.326l10.912-14.302-5.397-4.233c-4.212 5.258-6.187 11.895-5.515 18.535zM219.46 92.694c4.048 5.185 8.097 10.447 12.145 15.632-.364-.845-5.263-12.52-8.097-19.626-1.417 1.575-2.955 2.957-4.048 3.994z" fill="#4982D9"/>
    </g>
    <defs>
        <clipPath id="eoucg5e7yb">
            <path fill="#fff" transform="translate(32 191)" d="M0 0h134v148H0z"/>
        </clipPath>
    </defs>
</svg>
