<svg width="34" height="34" viewBox="0 0 34 34" fill="none" xmlns="http://www.w3.org/2000/svg">
<path d="M16.9997 0.333374C7.79967 0.333374 0.333008 7.80004 0.333008 17C0.333008 26.2 7.79967 33.6667 16.9997 33.6667C26.1997 33.6667 33.6663 26.2 33.6663 17C33.6663 7.80004 26.1997 0.333374 16.9997 0.333374ZM23.6663 18.6667H18.6663V23.6667C18.6663 24.5834 17.9163 25.3334 16.9997 25.3334C16.083 25.3334 15.333 24.5834 15.333 23.6667V18.6667H10.333C9.41634 18.6667 8.66634 17.9167 8.66634 17C8.66634 16.0834 9.41634 15.3334 10.333 15.3334H15.333V10.3334C15.333 9.41671 16.083 8.66671 16.9997 8.66671C17.9163 8.66671 18.6663 9.41671 18.6663 10.3334V15.3334H23.6663C24.583 15.3334 25.333 16.0834 25.333 17C25.333 17.9167 24.583 18.6667 23.6663 18.6667Z" fill="#498AEE"/>
</svg>
