<svg width="106" height="88" viewBox="0 0 106 88" fill="none" xmlns="http://www.w3.org/2000/svg">
<path d="M65.8782 8.67236C88.0369 16.0914 99.7392 40.7718 92.0161 63.7976C84.293 86.8233 69.4959 83.178 47.3372 75.759C25.1786 68.3399 18.2697 64.7177 25.9929 41.6919C33.716 18.6662 43.7196 1.25329 65.8782 8.67236Z" fill="#498AEE" fill-opacity="0.1"/>
<path d="M69.7619 30.0137H31.5294C28.4981 30.0137 26.0676 32.4693 26.0676 35.4706V73.669C26.0676 76.6703 28.4981 79.1259 31.5294 79.1259H69.7619C72.7659 79.1259 75.2237 76.6703 75.2237 73.669V35.4706C75.2237 32.4693 72.7932 30.0137 69.7619 30.0137ZM69.7619 73.669H31.5294V40.9275H69.7619V73.669ZM61.5692 54.5698H39.7221C38.2201 54.5698 36.9912 53.342 36.9912 51.8413C36.9912 50.3407 38.2201 49.1129 39.7221 49.1129H61.5692C63.0712 49.1129 64.3001 50.3407 64.3001 51.8413C64.3001 53.342 63.0712 54.5698 61.5692 54.5698ZM50.6456 65.4836H39.7221C38.2201 65.4836 36.9912 64.2558 36.9912 62.7552C36.9912 61.2545 38.2201 60.0267 39.7221 60.0267H50.6456C52.1476 60.0267 53.3765 61.2545 53.3765 62.7552C53.3765 64.2558 52.1476 65.4836 50.6456 65.4836Z" fill="#498AEE"/>
<ellipse cx="16.3851" cy="19.3475" rx="5.46178" ry="5.45692" fill="#498AEE" fill-opacity="0.21"/>
<ellipse cx="5.46178" cy="55.0653" rx="5.46178" ry="5.45692" fill="#498AEE" fill-opacity="0.49"/>
</svg>
