<svg width="26" height="25" viewBox="0 0 26 25" fill="none" xmlns="http://www.w3.org/2000/svg">
    <path d="M21.666 6.25h-2.361c.119-.323.195-.677.195-1.042 0-1.73-1.452-3.125-3.25-3.125a3.28 3.28 0 0 0-2.709 1.406L13 4.187l-.542-.708A3.298 3.298 0 0 0 9.75 2.083c-1.798 0-3.25 1.396-3.25 3.125 0 .365.076.719.195 1.042H4.333c-1.202 0-2.156.927-2.156 2.083l-.01 11.458c0 1.157.964 2.084 2.166 2.084h17.334c1.202 0 2.166-.927 2.166-2.084V8.333c0-1.156-.964-2.083-2.166-2.083zM16.25 4.166c.596 0 1.083.47 1.083 1.042 0 .573-.487 1.042-1.083 1.042s-1.084-.47-1.084-1.042c0-.573.488-1.042 1.084-1.042zm-6.5 0c.596 0 1.083.47 1.083 1.042 0 .573-.487 1.042-1.083 1.042s-1.084-.47-1.084-1.042c0-.573.488-1.042 1.084-1.042zm10.833 15.625H5.417c-.596 0-1.084-.468-1.084-1.041v-1.042h17.334v1.042c0 .573-.488 1.041-1.084 1.041zm1.084-5.208H4.332V9.375c0-.573.488-1.042 1.083-1.042h4.42l-1.603 2.104a1.01 1.01 0 0 0 .239 1.459c.476.333 1.159.229 1.505-.23L13 7.708l3.022 3.958c.347.459 1.03.563 1.506.23a1.01 1.01 0 0 0 .239-1.459l-1.604-2.104h4.42c.596 0 1.084.469 1.084 1.042v5.208z" fill="#1A1818"/>
</svg>
