<svg width="157" height="129" viewBox="0 0 157 129" fill="none" xmlns="http://www.w3.org/2000/svg">
<rect width="157" height="129" rx="22" fill="#498AEE"/>
<mask id="mask0_1726_17111" style="mask-type:alpha" maskUnits="userSpaceOnUse" x="0" y="0" width="157" height="129">
<rect width="157" height="129" rx="22" fill="#498AEE"/>
</mask>
<g mask="url(#mask0_1726_17111)">
<circle cx="133.5" cy="21.5" r="45.5" fill="white" fill-opacity="0.21"/>
<circle cx="139.5" cy="115.5" r="39" stroke="white" stroke-opacity="0.46"/>
<circle cx="148.5" cy="84.5" r="31.5" fill="white" fill-opacity="0.21"/>
</g>
<circle cx="40.5" cy="40.5" r="18.5" fill="white"/>
<path d="M47.0126 37.2867L42.576 36.9017L40.8435 32.8225C40.5318 32.08 39.4685 32.08 39.1568 32.8225L37.4243 36.9108L32.9968 37.2867C32.1901 37.3508 31.8601 38.3592 32.4743 38.8908L35.8385 41.8058L34.8301 46.1325C34.6468 46.9208 35.4993 47.5442 36.196 47.1225L40.0001 44.8308L43.8043 47.1317C44.501 47.5533 45.3535 46.93 45.1701 46.1417L44.1618 41.8058L47.526 38.8908C48.1401 38.3592 47.8193 37.3508 47.0126 37.2867V37.2867ZM40.0001 43.1167V34.5917L41.5676 38.295L45.5826 38.6433L42.5393 41.2833L43.456 45.2067L40.0001 43.1167Z" fill="#498AEE"/>
</svg>
