<svg width="24" height="32" viewBox="0 0 24 32" fill="none" xmlns="http://www.w3.org/2000/svg">
<path d="M9.71387 18.8436L12.919 20.6987L6.41039 32L4.54229 27.8233L9.71387 18.8436Z" fill="#2C6BCC"/>
<path d="M9.71387 18.8436L6.50873 16.9885L0.00011909 28.2898L4.54229 27.8233L9.71387 18.8436Z" fill="#498AEE"/>
<path d="M14.2864 18.8436L11.0812 20.6987L17.5899 32L19.458 27.8233L14.2864 18.8436Z" fill="#2C6BCC"/>
<path d="M14.2864 18.8436L17.4915 16.9885L24.0001 28.2898L19.458 27.8233L14.2864 18.8436Z" fill="#498AEE"/>
<ellipse cx="11.9949" cy="11.0622" rx="11.0347" ry="11.0622" fill="#E3E3E3"/>
<ellipse cx="11.9947" cy="11.0622" rx="8.61356" ry="8.63501" fill="#595959"/>
<mask id="mask0_1968_22375" style="mask-type:alpha" maskUnits="userSpaceOnUse" x="3" y="3" width="19" height="18">
<ellipse cx="12.4546" cy="11.984" rx="8.6336" ry="8.65511" fill="#C28B37"/>
</mask>
<g mask="url(#mask0_1968_22375)">
<ellipse cx="11.9949" cy="11.0622" rx="8.6336" ry="8.65511" fill="url(#paint0_linear_1968_22375)"/>
</g>
<path d="M11.8677 5.38967C11.9393 5.24601 12.1438 5.24601 12.2155 5.38967L13.8574 8.68175C13.8865 8.74004 13.9427 8.77991 14.0072 8.78799L17.2612 9.19576C17.4167 9.21525 17.4865 9.40166 17.3822 9.5189L15.1332 12.0472C15.0939 12.0913 15.0768 12.151 15.0866 12.2094L15.7026 15.8647C15.7291 16.022 15.5662 16.1429 15.4239 16.0715L12.1285 14.4197C12.0738 14.3923 12.0093 14.3923 11.9546 14.4197L8.65984 16.0712C8.51741 16.1426 8.35446 16.0215 8.38122 15.8641L9.00253 12.2096C9.01248 12.1511 8.99528 12.0913 8.95582 12.047L6.70156 9.51901C6.59706 9.40181 6.66681 9.21519 6.8224 9.19569L10.0759 8.78799C10.1404 8.77991 10.1966 8.74004 10.2257 8.68175L11.8677 5.38967Z" fill="url(#paint1_linear_1968_22375)"/>
<defs>
<linearGradient id="paint0_linear_1968_22375" x1="11.9949" y1="2.40704" x2="11.9949" y2="19.7173" gradientUnits="userSpaceOnUse">
<stop stop-color="#9CA1A3"/>
<stop offset="1" stop-color="#9CA1A3" stop-opacity="0"/>
</linearGradient>
<linearGradient id="paint1_linear_1968_22375" x1="12.0418" y1="5.28192" x2="12.0418" y2="16.0925" gradientUnits="userSpaceOnUse">
<stop stop-color="#F1F5F5"/>
<stop offset="0.0001" stop-color="white"/>
<stop offset="1" stop-color="#F1F5F5"/>
</linearGradient>
</defs>
</svg>
