<svg width="26" height="33" viewBox="0 0 26 33" fill="none" xmlns="http://www.w3.org/2000/svg">
<rect x="12.1208" y="15.7018" width="1.61683" height="5.70146" fill="url(#paint0_linear_1968_22386)"/>
<path d="M1 3.66604V2.66604H-3.57628e-07L0 3.66604L1 3.66604ZM5.98657 2.66604H1V4.66604H5.98657V2.66604ZM0 3.66604C4.17233e-07 4.63222 0.0173333 5.56417 0.143688 6.39885C0.270968 7.23963 0.518498 8.0554 1.03077 8.75343C2.09175 10.1992 3.98077 10.7573 6.80608 10.7573V8.75733C4.12186 8.75733 3.10784 8.20332 2.64316 7.57014C2.39261 7.22872 2.22165 6.76335 2.12116 6.09949C2.01974 5.42952 2 4.63333 2 3.66604L0 3.66604Z" fill="#FFDD66"/>
<path d="M20.2207 8.73068C20.2207 12.7752 16.942 16.0539 12.8975 16.0539C8.85294 16.0539 5.57422 12.7752 5.57422 8.73068C5.57422 4.68617 8.85294 1.40744 12.8975 1.40744C16.942 1.40744 20.2207 4.68617 20.2207 8.73068Z" fill="#FFDD66"/>
<path d="M12.8975 21.1186C9.91132 21.1186 7.49058 21.9919 7.49058 23.0692H18.3043C18.3043 21.9919 15.8836 21.1186 12.8975 21.1186Z" fill="#FFDD66"/>
<path d="M5.57422 0H20.2207V8.38847H5.57422V0Z" fill="#FFDD66"/>
<path d="M18.3043 23.4456H7.49058V23.0349H18.3043V23.4456Z" fill="#FFDD66"/>
<path d="M24.9999 3.66604L25.9999 3.66604L25.9999 2.66604H24.9999V3.66604ZM20.0134 4.66604H24.9999V2.66604H20.0134V4.66604ZM23.9999 3.66604C23.9999 4.63333 23.9802 5.42952 23.8788 6.09949C23.7783 6.76335 23.6073 7.22872 23.3568 7.57014C22.8921 8.20332 21.8781 8.75733 19.1938 8.75733V10.7573C22.0192 10.7573 23.9082 10.1992 24.9692 8.75343C25.4814 8.0554 25.729 7.23963 25.8562 6.39885C25.9826 5.56417 25.9999 4.63222 25.9999 3.66604L23.9999 3.66604Z" fill="#DE9300"/>
<path d="M20.2207 8.73067C20.2207 12.7752 16.942 16.0539 12.8975 16.0539C12.8975 16.0539 12.8975 12.7752 12.8975 8.73067C12.8975 4.68616 12.8975 1.40743 12.8975 1.40743C16.942 1.40743 20.2207 4.68616 20.2207 8.73067Z" fill="url(#paint1_linear_1968_22386)"/>
<path d="M12.8975 21.1186C12.8975 21.1186 12.8975 21.9919 12.8975 23.0692H18.3044C18.3044 21.9919 15.8836 21.1186 12.8975 21.1186Z" fill="url(#paint2_linear_1968_22386)"/>
<path d="M12.8975 0.000541687H20.2207V8.38846H12.8975V0.000541687Z" fill="url(#paint3_linear_1968_22386)"/>
<path d="M18.3044 23.4456H12.8975C12.8975 23.4456 12.8853 23.1948 12.8975 23.0349C13.0574 20.9295 18.3044 23.0349 18.3044 23.0349V23.4456Z" fill="url(#paint4_linear_1968_22386)"/>
<circle cx="13.0412" cy="7.91549" r="4.38247" fill="#DCAE0C"/>
<circle cx="13.0325" cy="7.86149" r="3.22915" fill="#DE9300" stroke="#FFE176" stroke-width="4.55437"/>
<mask id="path-8-outside-1_1968_22386" maskUnits="userSpaceOnUse" x="8.82715" y="3.41132" width="8" height="8" fill="black">
<rect fill="white" x="8.82715" y="3.41132" width="8" height="8"/>
<path d="M12.9221 4.47963C12.9677 4.38856 13.0976 4.38856 13.1432 4.47963L14.1134 6.42011C14.1319 6.45706 14.1676 6.48233 14.2086 6.48746L16.1301 6.72764C16.2289 6.74 16.2733 6.85817 16.207 6.93249L14.8783 8.42245C14.8533 8.45045 14.8424 8.48828 14.8487 8.52527L15.2128 10.6807C15.2296 10.7804 15.1261 10.857 15.0357 10.8118L13.0879 9.83788C13.0531 9.82049 13.0122 9.82049 12.9774 9.83788L11.03 10.8116C10.9395 10.8568 10.8359 10.78 10.8529 10.6803L11.2202 8.52546C11.2265 8.48836 11.2156 8.4504 11.1905 8.42235L9.85874 6.93256C9.79233 6.85827 9.83666 6.73996 9.93553 6.7276L11.8567 6.48746C11.8977 6.48233 11.9334 6.45706 11.9519 6.42011L12.9221 4.47963Z"/>
</mask>
<path d="M12.9221 4.47963C12.9677 4.38856 13.0976 4.38856 13.1432 4.47963L14.1134 6.42011C14.1319 6.45706 14.1676 6.48233 14.2086 6.48746L16.1301 6.72764C16.2289 6.74 16.2733 6.85817 16.207 6.93249L14.8783 8.42245C14.8533 8.45045 14.8424 8.48828 14.8487 8.52527L15.2128 10.6807C15.2296 10.7804 15.1261 10.857 15.0357 10.8118L13.0879 9.83788C13.0531 9.82049 13.0122 9.82049 12.9774 9.83788L11.03 10.8116C10.9395 10.8568 10.8359 10.78 10.8529 10.6803L11.2202 8.52546C11.2265 8.48836 11.2156 8.4504 11.1905 8.42235L9.85874 6.93256C9.79233 6.85827 9.83666 6.73996 9.93553 6.7276L11.8567 6.48746C11.8977 6.48233 11.9334 6.45706 11.9519 6.42011L12.9221 4.47963Z" fill="#FFF4BC"/>
<path d="M11.8567 6.48746L11.9125 6.93398L11.8567 6.48746ZM11.9519 6.42011L11.5494 6.21886L11.9519 6.42011ZM9.85874 6.93256L9.52325 7.23247H9.52325L9.85874 6.93256ZM9.93553 6.7276L9.87972 6.28108L9.93553 6.7276ZM11.2202 8.52546L11.6638 8.60106L11.2202 8.52546ZM11.1905 8.42235L11.526 8.12244L11.1905 8.42235ZM11.03 10.8116L11.2313 11.2141H11.2313L11.03 10.8116ZM10.8529 10.6803L10.4093 10.6047L10.8529 10.6803ZM12.9774 9.83788L12.7761 9.43539L12.9774 9.83788ZM15.2128 10.6807L15.6565 10.6057L15.2128 10.6807ZM14.8783 8.42245L14.5424 8.12295L14.8783 8.42245ZM14.8487 8.52527L14.405 8.60023V8.60023L14.8487 8.52527ZM16.1301 6.72764L16.0743 7.17417L16.1301 6.72764ZM16.207 6.93249L16.5428 7.232L16.207 6.93249ZM14.1134 6.42011L13.7109 6.62135L14.1134 6.42011ZM14.2086 6.48746L14.2644 6.04093L14.2086 6.48746ZM13.1432 4.47963L13.5457 4.27838V4.27838L13.1432 4.47963ZM12.9221 4.47963L13.3246 4.68087V4.68087L12.9221 4.47963ZM12.7407 4.68087L13.7109 6.62135L14.5159 6.21886L13.5457 4.27838L12.7407 4.68087ZM14.1528 6.93398L16.0743 7.17417L16.1859 6.28112L14.2644 6.04093L14.1528 6.93398ZM15.8711 6.63299L14.5424 8.12295L15.2141 8.72196L16.5428 7.232L15.8711 6.63299ZM14.405 8.60023L14.7691 10.7556L15.6565 10.6057L15.2924 8.45032L14.405 8.60023ZM15.2369 10.4093L13.2892 9.43539L12.8867 10.2404L14.8344 11.2143L15.2369 10.4093ZM12.7761 9.43539L10.8288 10.4091L11.2313 11.2141L13.1786 10.2404L12.7761 9.43539ZM11.2965 10.7559L11.6638 8.60106L10.7766 8.44985L10.4093 10.6047L11.2965 10.7559ZM11.526 8.12244L10.1942 6.63265L9.52325 7.23247L10.855 8.72226L11.526 8.12244ZM9.99135 7.17413L11.9125 6.93398L11.8009 6.04093L9.87972 6.28108L9.99135 7.17413ZM12.3544 6.62135L13.3246 4.68087L12.5196 4.27838L11.5494 6.21886L12.3544 6.62135ZM11.9125 6.93398C12.1028 6.91019 12.2686 6.79288 12.3544 6.62135L11.5494 6.21886C11.5982 6.12124 11.6926 6.05447 11.8009 6.04093L11.9125 6.93398ZM10.1942 6.63265C10.3697 6.82892 10.2526 7.14147 9.99135 7.17413L9.87972 6.28108C9.42073 6.33845 9.21497 6.88762 9.52325 7.23247L10.1942 6.63265ZM11.6638 8.60106C11.6932 8.42886 11.6424 8.25267 11.526 8.12244L10.855 8.72226C10.7888 8.64813 10.7599 8.54786 10.7766 8.44985L11.6638 8.60106ZM10.8288 10.4091C11.0679 10.2895 11.3415 10.4924 11.2965 10.7559L10.4093 10.6047C10.3304 11.0677 10.8111 11.4241 11.2313 11.2141L10.8288 10.4091ZM13.2892 9.43539C13.1277 9.35465 12.9376 9.35465 12.7761 9.43539L13.1786 10.2404C13.0867 10.2863 12.9786 10.2863 12.8867 10.2404L13.2892 9.43539ZM14.7691 10.7556C14.7246 10.4922 14.998 10.2898 15.2369 10.4093L14.8344 11.2143C15.2542 11.4242 15.7347 11.0685 15.6565 10.6057L14.7691 10.7556ZM14.5424 8.12295C14.4265 8.25292 14.376 8.42851 14.405 8.60023L15.2924 8.45032C15.3089 8.54804 15.2801 8.64798 15.2141 8.72196L14.5424 8.12295ZM16.0743 7.17417C15.8132 7.14154 15.696 6.82933 15.8711 6.63299L16.5428 7.232C16.8505 6.88701 16.6446 6.33845 16.1859 6.28112L16.0743 7.17417ZM13.7109 6.62135C13.7967 6.79288 13.9625 6.9102 14.1528 6.93398L14.2644 6.04093C14.3727 6.05447 14.4671 6.12124 14.5159 6.21886L13.7109 6.62135ZM13.5457 4.27838C13.3343 3.85564 12.731 3.85564 12.5196 4.27838L13.3246 4.68087C13.2043 4.92148 12.861 4.92147 12.7407 4.68087L13.5457 4.27838Z" fill="#C98500" fill-opacity="0.7" mask="url(#path-8-outside-1_1968_22386)"/>
<path d="M5.27441 25.1167C5.27441 24.0121 6.16984 23.1167 7.27441 23.1167H18.6138C19.7184 23.1167 20.6138 24.0121 20.6138 25.1167V30.9742H5.27441V25.1167Z" fill="#243B6D"/>
<rect x="8.44382" y="26.114" width="9.31319" height="2.10736" fill="white" stroke="#498AEE" stroke-width="2.10736"/>
<path d="M8.20581 25.0603H13.3723L17.451 29.275H12.2846L8.20581 25.0603Z" fill="#7EF6DD"/>
<path d="M4.42188 30.9742H21.4656V32.6058H4.42188V30.9742Z" fill="#DE9300"/>
<defs>
<linearGradient id="paint0_linear_1968_22386" x1="12.9293" y1="15.7018" x2="12.9293" y2="21.4033" gradientUnits="userSpaceOnUse">
<stop stop-color="#C07F00"/>
<stop offset="1" stop-color="#DE9300"/>
</linearGradient>
<linearGradient id="paint1_linear_1968_22386" x1="20.1703" y1="7.38562" x2="12.8285" y2="7.38562" gradientUnits="userSpaceOnUse">
<stop stop-color="#DE9300"/>
<stop offset="1" stop-color="#FFBC11"/>
</linearGradient>
<linearGradient id="paint2_linear_1968_22386" x1="20.1703" y1="7.38562" x2="12.8285" y2="7.38562" gradientUnits="userSpaceOnUse">
<stop stop-color="#DE9300"/>
<stop offset="1" stop-color="#FFBC11"/>
</linearGradient>
<linearGradient id="paint3_linear_1968_22386" x1="20.1703" y1="7.38562" x2="12.8285" y2="7.38562" gradientUnits="userSpaceOnUse">
<stop stop-color="#DE9300"/>
<stop offset="1" stop-color="#FFBC11"/>
</linearGradient>
<linearGradient id="paint4_linear_1968_22386" x1="20.1703" y1="7.38562" x2="12.8285" y2="7.38562" gradientUnits="userSpaceOnUse">
<stop stop-color="#DE9300"/>
<stop offset="1" stop-color="#FFBC11"/>
</linearGradient>
</defs>
</svg>
