<svg width="325" height="114" viewBox="0 0 325 114" fill="none" xmlns="http://www.w3.org/2000/svg">
<rect width="325" height="114" rx="22" fill="#30EAC3"/>
<mask id="mask0_1731_16809" style="mask-type:alpha" maskUnits="userSpaceOnUse" x="0" y="0" width="325" height="114">
<rect width="325" height="114" rx="22" fill="#30EAC3"/>
</mask>
<g mask="url(#mask0_1731_16809)">
<circle cx="280" cy="-15" r="57" fill="white" fill-opacity="0.35"/>
<circle cx="197" cy="126" r="57" fill="white" fill-opacity="0.13"/>
<circle cx="154" cy="-15" r="56.5" stroke="white" stroke-opacity="0.25"/>
<circle cx="319" cy="81" r="33" fill="white" fill-opacity="0.51"/>
</g>
<circle cx="54" cy="57" r="34" fill="white"/>
<path d="M66.0092 42.0542H42.4236C40.5704 42.0542 39.0542 43.5704 39.0542 45.4236V69.0092C39.0542 70.8623 40.5704 72.3785 42.4236 72.3785H66.0092C67.8623 72.3785 69.3785 70.8623 69.3785 69.0092V45.4236C69.3785 43.5704 67.8623 42.0542 66.0092 42.0542ZM47.4776 65.6398C46.551 65.6398 45.7929 64.8817 45.7929 63.9551V55.5317C45.7929 54.6051 46.551 53.847 47.4776 53.847C48.4042 53.847 49.1623 54.6051 49.1623 55.5317V63.9551C49.1623 64.8817 48.4042 65.6398 47.4776 65.6398ZM54.2164 65.6398C53.2898 65.6398 52.5317 64.8817 52.5317 63.9551V50.4776C52.5317 49.551 53.2898 48.7929 54.2164 48.7929C55.1429 48.7929 55.901 49.551 55.901 50.4776V63.9551C55.901 64.8817 55.1429 65.6398 54.2164 65.6398ZM60.9551 65.6398C60.0285 65.6398 59.2704 64.8817 59.2704 63.9551V60.5857C59.2704 59.6592 60.0285 58.901 60.9551 58.901C61.8817 58.901 62.6398 59.6592 62.6398 60.5857V63.9551C62.6398 64.8817 61.8817 65.6398 60.9551 65.6398Z" fill="#498AEE"/>
</svg>
