<svg width="26" height="25" viewBox="0 0 26 25" fill="none" xmlns="http://www.w3.org/2000/svg">
    <path d="M9.75 21.875c0 .573.487 1.041 1.083 1.041h4.333c.596 0 1.084-.468 1.084-1.041v-1.042h-6.5v1.042zM13 2.083c-4.182 0-7.583 3.27-7.583 7.292 0 2.479 1.289 4.656 3.25 5.979v2.354c0 .573.487 1.042 1.083 1.042h6.5c.596 0 1.083-.47 1.083-1.042v-2.354c1.961-1.323 3.25-3.5 3.25-5.98 0-4.02-3.401-7.291-7.583-7.291zm3.087 11.563-.92.624v2.396h-4.334V14.27l-.92-.624c-1.463-.98-2.33-2.573-2.33-4.271C7.583 6.5 10.01 4.166 13 4.166c2.99 0 5.416 2.334 5.416 5.209 0 1.698-.866 3.291-2.329 4.27z" fill="#1A1818"/>
</svg>
