<svg width="26" height="25" viewBox="0 0 26 25" fill="none" xmlns="http://www.w3.org/2000/svg">
    <path d="M22.75 12.73c0-5.72-4.615-9.605-9.75-9.605-5.081 0-9.75 3.802-9.75 9.667a2.038 2.038 0 0 0-1.083 1.791v2.084c0 1.145.975 2.083 2.166 2.083.596 0 1.083-.469 1.083-1.042v-5.01c0-3.99 3.196-7.48 7.345-7.594 4.29-.125 7.822 3.188 7.822 7.292v7.396H13c-.596 0-1.084.468-1.084 1.041s.488 1.042 1.084 1.042h7.583c1.192 0 2.167-.938 2.167-2.083V18.52c.639-.323 1.083-.959 1.083-1.709v-2.395c0-.73-.444-1.365-1.083-1.688z" fill="#1A1818"/>
    <path d="M9.75 14.583c.598 0 1.083-.466 1.083-1.041 0-.576-.485-1.042-1.083-1.042s-1.084.466-1.084 1.042c0 .575.486 1.041 1.084 1.041zM16.25 14.583c.598 0 1.083-.466 1.083-1.041 0-.576-.485-1.042-1.083-1.042s-1.084.466-1.084 1.042c0 .575.486 1.041 1.084 1.041z" fill="#1A1818"/>
    <path d="M19.5 11.49c-.52-2.97-3.207-5.24-6.446-5.24-3.282 0-6.814 2.615-6.532 6.719 2.676-1.052 4.69-3.344 5.265-6.136 1.419 2.74 4.333 4.625 7.713 4.657z" fill="#1A1818"/>
</svg>
