<svg width="100" height="87" viewBox="0 0 100 87" fill="none" xmlns="http://www.w3.org/2000/svg">
<path d="M9.4464 40.8004C15.6349 18.2671 39.6339 5.22432 63.0497 11.6686C86.4656 18.113 83.6401 33.0882 77.4516 55.6216C71.2632 78.155 68.0267 85.2527 44.6108 78.8083C21.195 72.364 3.25795 63.3338 9.4464 40.8004Z" fill="#498AEE" fill-opacity="0.1"/>
<path d="M39.1075 26.0762H17.2604C15.8118 26.0762 14.4226 26.6511 13.3983 27.6745C12.374 28.6978 11.7986 30.0858 11.7986 31.5331V75.1884C11.7986 76.6357 12.374 78.0237 13.3983 79.0471C14.4226 80.0704 15.8118 80.6454 17.2604 80.6454H50.031C51.4796 80.6454 52.8688 80.0704 53.8931 79.0471C54.9174 78.0237 55.4928 76.6357 55.4928 75.1884V42.4469L39.1075 26.0762Z" stroke="#498AEE" stroke-width="5" stroke-linecap="round" stroke-linejoin="round"/>
<path d="M39.1075 26.0762V42.4469H55.4928" stroke="#498AEE" stroke-width="5" stroke-linecap="round" stroke-linejoin="round"/>
<path d="M44.5692 56.0889H22.7221" stroke="#498AEE" stroke-width="4" stroke-linecap="round" stroke-linejoin="round"/>
<path d="M44.5692 67.0029H22.7221" stroke="#498AEE" stroke-width="4" stroke-linecap="round" stroke-linejoin="round"/>
<path d="M28.1839 45.1748H25.453H22.7221" stroke="#498AEE" stroke-width="4" stroke-linecap="round" stroke-linejoin="round"/>
<ellipse cx="88.4618" cy="60.2479" rx="5.46178" ry="5.45692" fill="#498AEE" fill-opacity="0.25"/>
<ellipse cx="94.4618" cy="26.2479" rx="5.46178" ry="5.45692" fill="#498AEE" fill-opacity="0.42"/>
</svg>
