<svg width="63" height="39" viewBox="0 0 63 39" fill="none" xmlns="http://www.w3.org/2000/svg">
    <path d="m8.38 30.74-.94 6.53c-.047.313-.143.527-.29.64-.147.113-.35.17-.61.17H6c-.227 0-.403-.06-.53-.18s-.227-.327-.3-.62l-.79-3.3c-.013-.073-.033-.11-.06-.11-.033 0-.057.037-.07.11l-.79 3.3c-.073.293-.173.5-.3.62s-.303.18-.53.18h-.54c-.26 0-.463-.057-.61-.17-.147-.113-.243-.327-.29-.64l-.94-6.53v-.03c0-.047.017-.08.05-.1a.186.186 0 0 1 .12-.04h1.06c.04 0 .077.017.11.05a.216.216 0 0 1 .06.13l.72 5.97c.007.047.01.083.01.11.007.027.02.04.04.04s.03-.013.03-.04l.03-.11.86-3.51a.693.693 0 0 1 .18-.31c.087-.093.237-.14.45-.14h.69c.213 0 .363.047.45.14.087.087.147.19.18.31l.86 3.51a.43.43 0 0 1 .02.11c.007.027.02.04.04.04s.03-.013.03-.04c.007-.027.013-.063.02-.11l.72-5.97a.216.216 0 0 1 .06-.13.153.153 0 0 1 .11-.05h1.06c.047 0 .087.013.12.04.033.02.05.053.05.1v.03zm5.34 4.85c0 .36-.054.693-.16 1-.1.3-.25.56-.45.78-.2.22-.45.393-.75.52-.294.127-.637.19-1.03.19-.394 0-.74-.063-1.04-.19a2.12 2.12 0 0 1-.74-.52 2.28 2.28 0 0 1-.46-.78c-.1-.307-.15-.64-.15-1v-.81c0-.36.05-.69.15-.99a2.12 2.12 0 0 1 1.2-1.31c.3-.127.646-.19 1.04-.19.393 0 .736.063 1.03.19.3.127.55.3.75.52.2.22.35.483.45.79.106.3.16.63.16.99v.81zm-1.32-.81c0-.413-.09-.74-.27-.98-.18-.247-.447-.37-.8-.37-.354 0-.62.123-.8.37-.18.24-.27.567-.27.98v.81c0 .413.09.743.27.99.18.24.446.36.8.36.353 0 .62-.12.8-.36.18-.247.27-.577.27-.99v-.81zm5.452-1.57c0 .053-.02.1-.06.14a.192.192 0 0 1-.14.06c-.274 0-.52.033-.74.1-.214.06-.427.147-.64.26v4.02c0 .053-.02.103-.06.15a.192.192 0 0 1-.14.06h-.92c-.054 0-.1-.02-.14-.06a.227.227 0 0 1-.06-.15v-5.23c0-.053.02-.1.06-.14.04-.04.086-.06.14-.06h.87c.053 0 .1.02.14.06.04.04.06.087.06.14v.21a1.95 1.95 0 0 1 .75-.38c.253-.067.48-.1.68-.1.053 0 .1.02.14.06.04.04.06.087.06.14v.72zm5.49 4.67a.125.125 0 0 1-.04.09.162.162 0 0 1-.1.03h-1.22a.266.266 0 0 1-.16-.06.826.826 0 0 1-.13-.14l-1.57-2.28v2.27c0 .053-.02.103-.06.15a.192.192 0 0 1-.14.06h-.92c-.054 0-.1-.02-.14-.06a.227.227 0 0 1-.06-.15v-7.2c0-.053.02-.1.06-.14.04-.04.086-.06.14-.06h.92c.053 0 .1.02.14.06.04.04.06.087.06.14v4.17l1.71-2.28a.228.228 0 0 1 .11-.09.314.314 0 0 1 .12-.03h1.12c.1 0 .15.037.15.11a.16.16 0 0 1-.04.1l-2.01 2.47 2.03 2.76c.02.033.03.06.03.08zm5.306-2.29c0 .36-.053.693-.16 1-.1.3-.25.56-.45.78-.2.22-.45.393-.75.52-.293.127-.636.19-1.03.19-.393 0-.74-.063-1.04-.19a2.12 2.12 0 0 1-.74-.52 2.28 2.28 0 0 1-.46-.78c-.1-.307-.15-.64-.15-1v-.81c0-.36.05-.69.15-.99.107-.307.26-.57.46-.79.2-.22.447-.393.74-.52.3-.127.647-.19 1.04-.19.394 0 .737.063 1.03.19.3.127.55.3.75.52.2.22.35.483.45.79.107.3.16.63.16.99v.81zm-1.32-.81c0-.413-.09-.74-.27-.98-.18-.247-.446-.37-.8-.37-.353 0-.62.123-.8.37-.18.24-.27.567-.27.98v.81c0 .413.09.743.27.99.18.24.447.36.8.36.354 0 .62-.12.8-.36.18-.247.27-.577.27-.99v-.81zm7.173 3.02c0 .053-.02.1-.06.14a.192.192 0 0 1-.14.06h-.92c-.054 0-.1-.02-.14-.06a.192.192 0 0 1-.06-.14v-.23c-.26.173-.507.3-.74.38-.234.08-.51.12-.83.12-.254 0-.487-.033-.7-.1a1.302 1.302 0 0 1-.53-.32 1.515 1.515 0 0 1-.39-.73 4.731 4.731 0 0 1-.11-1.09v-3.26c0-.053.02-.1.06-.14a.18.18 0 0 1 .14-.07H31c.053 0 .1.023.14.07.04.04.06.087.06.14v3.26c0 .253.013.457.04.61a.663.663 0 0 0 .19.35c.073.06.156.107.25.14a1.387 1.387 0 0 0 .66 0 2.721 2.721 0 0 0 .59-.23c.093-.047.176-.09.25-.13v-4c0-.053.02-.1.06-.14a.18.18 0 0 1 .14-.07h.92c.053 0 .1.023.14.07.04.04.06.087.06.14v5.23zm4.547.03c0 .1-.063.16-.19.18a7.31 7.31 0 0 1-.35.05 3.887 3.887 0 0 1-1.06-.04c-.2-.04-.363-.117-.49-.23a1 1 0 0 1-.28-.48 3.1 3.1 0 0 1-.09-.82v-3.14l-.94-.14a.347.347 0 0 1-.14-.07.161.161 0 0 1-.06-.13v-.45c0-.053.02-.1.06-.14.04-.04.087-.06.14-.06h.94v-.82c0-.053.02-.097.06-.13a.347.347 0 0 1 .14-.07l.93-.16h.04c.107 0 .16.05.16.15v1.03h.9c.054 0 .1.02.14.06.04.04.06.087.06.14v.59c0 .053-.02.1-.06.14a.192.192 0 0 1-.14.06h-.9v3.14c0 .127.004.227.01.3.007.073.024.13.05.17.027.04.064.067.11.08.054.007.127.01.22.01h.53c.14 0 .21.05.21.15v.63zm8.863-4.94c0 .44-.08.81-.24 1.11a1.97 1.97 0 0 1-.63.73c-.26.18-.563.31-.91.39-.346.073-.713.11-1.1.11-.133 0-.286-.003-.46-.01a25.509 25.509 0 0 0-.43-.03v2.61c0 .053-.02.1-.06.14a.161.161 0 0 1-.13.06h-1c-.053 0-.1-.02-.14-.06a.192.192 0 0 1-.06-.14v-6.88c0-.1.027-.17.08-.21a.49.49 0 0 1 .24-.09c.26-.04.56-.07.9-.09.34-.027.694-.04 1.06-.04.387 0 .754.037 1.1.11.347.073.65.2.91.38.267.18.477.42.63.72.16.293.24.66.24 1.1v.09zm-1.38-.09c0-.42-.127-.717-.38-.89-.247-.18-.62-.27-1.12-.27-.053 0-.123.003-.21.01-.08 0-.163.003-.25.01-.087 0-.17.003-.25.01a1.31 1.31 0 0 0-.18.01v2.38c.04 0 .1.003.18.01.087 0 .174.003.26.01.093 0 .18.003.26.01h.19c.54 0 .924-.1 1.15-.3.233-.2.35-.5.35-.9v-.09zm3.85 4.99c0 .053-.02.103-.06.15a.161.161 0 0 1-.13.06h-.93c-.053 0-.1-.02-.14-.06a.227.227 0 0 1-.06-.15v-7.2c0-.053.02-.1.06-.14.04-.04.087-.06.14-.06h.93c.053 0 .097.02.13.06.04.04.06.087.06.14v7.2zm5.635.01c0 .053-.02.1-.06.14a.192.192 0 0 1-.14.06h-.85c-.054 0-.1-.02-.14-.06a.192.192 0 0 1-.06-.14v-.16c-.234.14-.467.25-.7.33-.234.073-.47.11-.71.11-.207 0-.414-.023-.62-.07a1.439 1.439 0 0 1-.56-.26 1.484 1.484 0 0 1-.4-.51c-.1-.213-.15-.49-.15-.83v-.04c0-.287.043-.537.13-.75a1.35 1.35 0 0 1 .43-.54c.2-.147.453-.257.76-.33.313-.073.686-.11 1.12-.11h.63v-.44c0-.327-.074-.543-.22-.65-.14-.107-.36-.16-.66-.16-.32 0-.63.01-.93.03-.3.013-.534.03-.7.05h-.05a.25.25 0 0 1-.13-.03c-.034-.02-.05-.067-.05-.14v-.64c0-.113.063-.183.19-.21a8.277 8.277 0 0 1 1.67-.16c.713 0 1.256.157 1.63.47.38.313.57.793.57 1.44v3.6zm-1.32-2.28h-.63c-.227 0-.414.02-.56.06a.807.807 0 0 0-.34.16.54.54 0 0 0-.17.26c-.027.107-.04.23-.04.37v.04c0 .247.056.413.17.5.113.08.296.12.55.12.18 0 .356-.027.53-.08.18-.053.343-.12.49-.2v-1.23zm7.338 2.27c0 .053-.02.103-.06.15a.192.192 0 0 1-.14.06h-.92c-.053 0-.1-.02-.14-.06a.227.227 0 0 1-.06-.15v-3.26c0-.22-.01-.4-.03-.54a.662.662 0 0 0-.11-.34.418.418 0 0 0-.25-.18 1.424 1.424 0 0 0-.46-.06c-.173 0-.353.033-.54.1-.18.06-.377.147-.59.26v4.02c0 .053-.02.103-.06.15a.192.192 0 0 1-.14.06h-.92c-.053 0-.1-.02-.14-.06a.227.227 0 0 1-.06-.15v-5.23c0-.053.02-.1.06-.14.04-.04.087-.06.14-.06h.87c.053 0 .1.02.14.06.04.04.06.087.06.14v.21c.147-.093.28-.17.4-.23.127-.06.253-.107.38-.14.127-.04.257-.067.39-.08.133-.02.283-.03.45-.03.36 0 .653.057.88.17.227.113.4.27.52.47.127.2.213.437.26.71.047.273.07.57.07.89v3.26zM23 6c-.55 0-1 .45-1 1v13c0 1.1.9 2 2 2h13c.55 0 1-.45 1-1s-.45-1-1-1H25c-.55 0-1-.45-1-1V7c0-.55-.45-1-1-1zm17-4H28c-1.1 0-2 .9-2 2v12c0 1.1.9 2 2 2h12c1.1 0 2-.9 2-2V4c0-1.1-.9-2-2-2zm-2 9h-8c-.55 0-1-.45-1-1s.45-1 1-1h8c.55 0 1 .45 1 1s-.45 1-1 1zm-4 4h-4c-.55 0-1-.45-1-1s.45-1 1-1h4c.55 0 1 .45 1 1s-.45 1-1 1zm4-8h-8c-.55 0-1-.45-1-1s.45-1 1-1h8c.55 0 1 .45 1 1s-.45 1-1 1z" fill="#1A1818"/>
</svg>
