<svg width="36" height="36" viewBox="0 0 36 36" fill="none" xmlns="http://www.w3.org/2000/svg">
<circle cx="18" cy="18" r="18" fill="#FF0000"/>
<path fill-rule="evenodd" clip-rule="evenodd" d="M28.1705 11.1407C28.5297 11.4998 28.7885 11.9469 28.9212 12.4372C29.6852 15.5125 29.5087 20.3696 28.936 23.5636C28.8033 24.0539 28.5445 24.5009 28.1853 24.8601C27.8261 25.2193 27.3791 25.4781 26.8888 25.6108C25.0937 26.1004 17.869 26.1004 17.869 26.1004C17.869 26.1004 10.6443 26.1004 8.84921 25.6108C8.35888 25.4781 7.91185 25.2193 7.55266 24.8601C7.19347 24.5009 6.93464 24.0539 6.80196 23.5636C6.0335 20.5016 6.24416 15.6416 6.78713 12.452C6.91981 11.9617 7.17863 11.5147 7.53783 11.1555C7.89702 10.7963 8.34404 10.5375 8.83438 10.4048C10.6294 9.91522 17.8542 9.90039 17.8542 9.90039C17.8542 9.90039 25.0789 9.90039 26.8739 10.3899C27.3643 10.5226 27.8113 10.7815 28.1705 11.1407ZM21.5481 18.0004L15.5547 21.4718V14.529L21.5481 18.0004Z" fill="white"/>
</svg>
